<svg width="250" height="380" viewBox="0 0 250 380" fill="none" xmlns="http://www.w3.org/2000/svg">
<path d="M125 0C138.141 0 148.794 11.485 148.794 25.6526H226.206V163.834C239.347 163.834 250 175.319 250 189.487C250 203.654 239.347 215.14 226.206 215.14V354.347H148.794C148.794 368.515 138.141 380 125 380C111.859 380 101.206 368.515 101.206 354.347H23.7944V215.14C10.6531 215.14 0 203.654 0 189.487C0 175.319 10.6531 163.834 23.7944 163.834V25.6526H101.206C101.206 11.485 111.859 0 125 0ZM125 1.71017C112.735 1.71017 102.792 12.4295 102.792 25.6526V27.3627H25.3807V165.545H23.7944C11.5292 165.545 1.58629 176.264 1.58629 189.487C1.58629 202.71 11.5292 213.429 23.7944 213.429H25.3807V352.637H102.792V354.347C102.792 367.57 112.735 378.29 125 378.29C137.265 378.29 147.208 367.57 147.208 354.347V352.637H224.619V213.429H226.206C238.471 213.429 248.414 202.71 248.414 189.487C248.414 176.264 238.471 165.545 226.206 165.545H224.619V27.3627H147.208V25.6526C147.208 12.4295 137.265 1.71017 125 1.71017Z" fill="#BBC9DC"/>
<path fill-rule="evenodd" clip-rule="evenodd" d="M213.592 20.5221H135.635C135.758 19.9623 135.804 19.3849 135.774 18.8119H215.109C215.109 28.6304 222.634 36.59 231.916 36.59V178.552C231.385 178.519 230.849 178.568 230.33 178.7V38.228C221.467 37.4246 214.365 29.9528 213.592 20.5221ZM231.916 342.726V201.786C231.385 201.819 230.849 201.769 230.33 201.638V341.088C221.467 341.891 214.365 349.363 213.592 358.794H135.551C135.706 359.349 135.783 359.927 135.783 360.504H215.109C215.109 350.686 222.634 342.726 231.916 342.726ZM114.213 360.504H34.2571C34.2571 350.686 26.7319 342.726 17.4492 342.726V201.788C17.9808 201.82 18.5164 201.771 19.0355 201.639V341.088C27.8985 341.891 35.0008 349.363 35.7734 358.794H114.445C114.29 359.349 114.213 359.927 114.213 360.504ZM114.222 18.8119C114.192 19.3849 114.238 19.9623 114.361 20.5221H35.7734C35.0008 29.9528 27.8985 37.4246 19.0355 38.228V178.702C18.5163 178.57 17.9808 178.521 17.4492 178.553V36.59C26.7319 36.59 34.2571 28.6304 34.2571 18.8119H114.222Z" fill="#BBC9DC"/>
<path d="M21.5199 21.6885L20.1082 18.5283L21.4479 15.3319C21.5315 15.1325 21.5562 14.9101 21.5185 14.695C21.4809 14.4799 21.3827 14.2825 21.2374 14.1297C21.0921 13.9768 20.9067 13.8758 20.7063 13.8405C20.5059 13.8052 20.3003 13.8372 20.1174 13.9322L17.1862 15.4542L14.2214 14.0099C14.0364 13.9198 13.8301 13.8932 13.6306 13.9338C13.4311 13.9744 13.248 14.0802 13.1062 14.2368C12.9644 14.3935 12.8707 14.5934 12.838 14.8094C12.8052 15.0254 12.8349 15.2471 12.923 15.4443L14.3348 18.6044L12.9951 21.8008C12.9115 22.0002 12.8868 22.2226 12.9245 22.4377C12.9621 22.6528 13.0603 22.8502 13.2056 23.003C13.3509 23.1559 13.5363 23.2569 13.7367 23.2922C13.937 23.3275 14.1426 23.2955 14.3256 23.2005L17.2568 21.6785L20.2216 23.1228C20.4066 23.2129 20.6129 23.2395 20.8124 23.1989C21.0119 23.1584 21.195 23.0526 21.3368 22.8959C21.4786 22.7392 21.5722 22.5393 21.605 22.3233C21.6378 22.1073 21.6081 21.8856 21.5199 21.6885ZM17.4938 20.3866C17.4146 20.348 17.3284 20.3286 17.2415 20.3297C17.1545 20.3309 17.0689 20.3526 16.9905 20.3933L14.306 21.7873L15.5331 18.86C15.5689 18.7745 15.5869 18.6817 15.5858 18.5879C15.5848 18.4942 15.5647 18.4018 15.5269 18.3173L14.2339 15.4232L16.9492 16.7461C17.0284 16.7847 17.1145 16.8041 17.2015 16.803C17.2885 16.8018 17.3741 16.7801 17.4525 16.7394L20.137 15.3454L18.9099 18.2728C18.8741 18.3582 18.8561 18.4511 18.8571 18.5448C18.8582 18.6386 18.8783 18.7309 18.9161 18.8154L20.2091 21.7095L17.4938 20.3866Z" fill="#BBC9DC"/>
<path d="M236.939 21.6885L235.527 18.5283L236.867 15.3319C236.95 15.1325 236.975 14.9101 236.937 14.695C236.9 14.4799 236.802 14.2825 236.656 14.1297C236.511 13.9768 236.325 13.8758 236.125 13.8405C235.925 13.8052 235.719 13.8372 235.536 13.9322L232.605 15.4542L229.64 14.0099C229.455 13.9198 229.249 13.8932 229.049 13.9338C228.85 13.9744 228.667 14.0802 228.525 14.2368C228.383 14.3935 228.29 14.5934 228.257 14.8094C228.224 15.0254 228.254 15.2471 228.342 15.4443L229.754 18.6044L228.414 21.8008C228.33 22.0002 228.306 22.2226 228.343 22.4377C228.381 22.6528 228.479 22.8502 228.624 23.003C228.77 23.1559 228.955 23.2569 229.155 23.2922C229.356 23.3275 229.561 23.2955 229.744 23.2005L232.676 21.6785L235.64 23.1228C235.825 23.2129 236.032 23.2395 236.231 23.1989C236.431 23.1584 236.614 23.0526 236.756 22.8959C236.897 22.7392 236.991 22.5393 237.024 22.3233C237.057 22.1073 237.027 21.8856 236.939 21.6885ZM232.913 20.3866C232.833 20.348 232.747 20.3286 232.66 20.3297C232.573 20.3309 232.488 20.3526 232.409 20.3933L229.725 21.7873L230.952 18.86C230.988 18.7745 231.006 18.6817 231.005 18.5879C231.004 18.4942 230.983 18.4018 230.946 18.3173L229.653 15.4232L232.368 16.7461C232.447 16.7847 232.533 16.8041 232.62 16.803C232.707 16.8018 232.793 16.7801 232.871 16.7394L235.556 15.3454L234.329 18.2728C234.293 18.3582 234.275 18.4511 234.276 18.5448C234.277 18.6386 234.297 18.7309 234.335 18.8154L235.628 21.7095L232.913 20.3866Z" fill="#BBC9DC"/>
<path d="M236.939 364.065L235.527 360.905L236.867 357.708C236.95 357.509 236.975 357.286 236.937 357.071C236.9 356.856 236.802 356.659 236.656 356.506C236.511 356.353 236.325 356.252 236.125 356.217C235.925 356.181 235.719 356.213 235.536 356.308L232.605 357.83L229.64 356.386C229.455 356.296 229.249 356.269 229.049 356.31C228.85 356.351 228.667 356.456 228.525 356.613C228.383 356.77 228.29 356.97 228.257 357.186C228.224 357.402 228.254 357.623 228.342 357.82L229.754 360.981L228.414 364.177C228.33 364.376 228.306 364.599 228.343 364.814C228.381 365.029 228.479 365.226 228.624 365.379C228.77 365.532 228.955 365.633 229.155 365.668C229.356 365.704 229.561 365.672 229.744 365.577L232.676 364.055L235.64 365.499C235.825 365.589 236.032 365.616 236.231 365.575C236.431 365.535 236.614 365.429 236.756 365.272C236.897 365.116 236.991 364.916 237.024 364.7C237.057 364.484 237.027 364.262 236.939 364.065ZM232.913 362.763C232.833 362.724 232.747 362.705 232.66 362.706C232.573 362.707 232.488 362.729 232.409 362.77L229.725 364.164L230.952 361.236C230.988 361.151 231.006 361.058 231.005 360.964C231.004 360.87 230.983 360.778 230.946 360.694L229.653 357.799L232.368 359.122C232.447 359.161 232.533 359.18 232.62 359.179C232.707 359.178 232.793 359.156 232.871 359.116L235.556 357.722L234.329 360.649C234.293 360.734 234.275 360.827 234.276 360.921C234.277 361.015 234.297 361.107 234.335 361.192L235.628 364.086L232.913 362.763Z" fill="#BBC9DC"/>
<path d="M22.4717 364.065L21.06 360.905L22.3997 357.708C22.4833 357.509 22.508 357.286 22.4703 357.071C22.4327 356.856 22.3345 356.659 22.1892 356.506C22.0439 356.353 21.8585 356.252 21.6581 356.217C21.4577 356.181 21.2521 356.213 21.0692 356.308L18.138 357.83L15.1731 356.386C14.9881 356.296 14.7819 356.269 14.5824 356.31C14.3829 356.351 14.1998 356.456 14.058 356.613C13.9162 356.77 13.8225 356.97 13.7898 357.186C13.757 357.402 13.7867 357.623 13.8748 357.82L15.2866 360.981L13.9469 364.177C13.8633 364.376 13.8386 364.599 13.8763 364.814C13.9139 365.029 14.0121 365.226 14.1574 365.379C14.3027 365.532 14.4881 365.633 14.6885 365.668C14.8888 365.704 15.0944 365.672 15.2773 365.577L18.2086 364.055L21.1734 365.499C21.3584 365.589 21.5647 365.616 21.7642 365.575C21.9637 365.535 22.1468 365.429 22.2886 365.272C22.4304 365.116 22.524 364.916 22.5568 364.7C22.5896 364.484 22.5599 364.262 22.4717 364.065ZM18.4456 362.763C18.3664 362.724 18.2802 362.705 18.1933 362.706C18.1063 362.707 18.0207 362.729 17.9423 362.77L15.2578 364.164L16.4849 361.236C16.5207 361.151 16.5387 361.058 16.5376 360.964C16.5366 360.87 16.5165 360.778 16.4787 360.694L15.1857 357.799L17.901 359.122C17.9802 359.161 18.0663 359.18 18.1533 359.179C18.2403 359.178 18.3259 359.156 18.4043 359.116L21.0888 357.722L19.8617 360.649C19.8259 360.734 19.8079 360.827 19.8089 360.921C19.81 361.015 19.8301 361.107 19.8679 361.192L21.1609 364.086L18.4456 362.763Z" fill="#BBC9DC"/>
<path fill-rule="evenodd" clip-rule="evenodd" d="M18.6181 196.366C18.429 196.925 17.8851 197.12 17.4492 196.95C17.2167 196.859 17.0149 196.664 16.914 196.366L15.6087 192.496L12.0192 191.089C11.2242 190.776 11.2242 189.565 12.0192 189.252L15.6087 187.845L16.914 183.975C17.0149 183.677 17.2167 183.482 17.4492 183.392C17.8851 183.222 18.429 183.416 18.6181 183.975L19.0355 185.212L19.9234 187.845L23.513 189.252C24.308 189.565 24.308 190.776 23.513 191.089L19.9234 192.496L19.0355 195.129L18.6181 196.366Z" fill="#BBC9DC"/>
<path fill-rule="evenodd" clip-rule="evenodd" d="M131.286 18.8119C131.203 18.5605 131.022 18.3421 130.745 18.2331L127.155 16.8259L125.85 12.956C125.56 12.099 124.436 12.099 124.146 12.956L122.841 16.8259L119.251 18.2331C118.974 18.3421 118.793 18.5605 118.709 18.8119C118.553 19.2815 118.733 19.8666 119.251 20.0703L120.403 20.5221L122.841 21.4775L124.146 25.3474C124.436 26.2045 125.56 26.2045 125.85 25.3474L127.155 21.4775L129.593 20.5221L130.745 20.0703C131.263 19.8666 131.443 19.2815 131.286 18.8119Z" fill="#BBC9DC"/>
<path fill-rule="evenodd" clip-rule="evenodd" d="M231.916 196.947C231.48 197.119 230.934 196.924 230.745 196.365L230.33 195.134L229.44 192.495L225.85 191.087C225.055 190.775 225.055 189.563 225.85 189.25L229.44 187.843L230.33 185.203L230.745 183.973C230.934 183.413 231.48 183.219 231.916 183.391C232.148 183.482 232.348 183.676 232.449 183.973L233.754 187.843L237.344 189.25C238.139 189.563 238.139 190.775 237.344 191.087L233.754 192.495L232.449 196.365C232.348 196.662 232.148 196.856 231.916 196.947Z" fill="#BBC9DC"/>
<path fill-rule="evenodd" clip-rule="evenodd" d="M128.731 358.794L127.155 358.176L125.85 354.306C125.56 353.449 124.436 353.449 124.146 354.306L122.841 358.176L121.265 358.794L119.251 359.583C118.853 359.74 118.654 360.122 118.655 360.504C118.656 360.884 118.854 361.264 119.251 361.42L122.841 362.828L124.146 366.698C124.436 367.555 125.56 367.555 125.85 366.698L127.155 362.828L130.745 361.42C131.142 361.264 131.34 360.884 131.341 360.504C131.342 360.122 131.143 359.74 130.745 359.583L128.731 358.794Z" fill="#BBC9DC"/>
</svg>
