<svg width="290" height="437" viewBox="0 0 290 437" fill="none" xmlns="http://www.w3.org/2000/svg">
<path d="M145 0C160.244 0 172.602 13.2078 172.602 29.5005H262.398V188.41C277.642 188.41 290 201.617 290 217.91C290 234.203 277.642 247.41 262.398 247.41V407.5H172.602C172.602 423.792 160.244 437 145 437C129.756 437 117.398 423.792 117.398 407.5H27.6015V247.41C12.3576 247.41 0 234.203 0 217.91C0 201.617 12.3576 188.41 27.6015 188.41V29.5005H117.398C117.398 13.2078 129.756 0 145 0ZM145 1.9667C130.772 1.9667 119.239 14.294 119.239 29.5005V31.4671H29.4416V190.376H27.6015C13.3739 190.376 1.8401 202.704 1.8401 217.91C1.8401 233.116 13.3739 245.444 27.6015 245.444H29.4416V405.533H119.239V407.5C119.239 422.706 130.772 435.033 145 435.033C159.228 435.033 170.761 422.706 170.761 407.5V405.533H260.558V245.444H262.398C276.626 245.444 288.16 233.116 288.16 217.91C288.16 202.704 276.626 190.376 262.398 190.376H260.558V31.4671H170.761V29.5005C170.761 14.294 159.228 1.9667 145 1.9667Z" fill="#E3CCCD"/>
<path fill-rule="evenodd" clip-rule="evenodd" d="M247.767 23.6004H157.337C157.479 22.9567 157.532 22.2927 157.497 21.6337H249.526C249.526 32.9249 258.255 42.0785 269.023 42.0785V205.334C268.406 205.297 267.785 205.353 267.183 205.505V43.9622C256.902 43.0383 248.663 34.4457 247.767 23.6004ZM269.023 394.135V232.054C268.406 232.091 267.785 232.035 267.183 231.883V392.251C256.902 393.175 248.663 401.768 247.767 412.613H157.239C157.418 413.251 157.508 413.916 157.508 414.58H249.526C249.526 403.288 258.255 394.135 269.023 394.135ZM132.487 414.58H39.7383C39.7383 403.288 31.009 394.135 20.2411 394.135V232.056C20.8577 232.093 21.479 232.036 22.0812 231.884V392.251C32.3623 393.175 40.6009 401.768 41.4972 412.613H132.756C132.577 413.251 132.487 413.916 132.487 414.58ZM132.498 21.6337C132.463 22.2927 132.516 22.9567 132.659 23.6004H41.4972C40.6009 34.4457 32.3623 43.0383 22.0812 43.9622V205.508C21.479 205.356 20.8577 205.299 20.2411 205.336V42.0785C31.009 42.0785 39.7383 32.9249 39.7383 21.6337H132.498Z" fill="#E3CCCD"/>
<path d="M24.9631 24.9417L23.3255 21.3076L24.8795 17.6317C24.9766 17.4023 25.0052 17.1466 24.9615 16.8993C24.9178 16.6519 24.804 16.4249 24.6354 16.2491C24.4669 16.0733 24.2518 15.9572 24.0193 15.9166C23.7869 15.876 23.5484 15.9128 23.3362 16.0221L19.936 17.7724L16.4968 16.1114C16.2822 16.0077 16.0429 15.9771 15.8115 16.0238C15.58 16.0705 15.3677 16.1922 15.2032 16.3723C15.0387 16.5525 14.9301 16.7824 14.8921 17.0308C14.8541 17.2792 14.8885 17.5341 14.9907 17.7609L16.6284 21.3951L15.0743 25.0709C14.9773 25.3003 14.9487 25.556 14.9924 25.8034C15.0361 26.0507 15.1499 26.2777 15.3185 26.4535C15.487 26.6293 15.7021 26.7454 15.9345 26.786C16.167 26.8266 16.4055 26.7898 16.6176 26.6805L20.0179 24.9303L23.4571 26.5912C23.6717 26.6949 23.911 26.7255 24.1424 26.6788C24.3738 26.6321 24.5862 26.5104 24.7507 26.3303C24.9152 26.1501 25.0238 25.9202 25.0618 25.6718C25.0998 25.4234 25.0654 25.1685 24.9631 24.9417ZM20.2928 23.4446C20.2009 23.4002 20.101 23.3779 20.0001 23.3792C19.8993 23.3805 19.7999 23.4055 19.709 23.4523L16.595 25.0554L18.0184 21.6889C18.0599 21.5907 18.0808 21.4839 18.0796 21.3761C18.0784 21.2683 18.055 21.1621 18.0112 21.0649L16.5113 17.7367L19.661 19.258C19.753 19.3024 19.8529 19.3247 19.9537 19.3234C20.0546 19.3221 20.154 19.2972 20.2449 19.2504L23.3589 17.6472L21.9355 21.0137C21.894 21.1119 21.8731 21.2187 21.8743 21.3265C21.8755 21.4343 21.8989 21.5406 21.9427 21.6377L23.4426 24.9659L20.2928 23.4446Z" fill="#E3CCCD"/>
<path d="M274.849 24.9417L273.211 21.3076L274.765 17.6317C274.862 17.4023 274.891 17.1466 274.847 16.8993C274.804 16.6519 274.69 16.4249 274.521 16.2491C274.353 16.0733 274.138 15.9572 273.905 15.9166C273.673 15.876 273.434 15.9128 273.222 16.0221L269.822 17.7724L266.383 16.1114C266.168 16.0077 265.929 15.9771 265.697 16.0238C265.466 16.0705 265.253 16.1922 265.089 16.3723C264.924 16.5525 264.816 16.7824 264.778 17.0308C264.74 17.2792 264.774 17.5341 264.877 17.7609L266.514 21.3951L264.96 25.0709C264.863 25.3003 264.835 25.556 264.878 25.8034C264.922 26.0507 265.036 26.2777 265.204 26.4535C265.373 26.6293 265.588 26.7454 265.82 26.786C266.053 26.8266 266.291 26.7898 266.503 26.6805L269.904 24.9303L273.343 26.5912C273.558 26.6949 273.797 26.7255 274.028 26.6788C274.26 26.6321 274.472 26.5104 274.637 26.3303C274.801 26.1501 274.91 25.9202 274.948 25.6718C274.986 25.4234 274.951 25.1685 274.849 24.9417ZM270.179 23.4446C270.087 23.4002 269.987 23.3779 269.886 23.3792C269.785 23.3805 269.686 23.4055 269.595 23.4523L266.481 25.0554L267.904 21.6889C267.946 21.5907 267.967 21.4839 267.965 21.3761C267.964 21.2683 267.941 21.1621 267.897 21.0649L266.397 17.7367L269.547 19.258C269.639 19.3024 269.739 19.3247 269.84 19.3234C269.94 19.3221 270.04 19.2972 270.131 19.2504L273.245 17.6472L271.821 21.0137C271.78 21.1119 271.759 21.2187 271.76 21.3265C271.761 21.4343 271.785 21.5406 271.828 21.6377L273.328 24.9659L270.179 23.4446Z" fill="#E3CCCD"/>
<path d="M274.849 418.674L273.211 415.04L274.765 411.364C274.862 411.135 274.891 410.879 274.847 410.632C274.804 410.385 274.69 410.158 274.521 409.982C274.353 409.806 274.138 409.69 273.905 409.649C273.673 409.609 273.434 409.645 273.222 409.755L269.822 411.505L266.383 409.844C266.168 409.74 265.929 409.71 265.697 409.756C265.466 409.803 265.253 409.925 265.089 410.105C264.924 410.285 264.816 410.515 264.778 410.763C264.74 411.012 264.774 411.267 264.877 411.494L266.514 415.128L264.96 418.804C264.863 419.033 264.835 419.289 264.878 419.536C264.922 419.783 265.036 420.01 265.204 420.186C265.373 420.362 265.588 420.478 265.82 420.519C266.053 420.559 266.291 420.523 266.503 420.413L269.904 418.663L273.343 420.324C273.558 420.428 273.797 420.458 274.028 420.411C274.26 420.365 274.472 420.243 274.637 420.063C274.801 419.883 274.91 419.653 274.948 419.405C274.986 419.156 274.951 418.901 274.849 418.674ZM270.179 417.177C270.087 417.133 269.987 417.111 269.886 417.112C269.785 417.113 269.686 417.138 269.595 417.185L266.481 418.788L267.904 415.422C267.946 415.323 267.967 415.217 267.965 415.109C267.964 415.001 267.941 414.895 267.897 414.798L266.397 411.469L269.547 412.991C269.639 413.035 269.739 413.057 269.84 413.056C269.94 413.055 270.04 413.03 270.131 412.983L273.245 411.38L271.821 414.746C271.78 414.845 271.759 414.951 271.76 415.059C271.761 415.167 271.785 415.273 271.828 415.37L273.328 418.699L270.179 417.177Z" fill="#E3CCCD"/>
<path d="M26.0672 418.674L24.4296 415.04L25.9836 411.364C26.0806 411.135 26.1092 410.879 26.0656 410.632C26.0219 410.385 25.908 410.158 25.7395 409.982C25.5709 409.806 25.3558 409.69 25.1234 409.649C24.891 409.609 24.6525 409.645 24.4403 409.755L21.0401 411.505L17.6008 409.844C17.3862 409.74 17.147 409.71 16.9155 409.756C16.6841 409.803 16.4717 409.925 16.3073 410.105C16.1428 410.285 16.0341 410.515 15.9961 410.763C15.9581 411.012 15.9926 411.267 16.0948 411.494L17.7324 415.128L16.1784 418.804C16.0814 419.033 16.0528 419.289 16.0965 419.536C16.1401 419.783 16.254 420.01 16.4225 420.186C16.5911 420.362 16.8062 420.478 17.0386 420.519C17.2711 420.559 17.5095 420.523 17.7217 420.413L21.1219 418.663L24.5612 420.324C24.7758 420.428 25.0151 420.458 25.2465 420.411C25.4779 420.365 25.6903 420.243 25.8548 420.063C26.0193 419.883 26.1279 419.653 26.1659 419.405C26.2039 419.156 26.1694 418.901 26.0672 418.674ZM21.3969 417.177C21.305 417.133 21.2051 417.111 21.1042 417.112C21.0033 417.113 20.904 417.138 20.8131 417.185L17.6991 418.788L19.1224 415.422C19.164 415.323 19.1849 415.217 19.1837 415.109C19.1824 415.001 19.1591 414.895 19.1153 414.798L17.6154 411.469L20.7651 412.991C20.857 413.035 20.957 413.057 21.0578 413.056C21.1587 413.055 21.2581 413.03 21.349 412.983L24.463 411.38L23.0396 414.746C22.998 414.845 22.9771 414.951 22.9784 415.059C22.9796 415.167 23.0029 415.273 23.0467 415.37L24.5467 418.699L21.3969 417.177Z" fill="#E3CCCD"/>
<path fill-rule="evenodd" clip-rule="evenodd" d="M21.5971 225.821C21.3776 226.464 20.7468 226.688 20.2411 226.492C19.9714 226.388 19.7373 226.164 19.6203 225.821L18.1061 221.371L13.9422 219.753C13.0201 219.393 13.0201 217.999 13.9422 217.64L18.1061 216.021L19.6203 211.571C19.7373 211.228 19.9714 211.005 20.2411 210.9C20.7468 210.705 21.3776 210.928 21.5971 211.571L22.0812 212.994L23.1112 216.021L27.2751 217.64C28.1972 217.999 28.1972 219.393 27.2751 219.753L23.1112 221.371L22.0812 224.398L21.5971 225.821Z" fill="#E3CCCD"/>
<path fill-rule="evenodd" clip-rule="evenodd" d="M152.292 21.6337C152.195 21.3445 151.986 21.0935 151.664 20.9681L147.5 19.3498L145.986 14.8994C145.65 13.9138 144.346 13.9138 144.009 14.8994L142.495 19.3498L138.331 20.9681C138.01 21.0935 137.8 21.3445 137.703 21.6337C137.521 22.1738 137.731 22.8466 138.331 23.0809L139.668 23.6004L142.495 24.6992L144.009 29.1495C144.346 30.1351 145.65 30.1351 145.986 29.1495L147.5 24.6992L150.327 23.6004L151.664 23.0809C152.265 22.8466 152.474 22.1738 152.292 21.6337Z" fill="#E3CCCD"/>
<path fill-rule="evenodd" clip-rule="evenodd" d="M269.023 226.489C268.517 226.686 267.884 226.463 267.664 225.819L267.183 224.405L266.15 221.369L261.986 219.751C261.064 219.391 261.064 217.997 261.986 217.638L266.15 216.019L267.183 212.984L267.664 211.569C267.884 210.925 268.517 210.702 269.023 210.899C269.291 211.004 269.524 211.227 269.641 211.569L271.155 216.019L275.319 217.638C276.241 217.997 276.241 219.391 275.319 219.751L271.155 221.369L269.641 225.819C269.524 226.161 269.291 226.384 269.023 226.489Z" fill="#E3CCCD"/>
<path fill-rule="evenodd" clip-rule="evenodd" d="M149.328 412.613L147.5 411.902L145.986 407.452C145.65 406.466 144.346 406.466 144.009 407.452L142.495 411.902L140.667 412.613L138.331 413.521C137.869 413.701 137.639 414.141 137.64 414.58C137.64 415.017 137.871 415.454 138.331 415.634L142.495 417.252L144.009 421.702C144.346 422.688 145.65 422.688 145.986 421.702L147.5 417.252L151.664 415.634C152.124 415.454 152.355 415.017 152.356 414.58C152.357 414.141 152.126 413.701 151.664 413.521L149.328 412.613Z" fill="#E3CCCD"/>
</svg>
