<svg width="141" height="142" viewBox="0 0 141 142" fill="none" xmlns="http://www.w3.org/2000/svg">
<path d="M113.808 105.75H27.1924L70.5 28.5098L113.808 105.75Z" stroke="#E3CCCD" stroke-width="0.5"/>
<path d="M28.0694 38.2538L114.684 38.0604L71.5494 115.397L28.0694 38.2538Z" stroke="#E3CCCD" stroke-width="0.5"/>
<path d="M96.308 114.075L20.71 71.8L96.208 25.5219L96.308 114.075Z" stroke="#E3CCCD" stroke-width="0.5"/>
<path d="M46.1014 26.2175L120.421 70.7004L43.5932 114.735L46.1014 26.2175Z" stroke="#E3CCCD" stroke-width="0.5"/>
<path d="M90.4725 43.5415C98.1106 43.9283 101.517 47.0225 101.517 52.5148C101.517 58.007 97.7493 61.3333 93.6722 65.3558V65.5105C101.775 61.6428 109 69.4557 109 79.9761C109 95.834 99.7104 97.6906 87.7373 97.6906H71.2225V96.1435C75.2996 96.1435 76.2802 95.834 76.2802 85.7778V82.2194C73.2869 94.519 64.4102 98 56.5657 98C41.8572 98 35.3029 87.7117 32.8773 93.3587L32 92.1983L39.2768 74.0197H39.9477C39.0188 82.0647 42.4765 95.2925 56.5657 95.2925C66.8358 95.2925 76.2802 91.3474 76.2802 72.6273V55.4543C76.2802 45.398 75.2996 45.0886 71.2225 45.0886V43.5415H90.4725ZM52.3338 43C59.1977 43 64.8231 47.3319 66.681 48.647C68.7453 50.1167 69.7775 49.0338 70.3452 47.7187L71.2225 48.879L63.4296 66.2841H62.7587C64.6166 54.9902 59.1461 46.6357 52.3338 46.0169C46.502 46.0169 42.941 50.0394 42.941 54.9902C42.9926 66.3615 71.0677 64.9691 71.0677 81.3685C71.0677 84.5401 70.4484 85.5457 69.4162 87.6343C67.2487 89.5682 65.0295 90.0323 62.8619 90.0323V89.2588C63.2232 87.8664 63.4812 86.474 63.4812 85.3136C63.4812 72.782 37.0576 78.2743 37.0576 58.1617C37.0576 47.7187 43.87 43 52.3338 43ZM87.5824 96.1435C98.7815 96.1435 101.001 89.8003 101.001 80.2082C101.001 71.699 94.0851 63.8087 87.9953 71.7764C85.4149 75.5668 83.5054 80.2855 83.5054 87.0155V96.1435H87.5824ZM83.5054 78.1969C86.3438 65.82 94.8076 62.4163 94.8076 52.3601C94.8076 47.0225 92.6401 45.0886 89.1307 45.0886H83.5054V78.1969Z" fill="#E3CCCD"/>
<path d="M56.3137 53.6077C56.3863 53.6508 56.4713 53.6735 56.5583 53.6732C56.6453 53.6728 56.7306 53.6494 56.8039 53.6058C56.8772 53.5621 56.9353 53.5001 56.9712 53.4273C57.0071 53.3545 57.0193 53.2739 57.0062 53.1955C56.5163 50.2546 53.8593 48.7694 51.2421 48.761C48.62 48.7529 45.9432 50.2272 45.4245 53.2343C44.8803 56.3924 47.5341 59.3956 51.0306 59.4649C51.1172 59.4667 51.2028 59.4456 51.2771 59.4041C51.3514 59.3626 51.4112 59.3025 51.4494 59.231C51.4877 59.1595 51.5026 59.0797 51.4926 59.0012C51.4825 58.9227 51.4477 58.8487 51.3926 58.7883C50.0524 57.3183 49.8527 54.7043 51 53.5C52.1468 52.2968 54.5694 52.5745 56.3137 53.6077Z" fill="#E3CCCD"/>
<path fill-rule="evenodd" clip-rule="evenodd" d="M93.4858 83.5229L92.5 81.2876L91.5142 83.5229L89.278 84.5088L91.5142 85.4946L92.5 87.7311L93.4858 85.4946L95.722 84.5088L93.4858 83.5229Z" fill="#E3CCCD"/>
</svg>
