<svg viewBox="0 0 108 108" fill="none" xmlns="http://www.w3.org/2000/svg">
<circle cx="54" cy="54" r="54" fill="#3C285E"/>
<path d="M97.8076 86.75H11.1924L54.5 9.50977L97.8076 86.75Z" stroke="#E3CCCD" stroke-width="0.5"/>
<path d="M12.0693 19.2538L98.6843 19.0604L55.5493 96.3972L12.0693 19.2538Z" stroke="#E3CCCD" stroke-width="0.5"/>
<path d="M80.3081 95.0746L4.71013 52.8L80.2081 6.52187L80.3081 95.0746Z" stroke="#E3CCCD" stroke-width="0.5"/>
<path d="M30.1014 7.21746L104.421 51.7004L27.5932 95.7348L30.1014 7.21746Z" stroke="#E3CCCD" stroke-width="0.5"/>
<path d="M74.4725 26.5415C82.1106 26.9283 85.5168 30.0225 85.5168 35.5148C85.5168 41.007 81.7493 44.3333 77.6722 48.3558V48.5105C85.7748 44.6428 93 52.4557 93 62.9761C93 78.834 83.7104 80.6906 71.7373 80.6906H55.2225V79.1435C59.2996 79.1435 60.2802 78.834 60.2802 68.7778V65.2194C57.2869 77.519 48.4102 81 40.5657 81C25.8572 81 19.3029 70.7117 16.8773 76.3587L16 75.1983L23.2768 57.0197H23.9477C23.0188 65.0647 26.4765 78.2925 40.5657 78.2925C50.8358 78.2925 60.2802 74.3474 60.2802 55.6273V38.4543C60.2802 28.398 59.2996 28.0886 55.2225 28.0886V26.5415H74.4725ZM36.3338 26C43.1977 26 48.8231 30.3319 50.681 31.647C52.7453 33.1167 53.7775 32.0338 54.3452 30.7187L55.2225 31.879L47.4296 49.2841H46.7587C48.6166 37.9902 43.1461 29.6357 36.3338 29.0169C30.502 29.0169 26.941 33.0394 26.941 37.9902C26.9926 49.3615 55.0677 47.9691 55.0677 64.3685C55.0677 67.5401 54.4484 68.5457 53.4162 70.6343C51.2487 72.5682 49.0295 73.0323 46.8619 73.0323V72.2588C47.2232 70.8664 47.4812 69.474 47.4812 68.3136C47.4812 55.782 21.0576 61.2743 21.0576 41.1617C21.0576 30.7187 27.87 26 36.3338 26ZM71.5824 79.1435C82.7815 79.1435 85.0007 72.8003 85.0007 63.2082C85.0007 54.699 78.0851 46.8087 71.9953 54.7764C69.4149 58.5668 67.5054 63.2855 67.5054 70.0155V79.1435H71.5824ZM67.5054 61.1969C70.3438 48.82 78.8076 45.4163 78.8076 35.3601C78.8076 30.0225 76.6401 28.0886 73.1307 28.0886H67.5054V61.1969Z" fill="#E3CCCD"/>
<path d="M40.3137 36.6077C40.3863 36.6508 40.4713 36.6735 40.5583 36.6732C40.6453 36.6728 40.7306 36.6494 40.8039 36.6058C40.8772 36.5621 40.9353 36.5001 40.9712 36.4273C41.0071 36.3545 41.0193 36.2739 41.0062 36.1955C40.5163 33.2546 37.8593 31.7694 35.2421 31.761C32.62 31.7529 29.9432 33.2272 29.4245 36.2343C28.8803 39.3924 31.5341 42.3956 35.0306 42.4649C35.1172 42.4667 35.2028 42.4456 35.2771 42.4041C35.3514 42.3626 35.4112 42.3025 35.4494 42.231C35.4877 42.1595 35.5026 42.0797 35.4926 42.0012C35.4825 41.9227 35.4477 41.8487 35.3926 41.7883C34.0524 40.3183 33.8527 37.7043 35 36.5C36.1468 35.2968 38.5694 35.5745 40.3137 36.6077Z" fill="#E3CCCD"/>
<path fill-rule="evenodd" clip-rule="evenodd" d="M77.4858 66.5229L76.5 64.2876L75.5142 66.5229L73.278 67.5088L75.5142 68.4946L76.5 70.7311L77.4858 68.4946L79.722 67.5088L77.4858 66.5229Z" fill="#E3CCCD"/>
</svg>
