<svg width="295" height="295" viewBox="0 0 295 295" fill="none" xmlns="http://www.w3.org/2000/svg">
<circle cx="149.075" cy="147.253" r="106" stroke="#E3CCCD" stroke-width="5"/>
<circle cx="149.075" cy="147.253" r="106.5" stroke="#E3CCCD" stroke-width="4"/>
<path d="M149.548 53.7661C153.515 53.8274 157.422 54.1346 161.255 54.6753L161.151 55.4175C164.059 55.8277 166.923 56.3731 169.737 57.0464L169.911 56.3179C171.822 56.7752 173.711 57.291 175.575 57.8638L175.356 58.5806C176.287 58.8666 177.212 59.1667 178.13 59.481L178.371 58.772C182.098 60.0479 185.719 61.553 189.217 63.27L188.887 63.9419C191.511 65.2295 194.065 66.6376 196.542 68.1587L196.932 67.52C198.604 68.5465 200.241 69.624 201.84 70.7505L201.41 71.3628C202.204 71.9222 202.989 72.4942 203.765 73.0776L204.215 72.479C207.35 74.8358 210.331 77.3847 213.141 80.1089L212.621 80.647C214.713 82.6749 216.71 84.8011 218.604 87.0171L219.173 86.5298C220.445 88.0174 221.67 89.5457 222.848 91.1118L222.252 91.563C222.835 92.3387 223.406 93.1241 223.965 93.9185L224.577 93.4868C226.826 96.6811 228.88 100.022 230.722 103.494L230.061 103.845C231.422 106.411 232.666 109.049 233.787 111.75L234.478 111.462C235.226 113.266 235.919 115.098 236.555 116.957L235.847 117.199C236.162 118.117 236.462 119.041 236.748 119.972L237.464 119.752C238.604 123.465 239.52 127.276 240.195 131.169L239.458 131.298C239.951 134.146 240.315 137.038 240.543 139.968L241.29 139.911C241.44 141.851 241.531 143.807 241.561 145.779L240.813 145.791C240.821 146.277 240.825 146.765 240.825 147.253C240.825 147.742 240.821 148.23 240.813 148.716L241.561 148.727C241.5 152.694 241.193 156.601 240.652 160.433L239.911 160.33C239.501 163.237 238.955 166.101 238.282 168.916L239.009 169.089C238.552 171.001 238.036 172.89 237.464 174.753L236.748 174.535C236.462 175.465 236.162 176.39 235.847 177.308L236.555 177.549C235.279 181.277 233.774 184.898 232.057 188.396L231.386 188.066C230.099 190.689 228.691 193.243 227.17 195.72L227.807 196.111C226.781 197.782 225.703 199.419 224.577 201.019L223.965 200.588C223.406 201.383 222.834 202.168 222.251 202.944L222.848 203.394C220.491 206.528 217.943 209.509 215.218 212.32L214.681 211.799C212.653 213.892 210.527 215.888 208.311 217.783L208.797 218.352C207.31 219.624 205.782 220.849 204.215 222.027L203.765 221.43C202.99 222.014 202.204 222.585 201.41 223.144L201.84 223.755C198.646 226.005 195.305 228.059 191.834 229.901L191.483 229.24C188.917 230.601 186.279 231.845 183.578 232.965L183.865 233.657C182.061 234.405 180.229 235.098 178.371 235.734L178.13 235.026C177.212 235.34 176.287 235.64 175.356 235.926L175.575 236.642C171.862 237.783 168.051 238.699 164.158 239.374L164.03 238.636C161.182 239.13 158.29 239.494 155.36 239.721L155.417 240.468C153.477 240.619 151.52 240.709 149.548 240.74L149.538 239.992C149.051 239.999 148.563 240.003 148.075 240.003C147.586 240.003 147.099 239.999 146.612 239.992L146.6 240.74C142.633 240.678 138.726 240.371 134.894 239.831L134.999 239.089C132.091 238.679 129.227 238.134 126.413 237.46L126.238 238.188C124.326 237.731 122.438 237.215 120.574 236.642L120.794 235.926C119.863 235.64 118.938 235.34 118.02 235.026L117.778 235.734C114.051 234.458 110.43 232.953 106.931 231.236L107.262 230.565C104.639 229.277 102.085 227.869 99.608 226.348L99.2164 226.986C97.5449 225.959 95.9081 224.882 94.3082 223.755L94.7399 223.144C93.9454 222.585 93.1603 222.013 92.3844 221.429L91.9332 222.027C88.7992 219.67 85.818 217.121 83.0074 214.397L83.5289 213.86C81.4366 211.832 79.44 209.706 77.5455 207.49L76.9752 207.976C75.7035 206.488 74.4782 204.96 73.3004 203.394L73.8981 202.944C73.3147 202.168 72.7435 201.383 72.1842 200.588L71.5719 201.019C69.3228 197.825 67.2682 194.484 65.4264 191.012L66.0885 190.662C64.7272 188.096 63.4833 185.458 62.3629 182.756L61.6705 183.043C60.9226 181.24 60.2296 179.408 59.5934 177.549L60.3024 177.308C59.9881 176.39 59.688 175.465 59.402 174.535L58.6852 174.753C57.5444 171.041 56.6288 167.23 55.9537 163.336L56.692 163.208C56.1984 160.361 55.8347 157.469 55.6071 154.539L54.859 154.595C54.7083 152.655 54.618 150.699 54.5875 148.727L55.3365 148.716C55.329 148.23 55.3248 147.742 55.3248 147.253C55.3248 146.765 55.329 146.277 55.3365 145.791L54.5875 145.779C54.6489 141.812 54.956 137.905 55.4967 134.073L56.2389 134.177C56.6491 131.27 57.1945 128.406 57.8678 125.591L57.1393 125.417C57.5966 123.505 58.1124 121.616 58.6852 119.752L59.402 119.972C59.688 119.041 59.9881 118.117 60.3024 117.199L59.5934 116.957C60.8694 113.229 62.3744 109.608 64.0914 106.11L64.7633 106.441C66.0509 103.817 67.4591 101.264 68.9801 98.7866L68.3414 98.395C69.3679 96.7235 70.4454 95.0867 71.5719 93.4868L72.1842 93.9185C72.7436 93.124 73.3156 92.3389 73.899 91.563L73.3004 91.1118C75.6572 87.9778 78.2062 84.9966 80.9303 82.186L81.4684 82.7075C83.4964 80.6152 85.6225 78.6185 87.8385 76.7241L87.3512 76.1538C88.8388 74.8821 90.3671 73.6568 91.9332 72.479L92.3844 73.0767C93.1601 72.4933 93.9455 71.9221 94.7399 71.3628L94.3082 70.7505C97.5025 68.5014 100.844 66.4468 104.315 64.605L104.667 65.2671C107.232 63.9058 109.87 62.6619 112.572 61.5415L112.284 60.8491C114.087 60.1012 115.919 59.4082 117.778 58.772L118.02 59.481C118.938 59.1667 119.863 58.8666 120.794 58.5806L120.574 57.8638C124.286 56.723 128.097 55.8074 131.991 55.1323L132.12 55.8706C134.967 55.377 137.859 55.0133 140.79 54.7856L140.732 54.0376C142.672 53.8869 144.629 53.7966 146.6 53.7661L146.612 54.5151C147.099 54.5076 147.586 54.5034 148.075 54.5034C148.563 54.5034 149.051 54.5076 149.538 54.5151L149.548 53.7661Z" stroke="#E3CCCD" stroke-width="1.5" stroke-dasharray="3 6 9 12"/>
<circle cx="148.575" cy="147.753" r="116.5" stroke="#E3CCCD" stroke-dasharray="4 4"/>
<circle cx="148.075" cy="147.253" r="123.5" stroke="#E3CCCD" stroke-width="2"/>
<path d="M147.075 63.7534C193.196 63.7534 230.575 100.919 230.575 146.753C230.575 192.587 193.196 229.753 147.075 229.753C100.953 229.753 63.5748 192.587 63.5748 146.753C63.5748 100.919 100.953 63.7534 147.075 63.7534Z" stroke="#E3CCCD" stroke-width="2"/>
<path d="M191.382 182.503H104.767L148.075 105.263L191.382 182.503Z" stroke="#E3CCCD" stroke-width="0.5"/>
<path d="M105.644 115.007L192.259 114.814L149.124 192.151L105.644 115.007Z" stroke="#E3CCCD" stroke-width="0.5"/>
<path d="M173.883 190.828L98.2848 148.553L173.783 102.275L173.883 190.828Z" stroke="#E3CCCD" stroke-width="0.5"/>
<path d="M123.676 102.971L197.996 147.454L121.168 191.488L123.676 102.971Z" stroke="#E3CCCD" stroke-width="0.5"/>
<g clip-path="url(#clip0_130_4)">
<path fill-rule="evenodd" clip-rule="evenodd" d="M149.51 77.4084C149.192 76.5354 147.958 76.5354 147.64 77.4084L146.197 81.3754L142.23 82.8184C141.357 83.1364 141.357 84.3704 142.23 84.6884L146.197 86.1314L147.64 90.0984C147.958 90.9714 149.192 90.9714 149.51 90.0984L150.953 86.1314L154.92 84.6884C155.793 84.3704 155.793 83.1364 154.92 82.8184L150.953 81.3754L149.51 77.4084Z" fill="#E3CCCD"/>
</g>
<path fill-rule="evenodd" clip-rule="evenodd" d="M83.5096 140.408C83.1916 139.535 81.9576 139.535 81.6396 140.408L80.1966 144.375L76.2296 145.818C75.3566 146.136 75.3566 147.37 76.2296 147.688L80.1966 149.131L81.6396 153.098C81.9576 153.971 83.1916 153.971 83.5096 153.098L84.9526 149.131L88.9196 147.688C89.7926 147.37 89.7926 146.136 88.9196 145.818L84.9526 144.375L83.5096 140.408Z" fill="#E3CCCD"/>
<path fill-rule="evenodd" clip-rule="evenodd" d="M215.51 141.408C215.192 140.535 213.958 140.535 213.64 141.408L212.197 145.375L208.23 146.818C207.357 147.136 207.357 148.37 208.23 148.688L212.197 150.131L213.64 154.098C213.958 154.971 215.192 154.971 215.51 154.098L216.953 150.131L220.92 148.688C221.793 148.37 221.793 147.136 220.92 146.818L216.953 145.375L215.51 141.408Z" fill="#E3CCCD"/>
<path fill-rule="evenodd" clip-rule="evenodd" d="M148.51 202.408C148.192 201.535 146.958 201.535 146.64 202.408L145.197 206.375L141.23 207.818C140.357 208.136 140.357 209.37 141.23 209.688L145.197 211.131L146.64 215.098C146.958 215.971 148.192 215.971 148.51 215.098L149.953 211.131L153.92 209.688C154.793 209.37 154.793 208.136 153.92 207.818L149.953 206.375L148.51 202.408Z" fill="#E3CCCD"/>
<path d="M137.075 32.2534L149.075 2.75342L160.075 32.2534L149.075 61.2534L137.075 32.2534Z" stroke="#E3CCCD" stroke-width="2"/>
<path d="M46.0005 76.4425L41.3226 54.794L62.2639 60.179L67.4259 80.8973L46.0005 76.4425Z" stroke="#E3CCCD" stroke-width="2"/>
<path d="M31.8623 135.119L61.2088 147.49L31.5725 158.117L2.71342 146.752L31.8623 135.119Z" stroke="#E3CCCD" stroke-width="2"/>
<path d="M159.818 261.753L148.067 291.353L136.819 261.946L147.574 232.855L159.818 261.753Z" stroke="#E3CCCD" stroke-width="2"/>
<path d="M262.739 158.597L232.899 147.471L262.062 135.607L291.373 145.749L262.739 158.597Z" stroke="#E3CCCD" stroke-width="2"/>
<rect x="68.0748" y="73.2534" width="54" height="54" rx="27" stroke="#E3CCCD"/>
<rect x="73.0748" y="78.2534" width="44" height="44" rx="22" stroke="#E3CCCD" stroke-dasharray="2 2"/>
<g clip-path="url(#clip1_130_4)">
<path d="M90.5828 108.236C92.0361 109.088 93.6992 109.514 95.3831 109.468C93.8635 108.353 92.849 106.68 92.5628 104.817C92.2766 102.954 92.7422 101.054 93.857 99.5345C94.9719 98.0149 96.6448 97.0004 98.5076 96.7142C100.37 96.428 102.271 96.8936 103.79 98.0084C103.329 96.3882 102.423 94.9299 101.174 93.7993C99.9254 92.6688 98.3844 91.9114 96.7264 91.6133C95.0685 91.3152 93.3602 91.4884 91.7958 92.1132C90.2314 92.738 88.8738 93.7893 87.8774 95.1475C86.8809 96.5057 86.2856 98.1163 86.1593 99.7961C86.0329 101.476 86.3805 103.157 87.1625 104.649C87.9445 106.141 89.1295 107.384 90.5828 108.236Z" stroke="#E3CCCD" stroke-width="1.5" stroke-linecap="round" stroke-linejoin="round"/>
</g>
<rect x="234.236" y="83.1946" width="54" height="54" rx="27" transform="rotate(108.464 234.236 83.1946)" stroke="#E3CCCD"/>
<rect x="227.91" y="86.3535" width="44" height="44" rx="22" transform="rotate(108.464 227.91 86.3535)" stroke="#E3CCCD" stroke-dasharray="2 2"/>
<path d="M193.926 93.4643C192.658 94.573 191.726 96.0154 191.237 97.6273C192.776 96.539 194.684 96.1066 196.542 96.4251C198.399 96.7437 200.054 97.7871 201.142 99.3258C202.231 100.865 202.663 102.773 202.345 104.63C202.026 106.488 200.983 108.143 199.444 109.231C201.127 109.307 202.797 108.909 204.265 108.083C205.733 107.256 206.939 106.034 207.747 104.556C208.555 103.078 208.932 101.403 208.835 99.7211C208.737 98.0394 208.17 96.4187 207.197 95.0434C206.225 93.6681 204.886 92.5934 203.332 91.9415C201.779 91.2896 200.074 91.0868 198.411 91.356C196.748 91.6252 195.194 92.3557 193.926 93.4643Z" stroke="#E3CCCD" stroke-width="1.5" stroke-linecap="round" stroke-linejoin="round"/>
<rect x="219.556" y="227.885" width="54" height="54" rx="27" transform="rotate(-172.39 219.556 227.885)" stroke="#E3CCCD"/>
<rect x="215.262" y="222.267" width="44" height="44" rx="22" transform="rotate(-172.39 215.262 222.267)" stroke="#E3CCCD" stroke-dasharray="2 2"/>
<path d="M201.878 190.23C200.551 189.193 198.959 188.55 197.283 188.373C198.642 189.679 199.426 191.472 199.463 193.356C199.5 195.241 198.787 197.063 197.481 198.421C196.174 199.78 194.382 200.564 192.498 200.601C190.613 200.638 188.791 199.925 187.433 198.618C187.675 200.285 188.38 201.851 189.468 203.137C190.557 204.423 191.984 205.378 193.588 205.893C195.191 206.408 196.908 206.462 198.541 206.05C200.174 205.638 201.659 204.776 202.827 203.561C203.994 202.347 204.798 200.829 205.145 199.181C205.493 197.533 205.371 195.82 204.794 194.238C204.216 192.655 203.206 191.267 201.878 190.23Z" stroke="#E3CCCD" stroke-width="1.5" stroke-linecap="round" stroke-linejoin="round"/>
<rect x="65.179" y="215.823" width="54" height="54" rx="27" transform="rotate(-76.3105 65.179 215.823)" stroke="#E3CCCD"/>
<rect x="71.2202" y="212.149" width="44" height="44" rx="22" transform="rotate(-76.3105 71.2202 212.149)" stroke="#E3CCCD" stroke-dasharray="2 2"/>
<path d="M104.494 202.234C105.666 201.024 106.474 199.509 106.827 197.862C105.385 199.074 103.519 199.664 101.641 199.501C99.7637 199.338 98.0276 198.436 96.815 196.994C95.6024 195.551 95.0126 193.685 95.1754 191.808C95.3382 189.93 96.2403 188.194 97.6831 186.981C95.9998 187.046 94.3684 187.581 92.9744 188.527C91.5805 189.473 90.4799 190.791 89.7979 192.331C89.1159 193.871 88.8799 195.572 89.1168 197.24C89.3536 198.908 90.0537 200.476 91.1375 201.765C92.2213 203.055 93.6453 204.014 95.2474 204.535C96.8495 205.055 98.5656 205.115 100.2 204.708C101.835 204.302 103.323 203.444 104.494 202.234Z" stroke="#E3CCCD" stroke-width="1.5" stroke-linecap="round" stroke-linejoin="round"/>
<path d="M234.237 56.5575L256.147 53.0288L249.593 73.6811L228.586 77.7432L234.237 56.5575Z" stroke="#E3CCCD" stroke-width="2"/>
<path d="M243.641 226.144L249.308 247.6L228.111 243.11L222.002 222.605L243.641 226.144Z" stroke="#E3CCCD" stroke-width="2"/>
<path d="M63.6166 237.173L41.5827 239.816L48.9637 219.445L70.1167 216.232L63.6166 237.173Z" stroke="#E3CCCD" stroke-width="2"/>
<path d="M168.047 120.295C175.685 120.682 179.092 123.776 179.092 129.268C179.092 134.76 175.324 138.087 171.247 142.109V142.264C179.35 138.396 186.575 146.209 186.575 156.73C186.575 172.587 177.285 174.444 165.312 174.444H148.797V172.897C152.874 172.897 153.855 172.587 153.855 162.531V158.973C150.862 171.272 141.985 174.753 134.141 174.753C119.432 174.753 112.878 164.465 110.452 170.112L109.575 168.952L116.852 150.773H117.523C116.594 158.818 120.051 172.046 134.141 172.046C144.411 172.046 153.855 168.101 153.855 149.381V132.208C153.855 122.151 152.874 121.842 148.797 121.842V120.295H168.047ZM129.909 119.753C136.773 119.753 142.398 124.085 144.256 125.4C146.32 126.87 147.352 125.787 147.92 124.472L148.797 125.632L141.004 143.038H140.334C142.191 131.744 136.721 123.389 129.909 122.77C124.077 122.77 120.516 126.793 120.516 131.744C120.567 143.115 148.643 141.722 148.643 158.122C148.643 161.294 148.023 162.299 146.991 164.388C144.823 166.322 142.604 166.786 140.437 166.786V166.012C140.798 164.62 141.056 163.227 141.056 162.067C141.056 149.535 114.632 155.028 114.632 134.915C114.632 124.472 121.445 119.753 129.909 119.753ZM165.157 172.897C176.356 172.897 178.575 166.554 178.575 156.962C178.575 148.452 171.66 140.562 165.57 148.53C162.99 152.32 161.08 157.039 161.08 163.769V172.897H165.157ZM161.08 154.95C163.919 142.573 172.382 139.17 172.382 129.113C172.382 123.776 170.215 121.842 166.706 121.842H161.08V154.95Z" fill="#E3CCCD"/>
<path d="M133.889 130.361C133.961 130.404 134.046 130.427 134.133 130.427C134.22 130.426 134.305 130.403 134.379 130.359C134.452 130.316 134.51 130.254 134.546 130.181C134.582 130.108 134.594 130.027 134.581 129.949C134.091 127.008 131.434 125.523 128.817 125.514C126.195 125.506 123.518 126.981 122.999 129.988C122.455 133.146 125.109 136.149 128.605 136.218C128.692 136.22 128.778 136.199 128.852 136.157C128.926 136.116 128.986 136.056 129.024 135.984C129.063 135.913 129.077 135.833 129.067 135.755C129.057 135.676 129.023 135.602 128.967 135.542C127.627 134.072 127.428 131.458 128.575 130.253C129.722 129.05 132.144 129.328 133.889 130.361Z" fill="#E3CCCD"/>
<path fill-rule="evenodd" clip-rule="evenodd" d="M171.061 160.276L170.075 158.041L169.089 160.276L166.853 161.262L169.089 162.248L170.075 164.485L171.061 162.248L173.297 161.262L171.061 160.276Z" fill="#E3CCCD"/>
<defs>
<clipPath id="clip0_130_4">
<rect width="14" height="14" fill="white" transform="translate(140.575 76.7534)"/>
</clipPath>
<clipPath id="clip1_130_4">
<rect width="24" height="24" fill="white" transform="translate(103.702 85.6394) rotate(75.5552)"/>
</clipPath>
</defs>
</svg>
