<svg width="1694" height="1693" viewBox="0 0 1694 1693" fill="none" xmlns="http://www.w3.org/2000/svg">
<g opacity="0.7">
<circle cx="1022.5" cy="999.5" r="359" stroke="#E3CCCD" stroke-dasharray="11 11"/>
<circle cx="1025" cy="1000" r="249.75" stroke="#E3CCCD" stroke-width="0.5"/>
<circle cx="1019" cy="997" r="374.75" stroke="#E3CCCD" stroke-width="0.5"/>
<circle cx="948" cy="899" r="589.75" stroke="#E3CCCD" stroke-width="0.5"/>
<path d="M1693.3 811.725C1693.43 815.02 1693.55 818.32 1693.64 821.625H1693.64L1693.14 821.64C1693.24 824.943 1693.31 828.25 1693.37 831.562L1693.87 831.555C1693.93 834.869 1693.97 838.188 1693.98 841.512L1693.49 841.514C1693.49 843.174 1693.5 844.837 1693.5 846.5C1693.5 848.163 1693.49 849.825 1693.49 851.485L1693.98 851.487C1693.97 854.811 1693.93 858.13 1693.87 861.444L1693.37 861.437C1693.31 864.749 1693.24 868.057 1693.14 871.36L1693.64 871.374C1693.55 874.679 1693.43 877.979 1693.3 881.274L1692.8 881.255C1692.67 884.552 1692.51 887.844 1692.34 891.132L1692.84 891.157C1692.67 894.478 1692.48 897.794 1692.26 901.104L1691.77 901.073C1691.56 904.382 1691.33 907.685 1691.08 910.983L1691.58 911.021C1691.33 914.32 1691.06 917.615 1690.77 920.904L1690.28 920.862C1689.99 924.15 1689.68 927.432 1689.36 930.708L1689.86 930.756C1689.53 934.058 1689.18 937.355 1688.82 940.646L1688.32 940.593C1687.96 943.889 1687.57 947.18 1687.17 950.465L1687.67 950.525C1687.26 953.812 1686.84 957.093 1686.4 960.368L1685.91 960.303C1685.47 963.576 1685.01 966.843 1684.53 970.104L1685.02 970.177C1684.54 973.453 1684.04 976.723 1683.53 979.986L1683.04 979.909C1682.52 983.186 1681.98 986.456 1681.42 989.72L1681.91 989.803C1681.35 993.069 1680.78 996.328 1680.18 999.581L1679.69 999.492C1679.1 1002.74 1678.49 1005.99 1677.86 1009.23L1678.34 1009.32C1677.71 1012.57 1677.06 1015.8 1676.39 1019.04L1675.9 1018.93C1675.23 1022.18 1674.54 1025.43 1673.83 1028.66L1674.32 1028.77C1673.6 1032 1672.87 1035.23 1672.13 1038.46L1671.64 1038.34C1670.89 1041.57 1670.13 1044.78 1669.34 1047.99L1669.83 1048.1C1669.04 1051.31 1668.24 1054.51 1667.42 1057.71L1666.94 1057.58C1666.11 1060.8 1665.27 1064 1664.41 1067.2L1664.89 1067.33C1664.03 1070.53 1663.14 1073.72 1662.24 1076.91L1661.76 1076.77C1660.87 1079.96 1659.95 1083.13 1659.01 1086.3L1659.49 1086.44C1658.56 1089.61 1657.6 1092.77 1656.63 1095.93L1656.15 1095.78C1655.18 1098.95 1654.19 1102.1 1653.17 1105.25L1653.65 1105.4C1652.64 1108.56 1651.6 1111.71 1650.55 1114.85L1650.08 1114.69C1649.03 1117.83 1647.97 1120.96 1646.88 1124.08L1647.35 1124.24C1646.27 1127.37 1645.17 1130.48 1644.04 1133.59L1643.58 1133.42C1642.45 1136.53 1641.31 1139.64 1640.15 1142.73L1640.62 1142.91C1639.46 1146.01 1638.28 1149.11 1637.08 1152.19L1636.62 1152.01C1635.42 1155.1 1634.21 1158.18 1632.98 1161.24L1633.44 1161.43C1632.21 1164.5 1630.96 1167.56 1629.69 1170.61L1629.23 1170.42C1627.97 1173.47 1626.68 1176.52 1625.38 1179.56L1625.84 1179.75C1624.53 1182.8 1623.21 1185.83 1621.86 1188.86L1621.41 1188.66C1620.07 1191.69 1618.71 1194.7 1617.34 1197.71L1617.79 1197.92C1616.41 1200.92 1615.02 1203.92 1613.61 1206.91L1613.16 1206.7C1611.75 1209.69 1610.32 1212.67 1608.88 1215.64L1609.33 1215.86C1607.88 1218.84 1606.42 1221.81 1604.93 1224.77L1604.49 1224.55C1603.01 1227.51 1601.51 1230.46 1599.99 1233.4L1600.44 1233.62C1598.92 1236.57 1597.39 1239.5 1595.84 1242.42L1595.4 1242.18C1593.85 1245.1 1592.28 1248.01 1590.7 1250.91L1591.14 1251.15C1589.55 1254.06 1587.95 1256.96 1586.33 1259.85L1585.89 1259.6C1584.27 1262.49 1582.64 1265.36 1580.99 1268.23L1581.42 1268.48C1579.77 1271.34 1578.1 1274.2 1576.41 1277.04L1575.98 1276.79C1574.3 1279.63 1572.6 1282.47 1570.88 1285.29L1571.31 1285.55C1569.59 1288.38 1567.85 1291.2 1566.1 1294.01L1565.67 1293.74C1563.92 1296.55 1562.15 1299.35 1560.37 1302.13L1560.79 1302.4C1559 1305.18 1557.2 1307.96 1555.39 1310.72L1554.97 1310.45C1553.15 1313.21 1551.32 1315.96 1549.47 1318.7L1549.89 1318.98C1548.04 1321.73 1546.17 1324.46 1544.29 1327.18L1543.88 1326.9C1542 1329.62 1540.1 1332.33 1538.18 1335.03L1538.59 1335.32C1536.68 1338.02 1534.75 1340.7 1532.8 1343.38L1532.4 1343.09C1530.46 1345.76 1528.5 1348.42 1526.52 1351.08L1526.92 1351.37C1524.95 1354.03 1522.96 1356.67 1520.95 1359.3L1520.55 1359C1518.55 1361.63 1516.52 1364.25 1514.49 1366.85L1514.88 1367.16C1512.84 1369.77 1510.79 1372.36 1508.72 1374.95L1508.33 1374.63C1506.26 1377.22 1504.18 1379.78 1502.09 1382.34L1502.47 1382.66C1500.38 1385.22 1498.26 1387.76 1496.13 1390.3L1495.75 1389.98C1493.63 1392.51 1491.48 1395.03 1489.33 1397.54L1489.71 1397.86C1487.55 1400.37 1485.38 1402.87 1483.19 1405.35L1482.82 1405.02C1480.63 1407.51 1478.43 1409.98 1476.22 1412.43L1476.59 1412.77C1474.37 1415.22 1472.15 1417.67 1469.9 1420.1L1469.54 1419.76C1467.29 1422.19 1465.04 1424.61 1462.77 1427.02L1463.13 1427.36C1460.86 1429.76 1458.57 1432.16 1456.27 1434.54L1455.91 1434.19C1453.61 1436.57 1451.3 1438.93 1448.98 1441.28L1449.33 1441.63C1447 1443.99 1444.66 1446.33 1442.31 1448.65L1441.96 1448.3C1439.61 1450.62 1437.24 1452.93 1434.86 1455.23L1435.21 1455.58C1432.82 1457.88 1430.43 1460.17 1428.02 1462.44L1427.68 1462.07C1425.27 1464.34 1422.85 1466.6 1420.42 1468.84L1420.76 1469.2C1418.32 1471.44 1415.88 1473.67 1413.42 1475.88L1413.08 1475.51C1410.62 1477.72 1408.15 1479.92 1405.67 1482.1L1406 1482.48C1403.51 1484.66 1401.01 1486.83 1398.5 1488.99L1398.18 1488.61C1395.67 1490.76 1393.15 1492.9 1390.61 1495.03L1390.93 1495.41C1388.39 1497.53 1385.85 1499.65 1383.29 1501.74L1382.97 1501.36C1380.41 1503.45 1377.84 1505.53 1375.26 1507.59L1375.57 1507.98C1372.98 1510.05 1370.39 1512.1 1367.78 1514.13L1367.47 1513.74C1364.86 1515.77 1362.24 1517.79 1359.61 1519.8L1359.91 1520.2C1357.28 1522.2 1354.64 1524.19 1351.98 1526.17L1351.68 1525.77C1349.03 1527.74 1346.37 1529.69 1343.69 1531.63L1343.98 1532.04C1341.3 1533.98 1338.62 1535.91 1335.91 1537.82L1335.63 1537.41C1332.93 1539.32 1330.22 1541.22 1327.49 1543.1L1327.77 1543.51C1325.05 1545.39 1322.32 1547.25 1319.57 1549.1L1319.29 1548.69C1316.55 1550.53 1313.8 1552.36 1311.03 1554.18L1311.31 1554.59C1308.54 1556.41 1305.77 1558.21 1302.98 1559.99L1302.71 1559.57C1299.92 1561.35 1297.13 1563.12 1294.32 1564.87L1294.58 1565.29C1291.77 1567.04 1288.95 1568.78 1286.12 1570.5L1285.86 1570.07C1283.04 1571.78 1280.2 1573.48 1277.36 1575.17L1277.61 1575.59C1274.77 1577.28 1271.91 1578.94 1269.04 1580.59L1268.79 1580.16C1265.93 1581.81 1263.05 1583.44 1260.16 1585.06L1260.4 1585.5C1257.52 1587.11 1254.62 1588.72 1251.71 1590.3L1251.47 1589.86C1248.57 1591.44 1245.66 1593.01 1242.74 1594.55L1242.97 1594.99C1240.05 1596.54 1237.12 1598.07 1234.17 1599.58L1233.95 1599.14C1231.01 1600.65 1228.05 1602.15 1225.09 1603.63L1225.32 1604.08C1222.36 1605.56 1219.38 1607.02 1216.4 1608.46L1216.18 1608.02C1213.21 1609.46 1210.23 1610.88 1207.24 1612.29L1207.45 1612.74C1204.46 1614.15 1201.46 1615.54 1198.45 1616.91L1198.25 1616.46C1195.24 1617.83 1192.22 1619.19 1189.19 1620.53L1189.4 1620.98C1186.37 1622.32 1183.33 1623.64 1180.28 1624.95L1180.09 1624.49C1177.05 1625.79 1174 1627.07 1170.95 1628.34L1171.14 1628.8C1168.09 1630.06 1165.03 1631.31 1161.96 1632.54L1161.77 1632.08C1158.7 1633.31 1155.62 1634.52 1152.54 1635.71L1152.72 1636.18C1149.63 1637.37 1146.53 1638.55 1143.43 1639.71L1143.25 1639.24C1140.16 1640.4 1137.05 1641.54 1133.94 1642.66L1134.11 1643.13C1131 1644.25 1127.88 1645.35 1124.76 1646.43L1124.6 1645.96C1121.48 1647.04 1118.35 1648.11 1115.21 1649.15L1115.36 1649.63C1112.22 1650.68 1109.08 1651.71 1105.92 1652.72L1105.77 1652.24C1102.62 1653.25 1099.46 1654.24 1096.29 1655.22L1096.44 1655.69C1093.28 1656.66 1090.12 1657.62 1086.95 1658.55L1086.81 1658.07C1083.64 1659.01 1080.47 1659.92 1077.28 1660.82L1077.42 1661.3C1074.23 1662.2 1071.04 1663.08 1067.84 1663.94L1067.71 1663.46C1064.51 1664.32 1061.31 1665.16 1058.09 1665.98L1058.22 1666.47C1055.02 1667.29 1051.82 1668.09 1048.61 1668.87L1048.49 1668.39C1045.29 1669.17 1042.07 1669.93 1038.85 1670.68L1038.96 1671.17C1035.74 1671.91 1032.51 1672.64 1029.27 1673.35L1029.17 1672.86C1025.93 1673.57 1022.69 1674.26 1019.44 1674.93L1019.54 1675.42C1016.31 1676.09 1013.07 1676.74 1009.83 1677.37L1009.73 1676.88C1006.49 1677.51 1003.25 1678.12 999.996 1678.72L1000.08 1679.21C996.832 1679.8 993.572 1680.38 990.306 1680.93L990.223 1680.44C986.959 1681 983.688 1681.53 980.411 1682.05L980.488 1682.55C977.225 1683.06 973.956 1683.56 970.68 1684.04L970.607 1683.54C967.346 1684.02 964.078 1684.48 960.805 1684.92L960.87 1685.42C957.595 1685.85 954.313 1686.28 951.026 1686.68L950.967 1686.18C947.682 1686.58 944.39 1686.97 941.094 1687.33L941.147 1687.83C937.856 1688.19 934.559 1688.54 931.257 1688.86L931.209 1688.37C927.932 1688.69 924.65 1688.99 921.362 1689.28L921.405 1689.78C918.116 1690.06 914.821 1690.33 911.521 1690.58L911.484 1690.08C908.186 1690.33 904.883 1690.56 901.574 1690.77L901.604 1691.27C898.294 1691.48 894.978 1691.67 891.657 1691.84L891.633 1691.34C888.346 1691.51 885.053 1691.67 881.756 1691.8L881.774 1692.3C878.479 1692.43 875.18 1692.55 871.875 1692.64L871.86 1692.14C868.557 1692.24 865.25 1692.31 861.938 1692.37L861.944 1692.87C858.63 1692.93 855.311 1692.97 851.987 1692.98L851.986 1692.49C850.326 1692.49 848.663 1692.5 847 1692.5C845.337 1692.5 843.675 1692.49 842.015 1692.49L842.012 1692.98C838.688 1692.97 835.369 1692.93 832.055 1692.87L832.063 1692.37C828.751 1692.31 825.443 1692.24 822.14 1692.14L822.125 1692.64H822.124C818.819 1692.55 815.52 1692.43 812.225 1692.3L812.245 1691.8C808.948 1691.67 805.655 1691.52 802.368 1691.34L802.342 1691.84C799.021 1691.67 795.705 1691.48 792.395 1691.27L792.427 1690.77C789.118 1690.56 785.815 1690.33 782.517 1690.08L782.479 1690.58C779.179 1690.33 775.884 1690.06 772.595 1689.78L772.638 1689.28C769.35 1688.99 766.068 1688.69 762.791 1688.37L762.742 1688.86C759.44 1688.54 756.143 1688.19 752.852 1687.83L752.906 1687.33C749.61 1686.97 746.319 1686.58 743.034 1686.18L742.973 1686.68C739.686 1686.28 736.404 1685.85 733.129 1685.42L733.195 1684.92C729.922 1684.48 726.655 1684.02 723.394 1683.55L723.321 1684.04H723.32C720.044 1683.56 716.775 1683.06 713.511 1682.55L713.589 1682.05C710.312 1681.53 707.041 1681 703.777 1680.44L703.693 1680.93C700.427 1680.38 697.167 1679.8 693.914 1679.21L694.004 1678.72C690.753 1678.12 687.508 1677.51 684.27 1676.88L684.174 1677.37H684.173C680.928 1676.74 677.691 1676.09 674.46 1675.42L674.562 1674.93C671.312 1674.26 668.069 1673.57 664.834 1672.86L664.728 1673.35C661.49 1672.64 658.26 1671.91 655.036 1671.17L655.149 1670.68C651.928 1669.93 648.714 1669.17 645.507 1668.39L645.388 1668.87H645.387C642.178 1668.09 638.977 1667.29 635.782 1666.47L635.906 1665.98C632.694 1665.16 629.489 1664.32 626.291 1663.46L626.161 1663.94C622.96 1663.08 619.767 1662.2 616.581 1661.3L616.717 1660.82C613.533 1659.92 610.358 1659.01 607.189 1658.07L607.048 1658.55C603.878 1657.62 600.715 1656.66 597.561 1655.69L597.707 1655.22C594.541 1654.24 591.383 1653.25 588.233 1652.24L588.08 1652.72C584.924 1651.71 581.775 1650.68 578.635 1649.63L578.793 1649.16C575.655 1648.11 572.524 1647.04 569.402 1645.96L569.239 1646.43C566.115 1645.35 563 1644.25 559.893 1643.13L560.062 1642.66C556.948 1641.54 553.843 1640.4 550.746 1639.24L550.571 1639.71C547.466 1638.55 544.369 1637.37 541.281 1636.18H541.282L541.462 1635.71C538.376 1634.52 535.299 1633.31 532.23 1632.08L532.045 1632.54C528.975 1631.31 525.914 1630.06 522.861 1628.8L523.053 1628.34C519.997 1627.07 516.95 1625.79 513.913 1624.49L513.717 1624.95C510.67 1623.64 507.633 1622.32 504.604 1620.98L504.807 1620.53C501.78 1619.19 498.763 1617.83 495.755 1616.46L495.548 1616.91C492.538 1615.54 489.538 1614.15 486.548 1612.74L486.761 1612.29C483.77 1610.88 480.787 1609.46 477.815 1608.02L477.597 1608.47C474.615 1607.02 471.644 1605.56 468.683 1604.08L468.906 1603.63C465.946 1602.15 462.996 1600.65 460.056 1599.14L459.826 1599.58C456.884 1598.07 453.953 1596.54 451.031 1594.99L451.265 1594.55C448.344 1593.01 445.433 1591.44 442.532 1589.86L442.293 1590.3C439.383 1588.72 436.484 1587.11 433.595 1585.5L433.84 1585.06C430.953 1583.44 428.075 1581.81 425.209 1580.16L424.96 1580.59C422.092 1578.94 419.234 1577.28 416.388 1575.59L416.643 1575.17C413.798 1573.48 410.963 1571.79 408.14 1570.07L407.88 1570.5C405.048 1568.78 402.228 1567.04 399.418 1565.29L399.683 1564.87C396.875 1563.12 394.077 1561.35 391.291 1559.57L391.021 1559.99C388.234 1558.21 385.458 1556.41 382.692 1554.59L382.967 1554.18C380.203 1552.36 377.451 1550.53 374.71 1548.69L374.431 1549.1C371.684 1547.25 368.948 1545.39 366.225 1543.51L366.509 1543.1C363.786 1541.22 361.075 1539.32 358.375 1537.41L358.086 1537.82C355.385 1535.91 352.695 1533.98 350.018 1532.04L350.311 1531.63C347.634 1529.69 344.97 1527.74 342.317 1525.77L342.02 1526.17C339.363 1524.19 336.718 1522.2 334.085 1520.2L334.389 1519.8C331.757 1517.79 329.137 1515.78 326.529 1513.74L326.222 1514.13H326.221C323.612 1512.1 321.015 1510.05 318.431 1507.98L318.743 1507.59C316.16 1505.53 313.589 1503.45 311.031 1501.36L310.714 1501.74C308.153 1499.65 305.605 1497.53 303.069 1495.41L303.391 1495.03C300.855 1492.9 298.332 1490.76 295.822 1488.61L295.497 1488.99C292.986 1486.83 290.488 1484.66 288.002 1482.48L288.332 1482.1C285.848 1479.92 283.376 1477.72 280.918 1475.51L280.584 1475.88C278.124 1473.67 275.676 1471.44 273.242 1469.2L273.581 1468.84C271.148 1466.6 268.728 1464.34 266.321 1462.07L265.979 1462.44C263.57 1460.17 261.175 1457.88 258.794 1455.58L259.141 1455.23C256.761 1452.93 254.395 1450.62 252.042 1448.3L251.69 1448.65C249.336 1446.33 246.995 1443.99 244.668 1441.63L245.023 1441.28C242.698 1438.93 240.386 1436.57 238.088 1434.19L237.729 1434.54C235.429 1432.16 233.143 1429.77 230.871 1427.36L231.234 1427.02C228.964 1424.61 226.707 1422.19 224.465 1419.76L224.098 1420.1C221.854 1417.67 219.624 1415.22 217.409 1412.77L217.781 1412.43C215.568 1409.98 213.368 1407.51 211.184 1405.02L210.809 1405.35C208.623 1402.87 206.451 1400.37 204.294 1397.86L204.673 1397.54C202.517 1395.03 200.375 1392.51 198.248 1389.98L197.865 1390.3C195.737 1387.76 193.624 1385.22 191.525 1382.66L191.912 1382.34C189.816 1379.78 187.735 1377.22 185.669 1374.63L185.278 1374.95C183.211 1372.36 181.158 1369.77 179.12 1367.16L179.514 1366.85C177.477 1364.25 175.456 1361.63 173.449 1359L173.052 1359.3H173.051C171.043 1356.67 169.052 1354.03 167.075 1351.37L167.476 1351.08C165.502 1348.43 163.543 1345.76 161.6 1343.09L161.195 1343.38C159.251 1340.7 157.322 1338.02 155.408 1335.32L155.815 1335.03C153.903 1332.33 152.006 1329.62 150.124 1326.9L149.713 1327.18C147.83 1324.46 145.964 1321.73 144.112 1318.98L144.526 1318.7C142.679 1315.96 140.847 1313.21 139.031 1310.45L138.613 1310.72C136.796 1307.96 134.995 1305.19 133.21 1302.4L133.631 1302.13C131.847 1299.35 130.079 1296.55 128.326 1293.74L127.901 1294.01C126.148 1291.2 124.411 1288.38 122.689 1285.55L123.117 1285.29C121.401 1282.47 119.7 1279.64 118.016 1276.79L117.586 1277.05C115.901 1274.2 114.232 1271.34 112.579 1268.48L113.013 1268.23C111.361 1265.36 109.725 1262.49 108.106 1259.6L107.671 1259.85C106.051 1256.96 104.448 1254.06 102.861 1251.15L103.3 1250.91C101.718 1248.01 100.152 1245.1 98.6035 1242.18L98.1611 1242.42C96.6119 1239.5 95.0794 1236.57 93.5635 1233.62L94.0078 1233.4C92.4929 1230.46 90.995 1227.51 89.5137 1224.55L89.0654 1224.77C87.5831 1221.81 86.1184 1218.84 84.6699 1215.86L85.1201 1215.64C83.6762 1212.67 82.2489 1209.69 80.8389 1206.7L80.3867 1206.91C78.9771 1203.92 77.5845 1200.92 76.209 1197.92L76.6641 1197.71C75.2895 1194.7 73.932 1191.69 72.5918 1188.66L72.1348 1188.86C70.7937 1185.84 69.4696 1182.8 68.1631 1179.75L68.6221 1179.56C67.3196 1176.52 66.0344 1173.47 64.7666 1170.42L64.3047 1170.61C63.0383 1167.56 61.7892 1164.5 60.5576 1161.43L61.0215 1161.24C59.7905 1158.18 58.5768 1155.1 57.3809 1152.01L56.9141 1152.2C55.7174 1149.11 54.5393 1146.01 53.3779 1142.91L53.8457 1142.73C52.6875 1139.64 51.5467 1136.53 50.4238 1133.42L49.9541 1133.59C48.8337 1130.48 47.7315 1127.37 46.6465 1124.24L47.1182 1124.08C46.0339 1120.96 44.9676 1117.83 43.9189 1114.69L43.4443 1114.85C42.3951 1111.71 41.3629 1108.56 40.3496 1105.41L40.8262 1105.25C39.8149 1102.1 38.8219 1098.95 37.8467 1095.78L37.3682 1095.93C36.3964 1092.77 35.4435 1089.61 34.5078 1086.44L34.9873 1086.3C34.0522 1083.13 33.1343 1079.96 32.2354 1076.77L31.7549 1076.91C30.8554 1073.72 29.9743 1070.53 29.1113 1067.33L29.5938 1067.2C28.7315 1064 27.8871 1060.8 27.0615 1057.59L26.5771 1057.71C25.7563 1054.51 24.9543 1051.31 24.1699 1048.1L24.6553 1047.99C23.8714 1044.78 23.1056 1041.57 22.3584 1038.35L21.8721 1038.46C21.1244 1035.23 20.3943 1032 19.6836 1028.77L20.1719 1028.66C19.4616 1025.43 18.7698 1022.18 18.0967 1018.94L17.6074 1019.04C16.9378 1015.8 16.2869 1012.57 15.6543 1009.32L16.1445 1009.23C15.5133 1005.99 14.9008 1002.74 14.3066 999.493L13.8154 999.582C13.2209 996.329 12.6441 993.07 12.0869 989.804L12.5801 989.721C12.0232 986.457 11.4852 983.186 10.9658 979.909L10.4717 979.986C9.95436 976.723 9.45547 973.453 8.97559 970.177L9.4707 970.105C8.993 966.844 8.53313 963.577 8.09277 960.304L7.59863 960.369C7.15799 957.094 6.73606 953.813 6.33301 950.525L6.82812 950.466C6.42533 947.181 6.04176 943.889 5.67676 940.593L5.17969 940.647C4.81528 937.356 4.47009 934.059 4.14355 930.757L4.64062 930.708C4.31666 927.432 4.01106 924.15 3.72461 920.862L3.22754 920.904C2.94093 917.615 2.67268 914.32 2.42383 911.021L2.92188 910.983C2.67317 907.685 2.44416 904.382 2.2334 901.073L1.73438 901.104C1.52348 897.794 1.33189 894.478 1.15918 891.157L1.6582 891.133C1.48723 887.845 1.33449 884.552 1.20117 881.255L0.702148 881.274C0.568917 877.979 0.453825 874.679 0.358398 871.374L0.858398 871.36C0.763028 868.057 0.686288 864.75 0.628906 861.438L0.129883 861.444C0.0724723 858.13 0.0338345 854.811 0.0146484 851.487L0.514648 851.486C0.505058 849.826 0.5 848.163 0.5 846.5C0.5 844.837 0.50506 843.175 0.514648 841.515L0.0146484 841.512C0.0338379 838.188 0.072468 834.869 0.129883 831.555L0.628906 831.563C0.686288 828.251 0.763024 824.943 0.858398 821.64L0.358398 821.625C0.434009 819.006 0.521737 816.391 0.621094 813.778L0.702148 811.725L1.20117 811.745C1.33448 808.448 1.48724 805.156 1.6582 801.868L1.15918 801.842C1.32768 798.602 1.5139 795.367 1.71875 792.137L1.73438 791.895L2.2334 791.927C2.44417 788.618 2.67316 785.315 2.92188 782.017L2.42383 781.979C2.67269 778.679 2.94093 775.384 3.22754 772.095L3.72461 772.138C4.01105 768.85 4.31667 765.568 4.64062 762.292L4.14355 762.243C4.47009 758.941 4.81528 755.644 5.17969 752.353L5.67676 752.407C6.04174 749.111 6.42535 745.82 6.82812 742.535L6.33301 742.474C6.73602 739.187 7.15804 735.906 7.59863 732.631L8.09277 732.697C8.53313 729.424 8.993 726.157 9.4707 722.896L8.97559 722.822C9.45546 719.546 9.95437 716.276 10.4717 713.013L10.9648 713.091C11.4842 709.814 12.0232 706.544 12.5801 703.28L12.0869 703.196C12.6441 699.93 13.2209 696.671 13.8154 693.418L14.3066 693.508C14.9008 690.257 15.5133 687.011 16.1445 683.773L15.6543 683.678C16.2868 680.433 16.9379 677.195 17.6074 673.964L18.0967 674.065C18.7698 670.817 19.4616 667.575 20.1719 664.34L19.6836 664.232C20.3944 660.995 21.1243 657.765 21.8721 654.542L22.3584 654.655C23.1056 651.434 23.8713 648.22 24.6553 645.014L24.1699 644.895C24.9543 641.686 25.7563 638.484 26.5771 635.29L27.0615 635.415C27.8871 632.203 28.7315 628.997 29.5938 625.8L29.1104 625.67C29.9733 622.47 30.8554 619.277 31.7549 616.092L32.2354 616.228C33.1342 613.044 34.0512 609.869 34.9863 606.701L34.5068 606.56C35.4426 603.39 36.3964 600.228 37.3682 597.073L37.8457 597.221C38.821 594.055 39.8148 590.897 40.8262 587.747L40.3496 587.595C41.363 584.439 42.3951 581.291 43.4443 578.151L43.918 578.31C44.9666 575.172 46.0338 572.042 47.1182 568.921L46.6455 568.757C47.7305 565.634 48.8336 562.519 49.9541 559.412L50.4238 559.582C51.5467 556.469 52.6875 553.364 53.8457 550.268L53.377 550.093C54.5237 547.027 55.688 543.97 56.8691 540.922L56.9141 540.806L57.3809 540.986C58.5768 537.901 59.7895 534.824 61.0205 531.757L60.5566 531.571C61.5528 529.089 62.5602 526.612 63.5791 524.142L64.3047 522.39L64.7656 522.581C66.0335 519.526 67.3195 516.481 68.6221 513.444L68.1631 513.247C69.4697 510.201 70.7936 507.164 72.1348 504.137L72.5908 504.34C73.9311 501.314 75.2884 498.298 76.6631 495.291L76.209 495.083C77.5265 492.201 78.8602 489.328 80.209 486.464L80.3867 486.087L80.8389 486.3C82.2489 483.309 83.6753 480.328 85.1191 477.357L84.6699 477.139L84.6689 477.138C86.1173 474.157 87.5832 471.187 89.0654 468.227L89.0664 468.228L89.5127 468.451C90.9941 465.492 92.4928 462.543 94.0078 459.604L93.5635 459.375C95.0794 456.434 96.6118 453.503 98.1611 450.582L98.6025 450.816C100.151 447.896 101.717 444.986 103.299 442.087L102.86 441.848C104.447 438.939 106.051 436.041 107.671 433.153L108.106 433.398C109.725 430.512 111.36 427.636 113.012 424.771L112.579 424.521C114.232 421.655 115.9 418.799 117.585 415.954L118.016 416.209C119.7 413.365 121.4 410.532 123.116 407.71L122.689 407.45L122.688 407.449C123.993 405.304 125.308 403.166 126.631 401.033L127.901 398.992L128.325 399.257C130.078 396.45 131.847 393.655 133.631 390.87L133.21 390.601C134.995 387.814 136.796 385.039 138.613 382.275L139.031 382.55C140.847 379.788 142.678 377.037 144.525 374.298L144.112 374.018C145.963 371.272 147.83 368.539 149.712 365.816L150.123 366.101C152.005 363.379 153.903 360.67 155.815 357.972L155.407 357.683C157.321 354.983 159.251 352.295 161.195 349.618L161.6 349.912C163.543 347.238 165.502 344.575 167.476 341.925L167.074 341.626C169.051 338.971 171.043 336.327 173.051 333.696L173.448 334C175.455 331.37 177.477 328.751 179.514 326.146L179.12 325.838C180.674 323.849 182.237 321.868 183.809 319.894L185.278 318.053L185.669 318.365C187.735 315.784 189.816 313.215 191.912 310.659L191.525 310.342C193.624 307.783 195.737 305.236 197.864 302.702L198.248 303.023C200.375 300.49 202.516 297.969 204.672 295.461L204.293 295.136C206.45 292.626 208.622 290.129 210.809 287.646L211.184 287.977C213.368 285.494 215.567 283.025 217.78 280.568L217.409 280.233C219.624 277.775 221.853 275.33 224.097 272.897L224.465 273.236C226.707 270.805 228.964 268.388 231.234 265.983L230.871 265.641C233.143 263.235 235.428 260.841 237.728 258.462L238.087 258.81C240.385 256.432 242.698 254.067 245.023 251.716L244.668 251.364C246.995 249.012 249.335 246.673 251.689 244.348L251.69 244.349L252.041 244.704C254.394 242.381 256.761 240.071 259.141 237.774L258.794 237.414C261.175 235.117 263.57 232.833 265.978 230.563L266.32 230.928C268.727 228.659 271.147 226.404 273.58 224.164L273.242 223.797L273.241 223.796C275.675 221.555 278.123 219.328 280.583 217.115L280.918 217.486C283.376 215.275 285.847 213.079 288.331 210.896L288.001 210.521C290.487 208.336 292.986 206.167 295.497 204.012L295.822 204.392C298.332 202.238 300.855 200.098 303.39 197.974L303.068 197.59C305.604 195.464 308.153 193.353 310.714 191.257L310.715 191.258L311.031 191.645C313.589 189.551 316.16 187.471 318.743 185.407L318.431 185.017C321.015 182.951 323.612 180.901 326.221 178.865L326.528 179.26C329.136 177.225 331.756 175.206 334.388 173.201L334.085 172.803C336.718 170.798 339.363 168.808 342.02 166.833L342.317 167.234C344.97 165.263 347.634 163.306 350.311 161.365L350.017 160.961C352.694 159.019 355.384 157.091 358.085 155.18L358.374 155.588C361.074 153.677 363.785 151.782 366.508 149.902L366.225 149.491C368.948 147.611 371.684 145.746 374.431 143.897L374.71 144.312C377.451 142.468 380.203 140.638 382.967 138.824L382.692 138.406C385.458 136.591 388.234 134.792 391.021 133.009L391.291 133.431C394.077 131.649 396.874 129.882 399.682 128.132L399.418 127.708C402.228 125.957 405.048 124.221 407.88 122.502L408.139 122.93C410.962 121.216 413.797 119.517 416.642 117.835L416.388 117.405L416.387 117.404C418.646 116.069 420.912 114.744 423.185 113.429L424.959 112.405L425.209 112.838C428.075 111.189 430.952 109.556 433.839 107.939L433.595 107.503C436.484 105.885 439.383 104.284 442.293 102.699L442.532 103.139C445.433 101.559 448.344 99.9949 451.265 98.4482L451.03 98.0068C453.952 96.4596 456.884 94.9289 459.826 93.415L460.055 93.8604C462.995 92.3475 465.945 90.8514 468.905 89.3721L468.682 88.9248L468.681 88.9238C471.643 87.4435 474.615 85.9807 477.597 84.5342L477.815 84.9844C480.787 83.5427 483.769 82.1178 486.76 80.71L486.547 80.2568C488.94 79.1302 491.34 78.015 493.746 76.9102L495.547 76.0859L495.754 76.541C498.762 75.1684 501.779 73.812 504.806 72.4736L504.604 72.0166C507.632 70.6775 510.669 69.3554 513.716 68.0508L513.912 68.5107C516.949 67.2102 519.996 65.9271 523.052 64.6611L522.86 64.1992C525.913 62.9346 528.974 61.6869 532.044 60.457L532.229 60.9219C535.298 59.6928 538.375 58.4802 541.461 57.2861L541.281 56.8203L541.28 56.8193C544.368 55.6245 547.465 54.4486 550.57 53.2891L550.745 53.7568C553.842 52.6005 556.947 51.4618 560.061 50.3408L559.892 49.8701C562.999 48.7515 566.115 47.6516 569.238 46.5684L569.402 47.04C572.524 45.9575 575.655 44.8927 578.793 43.8457L578.635 43.3711C581.775 42.3235 584.924 41.294 588.08 40.2822L588.232 40.7578C591.382 39.7482 594.541 38.7569 597.707 37.7832L597.56 37.3047C600.714 36.3346 603.877 35.3824 607.047 34.4482L607.188 34.9277C610.357 33.9941 613.533 33.0791 616.717 32.1816L616.581 31.7002C619.766 30.8022 622.96 29.923 626.16 29.0615L626.29 29.5439C629.488 28.6832 632.694 27.8408 635.906 27.0166L635.781 26.5322C638.166 25.9205 640.554 25.3189 642.946 24.7275L645.387 24.1279L645.506 24.6133C648.713 23.8307 651.927 23.0663 655.148 22.3203L655.036 21.834C658.259 21.0876 661.49 20.3599 664.727 19.6504L664.834 20.1377C668.069 19.4286 671.312 18.7384 674.561 18.0664L674.459 17.5771C677.69 16.9088 680.928 16.2574 684.173 15.626L684.174 15.627L684.27 16.1172C687.508 15.487 690.753 14.8754 694.004 14.2822L693.914 13.79C697.167 13.1965 700.427 12.6227 703.693 12.0664L703.777 12.5586C707.041 12.0027 710.312 11.4657 713.589 10.9473L713.511 10.4531C716.774 9.93676 720.043 9.43798 723.319 8.95898L723.32 8.95996L723.393 9.45508C726.654 8.97819 729.922 8.51968 733.195 8.08008L733.129 7.58398C736.404 7.14412 739.686 6.72362 742.973 6.32129L743.033 6.81738C746.318 6.41528 749.61 6.03234 752.906 5.66797L752.852 5.1709C756.143 4.80714 759.44 4.4617 762.742 4.13574L762.791 4.63379C766.068 4.31038 769.35 4.00568 772.638 3.71973L772.594 3.22168C775.883 2.93555 779.178 2.66836 782.479 2.41992L782.516 2.91797C785.814 2.66969 789.117 2.43989 792.426 2.22949L792.395 1.73047C795.705 1.51994 799.021 1.32963 802.342 1.15723L802.367 1.65625C805.654 1.48559 808.947 1.33327 812.244 1.2002L812.225 0.701172C815.52 0.568186 818.819 0.452678 822.124 0.357422L822.125 0.358398L822.14 0.857422C825.443 0.76222 828.75 0.686186 832.062 0.628906L832.055 0.129883C835.369 0.0725701 838.688 0.0338043 842.012 0.0146484L842.014 0.514648C843.674 0.505075 845.337 0.5 847 0.5C848.663 0.5 850.325 0.505077 851.985 0.514648L851.987 0.0146484C855.311 0.0338002 858.63 0.0725733 861.944 0.129883L861.937 0.628906C865.249 0.686187 868.557 0.762216 871.86 0.857422L871.875 0.358398V0.357422C875.18 0.452673 878.479 0.568192 881.774 0.701172L881.755 1.2002C885.052 1.33327 888.345 1.48461 891.632 1.65527L891.657 1.15723C894.978 1.32963 898.294 1.51995 901.604 1.73047L901.573 2.22949C904.882 2.43988 908.185 2.6697 911.483 2.91797L911.521 2.41992C914.82 2.66833 918.115 2.93558 921.404 3.22168L921.362 3.71973C924.65 4.00568 927.932 4.31039 931.209 4.63379L931.257 4.13574C934.559 4.4617 937.856 4.80714 941.147 5.1709L941.094 5.66699C944.39 6.03133 947.681 6.41532 950.966 6.81738L951.026 6.32129C954.313 6.72361 957.595 7.14413 960.87 7.58398L960.805 8.08008C964.078 8.51965 967.345 8.97725 970.606 9.4541L970.679 8.95996V8.95898C973.955 9.43801 977.225 9.93673 980.488 10.4531L980.411 10.9473C983.688 11.4657 986.959 12.0027 990.223 12.5586L990.306 12.0664C993.572 12.6227 996.832 13.1965 1000.08 13.79L999.996 14.2822C1003.25 14.8754 1006.49 15.487 1009.73 16.1172L1009.83 15.627V15.626C1013.07 16.2574 1016.31 16.9089 1019.54 17.5771L1019.44 18.0664C1022.69 18.7384 1025.93 19.4286 1029.17 20.1377L1029.27 19.6494C1032.51 20.359 1035.74 21.0875 1038.96 21.834L1038.85 22.3203C1042.07 23.0663 1045.29 23.8307 1048.49 24.6133L1048.61 24.1279V24.127C1051.82 24.91 1055.02 25.7128 1058.22 26.5322L1058.09 27.0156C1061.31 27.8398 1064.51 28.6832 1067.71 29.5439L1067.84 29.0605C1071.04 29.9222 1074.23 30.8021 1077.42 31.7002L1077.28 32.1816C1080.47 33.079 1083.64 33.9942 1086.81 34.9277L1086.95 34.4482C1090.12 35.3824 1093.28 36.3346 1096.44 37.3047L1096.29 37.7832C1099.46 38.7568 1102.62 39.7482 1105.77 40.7578L1105.92 40.2822C1109.08 41.2939 1112.22 42.3235 1115.36 43.3711L1115.21 43.8447C1118.35 44.8917 1121.48 45.9575 1124.6 47.04L1124.76 46.5674C1127.88 47.6507 1131 48.7514 1134.11 49.8701L1133.94 50.3408C1137.05 51.4618 1140.16 52.6005 1143.25 53.7568L1143.43 53.2881C1146.53 54.4477 1149.63 55.6245 1152.72 56.8193V56.8203L1152.54 57.2861C1155.62 58.4802 1158.7 59.6918 1161.77 60.9209L1161.95 60.457C1165.02 61.6869 1168.09 62.9346 1171.14 64.1992L1170.95 64.6602C1174 65.9261 1177.05 67.2102 1180.09 68.5107L1180.28 68.0508C1183.33 69.3553 1186.37 70.6775 1189.39 72.0166L1189.19 72.4736C1192.22 73.812 1195.24 75.1674 1198.25 76.54L1198.45 76.085C1201.46 77.4584 1204.46 78.8493 1207.45 80.2568H1207.45L1207.24 80.709C1210.23 82.1169 1213.21 83.5416 1216.18 84.9834L1216.4 84.5342V84.5332C1219.38 85.9795 1222.35 87.4437 1225.32 88.9238H1225.32L1225.09 89.3711C1228.05 90.8504 1231 92.3466 1233.94 93.8594L1234.17 93.415C1237.11 94.9287 1240.05 96.4598 1242.97 98.0068L1242.74 98.4482C1245.66 99.9949 1248.57 101.558 1251.47 103.138L1251.71 102.699C1254.62 104.284 1257.52 105.885 1260.4 107.503L1260.16 107.938C1263.05 109.555 1265.92 111.188 1268.79 112.838L1269.04 112.404C1271.91 114.055 1274.76 115.721 1277.61 117.404L1277.36 117.835C1280.2 119.517 1283.04 121.215 1285.86 122.929L1286.12 122.502C1288.95 124.221 1291.77 125.956 1294.58 127.707L1294.32 128.132C1297.13 129.882 1299.92 131.648 1302.71 133.43L1302.98 133.009C1305.77 134.792 1308.54 136.591 1311.31 138.406L1311.03 138.824C1313.8 140.638 1316.55 142.467 1319.29 144.312L1319.57 143.897C1322.32 145.746 1325.05 147.611 1327.77 149.491L1327.49 149.902C1330.21 151.782 1332.93 153.677 1335.62 155.588L1335.91 155.18C1338.61 157.091 1341.3 159.018 1343.98 160.96L1343.69 161.365C1346.37 163.306 1349.03 165.263 1351.68 167.234L1351.98 166.833C1354.64 168.808 1357.28 170.798 1359.91 172.803L1359.61 173.201C1362.24 175.206 1364.86 177.224 1367.47 179.259L1367.78 178.865V178.864C1370.39 180.9 1372.98 182.951 1375.57 185.017L1375.26 185.407C1377.84 187.471 1380.41 189.551 1382.97 191.645L1383.29 191.258V191.257C1385.85 193.353 1388.39 195.465 1390.93 197.59L1390.61 197.973C1393.14 200.097 1395.67 202.237 1398.18 204.391L1398.5 204.012C1401.01 206.167 1403.51 208.337 1406 210.521L1405.67 210.896C1408.15 213.078 1410.62 215.275 1413.08 217.486L1413.42 217.114C1415.88 219.327 1418.32 221.555 1420.76 223.796L1420.42 224.164C1422.85 226.404 1425.27 228.658 1427.68 230.927L1428.02 230.563C1430.43 232.833 1432.82 235.117 1435.21 237.414L1434.86 237.774C1437.24 240.07 1439.61 242.381 1441.96 244.704L1442.31 244.348C1444.66 246.673 1447 249.012 1449.33 251.364L1448.98 251.716C1451.3 254.067 1453.61 256.431 1455.91 258.809L1456.27 258.462C1458.57 260.841 1460.86 263.234 1463.13 265.64L1462.77 265.982C1465.04 268.387 1467.29 270.805 1469.54 273.236L1469.9 272.897C1472.15 275.33 1474.37 277.775 1476.59 280.233L1476.22 280.567C1478.43 283.024 1480.63 285.493 1482.82 287.976L1483.19 287.646C1485.38 290.129 1487.55 292.626 1489.71 295.135L1489.33 295.461C1491.48 297.969 1493.63 300.489 1495.75 303.022L1496.13 302.701C1498.26 305.236 1500.38 307.782 1502.47 310.342L1502.09 310.659C1504.18 313.215 1506.26 315.784 1508.33 318.365L1508.72 318.053C1510.79 320.635 1512.84 323.231 1514.88 325.838H1514.88L1514.49 326.146C1516.52 328.751 1518.54 331.37 1520.55 334L1520.95 333.696V333.695C1522.96 336.326 1524.95 338.97 1526.92 341.625L1526.52 341.924C1528.5 344.575 1530.46 347.238 1532.4 349.912L1532.8 349.618C1534.75 352.294 1536.68 354.982 1538.59 357.682L1538.18 357.971C1540.1 360.669 1541.99 363.379 1543.88 366.101L1544.29 365.815C1546.17 368.538 1548.04 371.272 1549.89 374.018L1549.47 374.297C1551.32 377.036 1553.15 379.788 1554.97 382.55L1555.39 382.275C1557.2 385.039 1559 387.814 1560.79 390.6L1560.37 390.869C1562.15 393.654 1563.92 396.45 1565.67 399.257L1566.1 398.991C1567.85 401.8 1569.59 404.619 1571.31 407.449H1571.31L1570.88 407.709C1572.6 410.531 1574.3 413.364 1575.98 416.208L1576.41 415.953C1578.1 418.799 1579.77 421.655 1581.42 424.521L1580.99 424.771C1582.64 427.636 1584.27 430.512 1585.89 433.397L1586.33 433.153C1587.95 436.041 1589.55 438.939 1591.14 441.847L1590.7 442.087C1592.28 444.986 1593.85 447.896 1595.4 450.816L1595.84 450.582C1597.39 453.503 1598.92 456.433 1600.44 459.374L1599.99 459.604C1601.51 462.542 1603.01 465.491 1604.49 468.45L1604.93 468.227V468.226C1606.42 471.186 1607.88 474.157 1609.33 477.138H1609.33L1608.88 477.356C1610.32 480.328 1611.75 483.308 1613.16 486.299L1613.61 486.086C1615.02 489.075 1616.41 492.074 1617.79 495.083L1617.34 495.291C1618.71 498.298 1620.07 501.314 1621.41 504.339L1621.86 504.137C1623.21 507.164 1624.53 510.2 1625.84 513.246L1625.38 513.443C1626.68 516.48 1627.97 519.525 1629.23 522.58L1629.69 522.389C1630.96 525.44 1632.21 528.501 1633.44 531.57L1632.98 531.756C1634.21 534.823 1635.42 537.9 1636.62 540.985L1637.08 540.805V540.804C1638.28 543.891 1639.46 546.987 1640.62 550.092H1640.62L1640.15 550.267C1641.31 553.363 1642.45 556.468 1643.58 559.581L1644.04 559.411C1645.17 562.518 1646.27 565.633 1647.35 568.756L1646.88 568.92C1647.97 572.041 1649.03 575.171 1650.08 578.309L1650.55 578.15C1651.6 581.29 1652.64 584.437 1653.65 587.593V587.594L1653.17 587.747C1654.19 590.897 1655.18 594.054 1656.15 597.22L1656.63 597.072C1657.6 600.226 1658.56 603.389 1659.49 606.559H1659.49L1659.01 606.7C1659.95 609.868 1660.87 613.043 1661.76 616.227L1662.24 616.091C1663.14 619.276 1664.02 622.469 1664.89 625.669H1664.89L1664.41 625.799C1665.27 628.996 1666.11 632.202 1666.94 635.414L1667.42 635.29C1668.24 638.484 1669.04 641.686 1669.83 644.895H1669.83L1669.34 645.013C1670.13 648.219 1670.89 651.433 1671.64 654.654L1672.13 654.542C1672.87 657.765 1673.6 660.995 1674.32 664.231L1673.83 664.339C1674.54 667.574 1675.23 670.816 1675.9 674.064L1676.39 673.963C1677.06 677.195 1677.71 680.433 1678.34 683.678H1678.35L1677.86 683.773C1678.49 687.011 1679.1 690.256 1679.69 693.507L1680.18 693.417C1680.78 696.67 1681.35 699.929 1681.91 703.195L1681.42 703.279C1681.98 706.543 1682.51 709.814 1683.03 713.091L1683.53 713.013C1684.04 716.277 1684.54 719.546 1685.02 722.822L1684.53 722.895C1685.01 726.156 1685.47 729.423 1685.91 732.696L1686.4 732.63C1686.84 735.905 1687.26 739.186 1687.67 742.474L1687.17 742.534C1687.57 745.819 1687.96 749.111 1688.32 752.407L1688.82 752.352C1689.18 755.643 1689.53 758.94 1689.86 762.242L1689.36 762.292C1689.68 765.568 1689.99 768.85 1690.28 772.138L1690.77 772.095C1691.06 775.384 1691.33 778.679 1691.58 781.979L1691.08 782.017C1691.33 785.315 1691.56 788.618 1691.77 791.927L1692.26 791.895C1692.48 795.205 1692.67 798.521 1692.84 801.842L1692.34 801.867C1692.51 805.155 1692.67 808.448 1692.8 811.745L1693.3 811.725Z" stroke="#E3CCCD" stroke-dasharray="10 10"/>
<g clip-path="url(#clip0_130_47)">
<path d="M815.313 851.869C815.589 851.472 816.016 851.636 816.394 851.729C816.646 851.79 816.998 851.87 817.397 851.94C818.217 852.086 819.155 852.179 819.836 852.058C820.517 851.936 821.365 851.523 822.083 851.103C822.433 850.898 822.736 850.702 822.951 850.557C823.265 850.344 823.633 850.048 824.013 850.313C824.41 850.589 824.246 851.016 824.153 851.394C824.092 851.646 824.012 851.998 823.942 852.397C823.796 853.217 823.703 854.155 823.824 854.837C823.947 855.517 824.359 856.365 824.779 857.083C824.953 857.378 825.135 857.667 825.326 857.951C825.543 858.271 825.844 858.619 825.569 859.014C825.298 859.404 824.861 859.245 824.488 859.154C824.156 859.072 823.821 859.002 823.485 858.942C822.665 858.796 821.727 858.703 821.046 858.825C820.365 858.947 819.517 859.36 818.799 859.779C818.504 859.952 818.215 860.134 817.931 860.326C817.61 860.544 817.266 860.846 816.869 860.569C816.472 860.293 816.636 859.866 816.729 859.488C816.79 859.236 816.87 858.884 816.94 858.485C817.086 857.665 817.179 856.727 817.058 856.046C816.935 855.365 816.523 854.517 816.103 853.799C815.898 853.449 815.701 853.146 815.557 852.931C815.341 852.614 815.039 852.261 815.313 851.869Z" fill="#E3CCCD"/>
</g>
<g clip-path="url(#clip1_130_47)">
<path d="M849.014 822.846C848.685 822.491 848.936 822.109 849.108 821.759C849.221 821.526 849.375 821.2 849.529 820.825C849.846 820.055 850.137 819.159 850.164 818.467C850.19 817.776 849.968 816.859 849.711 816.068C849.586 815.683 849.458 815.345 849.363 815.104C849.222 814.751 849.011 814.329 849.351 814.014C849.706 813.685 850.089 813.937 850.438 814.108C850.671 814.222 850.998 814.375 851.372 814.529C852.143 814.846 853.038 815.137 853.73 815.164C854.422 815.19 855.338 814.968 856.129 814.711C856.454 814.605 856.776 814.489 857.094 814.363C857.453 814.219 857.857 813.999 858.184 814.352C858.507 814.7 858.258 815.093 858.09 815.438C857.939 815.745 857.799 816.057 857.669 816.372C857.351 817.142 857.06 818.039 857.033 818.731C857.007 819.422 857.229 820.338 857.486 821.129C857.592 821.454 857.708 821.776 857.835 822.094C857.979 822.454 858.201 822.855 857.846 823.184C857.491 823.513 857.109 823.261 856.759 823.09C856.526 822.976 856.199 822.823 855.825 822.669C855.055 822.351 854.159 822.06 853.467 822.033C852.776 822.007 851.859 822.229 851.068 822.486C850.683 822.612 850.345 822.739 850.104 822.835C849.748 822.978 849.338 823.197 849.014 822.846Z" fill="#E3CCCD"/>
</g>
<g clip-path="url(#clip2_130_47)">
<path d="M1141.63 779.207C1141.86 778.78 1142.3 778.892 1142.69 778.94C1142.95 778.971 1143.3 779.008 1143.71 779.031C1144.54 779.078 1145.48 779.06 1146.14 778.858C1146.81 778.656 1147.6 778.146 1148.26 777.644C1148.58 777.399 1148.86 777.168 1149.06 776.999C1149.35 776.75 1149.68 776.412 1150.09 776.63C1150.51 776.858 1150.4 777.302 1150.35 777.688C1150.32 777.945 1150.28 778.304 1150.26 778.709C1150.21 779.54 1150.23 780.482 1150.43 781.145C1150.64 781.806 1151.15 782.599 1151.65 783.262C1151.86 783.534 1152.07 783.8 1152.29 784.059C1152.55 784.352 1152.89 784.661 1152.66 785.085C1152.44 785.505 1151.99 785.399 1151.6 785.353C1151.27 785.312 1150.92 785.281 1150.58 785.261C1149.75 785.213 1148.81 785.233 1148.15 785.434C1147.49 785.636 1146.69 786.146 1146.03 786.648C1145.76 786.855 1145.49 787.07 1145.23 787.294C1144.94 787.548 1144.63 787.889 1144.21 787.662C1143.78 787.434 1143.89 786.991 1143.94 786.605C1143.97 786.347 1144.01 785.988 1144.03 785.584C1144.08 784.752 1144.06 783.81 1143.86 783.148C1143.66 782.486 1143.15 781.693 1142.64 781.03C1142.4 780.707 1142.17 780.43 1142 780.233C1141.75 779.944 1141.41 779.629 1141.63 779.207Z" fill="#E3CCCD"/>
</g>
<g clip-path="url(#clip3_130_47)">
<path d="M874.888 650.981C874.712 650.53 875.087 650.267 875.374 650.004C875.565 649.829 875.828 649.581 876.108 649.29C876.686 648.69 877.286 647.963 877.565 647.329C877.842 646.696 877.972 645.762 878.023 644.931C878.048 644.527 878.053 644.166 878.053 643.906C878.051 643.527 878.01 643.056 878.442 642.888C878.893 642.712 879.156 643.087 879.418 643.374C879.594 643.565 879.841 643.828 880.133 644.109C880.733 644.686 881.46 645.286 882.094 645.565C882.727 645.842 883.661 645.972 884.491 646.023C884.833 646.043 885.175 646.053 885.517 646.053C885.903 646.051 886.36 645.994 886.535 646.442C886.708 646.885 886.333 647.159 886.049 647.418C885.796 647.649 885.552 647.887 885.314 648.133C884.736 648.733 884.137 649.46 883.858 650.094C883.58 650.727 883.451 651.661 883.4 652.491C883.379 652.833 883.369 653.175 883.37 653.517C883.372 653.905 883.431 654.359 882.981 654.535C882.53 654.711 882.267 654.336 882.004 654.049C881.829 653.857 881.581 653.595 881.29 653.314C880.69 652.736 879.963 652.137 879.329 651.858C878.696 651.58 877.762 651.451 876.931 651.4C876.527 651.375 876.166 651.37 875.906 651.37C875.523 651.373 875.062 651.426 874.888 650.981Z" fill="#E3CCCD"/>
</g>
<g clip-path="url(#clip4_130_47)">
<path d="M547.813 466.624C547.5 466.255 547.767 465.884 547.953 465.542C548.076 465.314 548.243 464.994 548.413 464.626C548.762 463.87 549.091 462.987 549.146 462.297C549.201 461.607 549.018 460.682 548.794 459.881C548.685 459.491 548.572 459.148 548.487 458.903C548.361 458.545 548.168 458.114 548.521 457.813C548.89 457.5 549.261 457.767 549.603 457.953C549.831 458.076 550.151 458.243 550.519 458.413C551.275 458.762 552.158 459.091 552.848 459.146C553.538 459.201 554.462 459.018 555.264 458.794C555.593 458.702 555.919 458.599 556.242 458.487C556.607 458.358 557.02 458.155 557.332 458.521C557.64 458.883 557.375 459.265 557.192 459.603C557.029 459.903 556.876 460.209 556.732 460.519C556.382 461.274 556.054 462.158 555.998 462.848C555.943 463.538 556.127 464.462 556.35 465.264C556.443 465.593 556.545 465.919 556.658 466.242C556.787 466.608 556.992 467.018 556.624 467.332C556.255 467.645 555.884 467.378 555.542 467.192C555.314 467.069 554.994 466.902 554.626 466.732C553.87 466.382 552.987 466.054 552.297 465.998C551.607 465.943 550.682 466.127 549.881 466.35C549.491 466.46 549.148 466.573 548.903 466.658C548.541 466.786 548.123 466.988 547.813 466.624Z" fill="#E3CCCD"/>
</g>
<path d="M941.298 308.508C941.301 308.024 941.746 307.918 942.11 307.78C942.352 307.688 942.687 307.554 943.056 307.387C943.814 307.042 944.64 306.588 945.133 306.102C945.625 305.615 946.09 304.795 946.444 304.042C946.616 303.675 946.754 303.342 946.85 303.101C946.988 302.747 947.123 302.295 947.587 302.298C948.071 302.301 948.177 302.746 948.315 303.11C948.407 303.352 948.541 303.688 948.709 304.056C949.053 304.815 949.507 305.64 949.993 306.133C950.48 306.625 951.3 307.09 952.053 307.444C952.362 307.589 952.676 307.724 952.994 307.85C953.355 307.991 953.8 308.107 953.797 308.587C953.794 309.063 953.345 309.179 952.985 309.315C952.666 309.437 952.35 309.568 952.039 309.709C951.28 310.053 950.455 310.507 949.962 310.994C949.47 311.48 949.005 312.3 948.651 313.053C948.506 313.362 948.371 313.677 948.245 313.995C948.104 314.356 947.991 314.801 947.508 314.798C947.024 314.794 946.917 314.349 946.78 313.985C946.687 313.743 946.554 313.408 946.386 313.039C946.042 312.281 945.588 311.455 945.101 310.962C944.615 310.47 943.795 310.005 943.042 309.652C942.675 309.479 942.342 309.341 942.1 309.246C941.743 309.106 941.295 308.986 941.298 308.508Z" fill="#E3CCCD"/>
<path d="M645.582 965.368C645.1 965.324 645.031 964.872 644.924 964.498C644.853 964.249 644.748 963.903 644.611 963.522C644.331 962.737 643.948 961.877 643.504 961.345C643.061 960.814 642.282 960.282 641.562 959.867C641.21 959.665 640.889 959.499 640.657 959.384C640.316 959.216 639.877 959.044 639.918 958.582C639.962 958.1 640.414 958.031 640.789 957.924C641.038 957.853 641.383 957.748 641.764 957.611C642.549 957.331 643.409 956.948 643.941 956.504C644.472 956.061 645.003 955.282 645.419 954.562C645.589 954.265 645.751 953.963 645.902 953.657C646.073 953.31 646.226 952.875 646.704 952.918C647.178 952.961 647.256 953.419 647.362 953.788C647.456 954.117 647.561 954.442 647.675 954.764C647.955 955.549 648.339 956.409 648.782 956.941C649.226 957.472 650.004 958.003 650.725 958.419C651.021 958.59 651.323 958.751 651.629 958.902C651.978 959.073 652.411 959.223 652.368 959.704C652.324 960.186 651.872 960.255 651.498 960.362C651.249 960.434 650.903 960.539 650.522 960.675C649.738 960.955 648.877 961.339 648.345 961.782C647.814 962.226 647.282 963.004 646.867 963.725C646.665 964.076 646.499 964.397 646.384 964.629C646.215 964.974 646.058 965.411 645.582 965.368Z" fill="#E3CCCD"/>
<circle cx="1036.5" cy="1010.5" r="106" stroke="#E3CCCD" stroke-width="5"/>
<circle cx="1036.5" cy="1010.5" r="106.5" stroke="#E3CCCD" stroke-width="4"/>
<path d="M1036.97 917.013C1040.94 917.074 1044.85 917.381 1048.68 917.922L1048.58 918.664C1051.48 919.074 1054.35 919.62 1057.16 920.293L1057.34 919.564C1059.25 920.022 1061.14 920.538 1063 921.11L1062.78 921.827C1063.71 922.113 1064.64 922.413 1065.55 922.728L1065.8 922.019C1069.52 923.295 1073.14 924.8 1076.64 926.517L1076.31 927.188C1078.94 928.476 1081.49 929.884 1083.97 931.405L1084.36 930.767C1086.03 931.793 1087.67 932.871 1089.27 933.997L1088.83 934.609C1089.63 935.169 1090.41 935.741 1091.19 936.324L1091.64 935.726C1094.77 938.082 1097.76 940.631 1100.57 943.355L1100.05 943.894C1102.14 945.922 1104.13 948.048 1106.03 950.264L1106.6 949.776C1107.87 951.264 1109.1 952.792 1110.27 954.358L1109.68 954.81C1110.26 955.585 1110.83 956.371 1111.39 957.165L1112 956.733C1114.25 959.928 1116.31 963.269 1118.15 966.74L1117.49 967.092C1118.85 969.658 1120.09 972.295 1121.21 974.997L1121.9 974.709C1122.65 976.513 1123.34 978.345 1123.98 980.203L1123.27 980.445C1123.59 981.363 1123.89 982.288 1124.17 983.219L1124.89 982.999C1126.03 986.712 1126.95 990.522 1127.62 994.416L1126.88 994.545C1127.38 997.392 1127.74 1000.28 1127.97 1003.21L1128.71 1003.16C1128.87 1005.1 1128.96 1007.05 1128.99 1009.03L1128.24 1009.04C1128.25 1009.52 1128.25 1010.01 1128.25 1010.5C1128.25 1010.99 1128.25 1011.48 1128.24 1011.96L1128.99 1011.97C1128.93 1015.94 1128.62 1019.85 1128.08 1023.68L1127.34 1023.58C1126.93 1026.48 1126.38 1029.35 1125.71 1032.16L1126.43 1032.34C1125.98 1034.25 1125.46 1036.14 1124.89 1038L1124.17 1037.78C1123.89 1038.71 1123.59 1039.64 1123.27 1040.55L1123.98 1040.8C1122.7 1044.52 1121.2 1048.14 1119.48 1051.64L1118.81 1051.31C1117.52 1053.94 1116.12 1056.49 1114.59 1058.97L1115.23 1059.36C1114.21 1061.03 1113.13 1062.67 1112 1064.27L1111.39 1063.83C1110.83 1064.63 1110.26 1065.41 1109.68 1066.19L1110.27 1066.64C1107.92 1069.77 1105.37 1072.76 1102.64 1075.57L1102.11 1075.05C1100.08 1077.14 1097.95 1079.13 1095.74 1081.03L1096.22 1081.6C1094.74 1082.87 1093.21 1084.1 1091.64 1085.27L1091.19 1084.68C1090.41 1085.26 1089.63 1085.83 1088.83 1086.39L1089.27 1087C1086.07 1089.25 1082.73 1091.31 1079.26 1093.15L1078.91 1092.49C1076.34 1093.85 1073.7 1095.09 1071 1096.21L1071.29 1096.9C1069.49 1097.65 1067.65 1098.34 1065.8 1098.98L1065.55 1098.27C1064.64 1098.59 1063.71 1098.89 1062.78 1099.17L1063 1099.89C1059.29 1101.03 1055.48 1101.95 1051.58 1102.62L1051.46 1101.88C1048.61 1102.38 1045.72 1102.74 1042.79 1102.97L1042.84 1103.71C1040.9 1103.87 1038.95 1103.96 1036.97 1103.99L1036.96 1103.24C1036.48 1103.25 1035.99 1103.25 1035.5 1103.25C1035.01 1103.25 1034.52 1103.25 1034.04 1103.24L1034.03 1103.99C1030.06 1103.92 1026.15 1103.62 1022.32 1103.08L1022.42 1102.34C1019.52 1101.93 1016.65 1101.38 1013.84 1100.71L1013.66 1101.43C1011.75 1100.98 1009.86 1100.46 1008 1099.89L1008.22 1099.17C1007.29 1098.89 1006.36 1098.59 1005.45 1098.27L1005.2 1098.98C1001.48 1097.7 997.855 1096.2 994.356 1094.48L994.688 1093.81C992.064 1092.52 989.51 1091.12 987.033 1089.59L986.642 1090.23C984.97 1089.21 983.333 1088.13 981.733 1087L982.165 1086.39C981.371 1085.83 980.585 1085.26 979.81 1084.68L979.358 1085.27C976.224 1082.92 973.243 1080.37 970.433 1077.64L970.954 1077.11C968.862 1075.08 966.865 1072.95 964.971 1070.74L964.4 1071.22C963.129 1069.74 961.903 1068.21 960.726 1066.64L961.323 1066.19C960.74 1065.41 960.169 1064.63 959.609 1063.83L958.997 1064.27C956.748 1061.07 954.693 1057.73 952.852 1054.26L953.514 1053.91C952.152 1051.34 950.908 1048.7 949.788 1046L949.096 1046.29C948.348 1044.49 947.655 1042.65 947.019 1040.8L947.728 1040.55C947.413 1039.64 947.113 1038.71 946.827 1037.78L946.11 1038C944.97 1034.29 944.054 1030.48 943.379 1026.58L944.117 1026.46C943.624 1023.61 943.26 1020.72 943.032 1017.79L942.284 1017.84C942.133 1015.9 942.043 1013.95 942.013 1011.97L942.762 1011.96C942.754 1011.48 942.75 1010.99 942.75 1010.5C942.75 1010.01 942.754 1009.52 942.762 1009.04L942.013 1009.03C942.074 1005.06 942.381 1001.15 942.922 997.319L943.664 997.424C944.074 994.516 944.62 991.652 945.293 988.838L944.564 988.663C945.022 986.752 945.538 984.863 946.11 982.999L946.827 983.219C947.113 982.288 947.413 981.363 947.728 980.445L947.019 980.203C948.295 976.476 949.8 972.855 951.517 969.356L952.188 969.688C953.476 967.064 954.884 964.51 956.405 962.033L955.767 961.642C956.793 959.97 957.871 958.333 958.997 956.733L959.609 957.165C960.169 956.371 960.741 955.585 961.324 954.81L960.726 954.358C963.082 951.224 965.631 948.243 968.355 945.433L968.894 945.954C970.922 943.862 973.048 941.865 975.264 939.971L974.776 939.4C976.264 938.129 977.792 936.903 979.358 935.726L979.81 936.323C980.585 935.74 981.371 935.169 982.165 934.609L981.733 933.997C984.928 931.748 988.269 929.693 991.74 927.852L992.092 928.514C994.658 927.152 997.295 925.908 999.997 924.788L999.709 924.096C1001.51 923.348 1003.34 922.655 1005.2 922.019L1005.45 922.728C1006.36 922.413 1007.29 922.113 1008.22 921.827L1008 921.11C1011.71 919.97 1015.52 919.054 1019.42 918.379L1019.54 919.117C1022.39 918.624 1025.28 918.26 1028.21 918.032L1028.16 917.284C1030.1 917.133 1032.05 917.043 1034.03 917.013L1034.04 917.762C1034.52 917.754 1035.01 917.75 1035.5 917.75C1035.99 917.75 1036.48 917.754 1036.96 917.762L1036.97 917.013Z" stroke="#E3CCCD" stroke-width="1.5" stroke-dasharray="3 6 9 12"/>
<circle cx="1036" cy="1011" r="116.5" stroke="#E3CCCD" stroke-dasharray="4 4"/>
<circle cx="1035.5" cy="1010.5" r="123.5" stroke="#E3CCCD" stroke-width="2"/>
<path d="M1034.5 927C1080.62 927 1118 964.166 1118 1010C1118 1055.83 1080.62 1093 1034.5 1093C988.379 1093 951 1055.83 951 1010C951 964.166 988.379 927 1034.5 927Z" stroke="#E3CCCD" stroke-width="2"/>
<path d="M1078.81 1045.75H992.192L1035.5 968.51L1078.81 1045.75Z" stroke="#E3CCCD" stroke-width="0.5"/>
<path d="M993.069 978.254L1079.68 978.06L1036.55 1055.4L993.069 978.254Z" stroke="#E3CCCD" stroke-width="0.5"/>
<path d="M1061.31 1054.07L985.71 1011.8L1061.21 965.522L1061.31 1054.07Z" stroke="#E3CCCD" stroke-width="0.5"/>
<path d="M1011.1 966.217L1085.42 1010.7L1008.59 1054.73L1011.1 966.217Z" stroke="#E3CCCD" stroke-width="0.5"/>
<g clip-path="url(#clip5_130_47)">
<path fill-rule="evenodd" clip-rule="evenodd" d="M1036.93 940.655C1036.62 939.782 1035.38 939.782 1035.06 940.655L1033.62 944.622L1029.65 946.065C1028.78 946.383 1028.78 947.617 1029.65 947.935L1033.62 949.378L1035.06 953.345C1035.38 954.218 1036.62 954.218 1036.93 953.345L1038.38 949.378L1042.34 947.935C1043.22 947.617 1043.22 946.383 1042.34 946.065L1038.38 944.622L1036.93 940.655Z" fill="#E3CCCD"/>
</g>
<path fill-rule="evenodd" clip-rule="evenodd" d="M970.935 1003.65C970.617 1002.78 969.383 1002.78 969.065 1003.65L967.622 1007.62L963.655 1009.06C962.782 1009.38 962.782 1010.62 963.655 1010.93L967.622 1012.38L969.065 1016.34C969.383 1017.22 970.617 1017.22 970.935 1016.34L972.378 1012.38L976.345 1010.93C977.218 1010.62 977.218 1009.38 976.345 1009.06L972.378 1007.62L970.935 1003.65Z" fill="#E3CCCD"/>
<path fill-rule="evenodd" clip-rule="evenodd" d="M1102.93 1004.65C1102.62 1003.78 1101.38 1003.78 1101.06 1004.65L1099.62 1008.62L1095.65 1010.06C1094.78 1010.38 1094.78 1011.62 1095.65 1011.93L1099.62 1013.38L1101.06 1017.34C1101.38 1018.22 1102.62 1018.22 1102.93 1017.34L1104.38 1013.38L1108.34 1011.93C1109.22 1011.62 1109.22 1010.38 1108.34 1010.06L1104.38 1008.62L1102.93 1004.65Z" fill="#E3CCCD"/>
<path fill-rule="evenodd" clip-rule="evenodd" d="M1035.93 1065.65C1035.62 1064.78 1034.38 1064.78 1034.06 1065.65L1032.62 1069.62L1028.65 1071.06C1027.78 1071.38 1027.78 1072.62 1028.65 1072.93L1032.62 1074.38L1034.06 1078.34C1034.38 1079.22 1035.62 1079.22 1035.93 1078.34L1037.38 1074.38L1041.34 1072.93C1042.22 1072.62 1042.22 1071.38 1041.34 1071.06L1037.38 1069.62L1035.93 1065.65Z" fill="#E3CCCD"/>
<path d="M1024.5 895.5L1036.5 866L1047.5 895.5L1036.5 924.5L1024.5 895.5Z" stroke="#E3CCCD" stroke-width="2"/>
<path d="M933.426 939.689L928.748 918.041L949.689 923.426L954.851 944.144L933.426 939.689Z" stroke="#E3CCCD" stroke-width="2"/>
<path d="M919.287 998.366L948.634 1010.74L918.998 1021.36L890.139 1010L919.287 998.366Z" stroke="#E3CCCD" stroke-width="2"/>
<path d="M1047.24 1125L1035.49 1154.6L1024.24 1125.19L1035 1096.1L1047.24 1125Z" stroke="#E3CCCD" stroke-width="2"/>
<path d="M1150.16 1021.84L1120.32 1010.72L1149.49 998.854L1178.8 1009L1150.16 1021.84Z" stroke="#E3CCCD" stroke-width="2"/>
<rect x="955.5" y="936.5" width="54" height="54" rx="27" stroke="#E3CCCD"/>
<rect x="960.5" y="941.5" width="44" height="44" rx="22" stroke="#E3CCCD" stroke-dasharray="2 2"/>
<g clip-path="url(#clip6_130_47)">
<path d="M978.008 971.482C979.461 972.334 981.124 972.761 982.808 972.714C981.289 971.599 980.274 969.926 979.988 968.064C979.702 966.201 980.167 964.3 981.282 962.781C982.397 961.261 984.07 960.247 985.933 959.961C987.796 959.674 989.696 960.14 991.216 961.255C990.755 959.635 989.848 958.176 988.599 957.046C987.351 955.915 985.81 955.158 984.152 954.86C982.494 954.562 980.785 954.735 979.221 955.36C977.657 955.984 976.299 957.036 975.303 958.394C974.306 959.752 973.711 961.363 973.584 963.042C973.458 964.722 973.806 966.404 974.588 967.896C975.37 969.388 976.555 970.63 978.008 971.482Z" stroke="#E3CCCD" stroke-width="1.5" stroke-linecap="round" stroke-linejoin="round"/>
</g>
<rect x="1121.66" y="946.441" width="54" height="54" rx="27" transform="rotate(108.464 1121.66 946.441)" stroke="#E3CCCD"/>
<rect x="1115.34" y="949.601" width="44" height="44" rx="22" transform="rotate(108.464 1115.34 949.601)" stroke="#E3CCCD" stroke-dasharray="2 2"/>
<path d="M1081.35 956.711C1080.08 957.82 1079.15 959.262 1078.66 960.874C1080.2 959.786 1082.11 959.354 1083.97 959.672C1085.82 959.991 1087.48 961.034 1088.57 962.573C1089.66 964.112 1090.09 966.02 1089.77 967.877C1089.45 969.735 1088.41 971.39 1086.87 972.478C1088.55 972.554 1090.22 972.156 1091.69 971.33C1093.16 970.503 1094.36 969.282 1095.17 967.803C1095.98 966.325 1096.36 964.65 1096.26 962.968C1096.16 961.287 1095.6 959.666 1094.62 958.29C1093.65 956.915 1092.31 955.84 1090.76 955.189C1089.2 954.537 1087.5 954.334 1085.84 954.603C1084.17 954.872 1082.62 955.603 1081.35 956.711Z" stroke="#E3CCCD" stroke-width="1.5" stroke-linecap="round" stroke-linejoin="round"/>
<rect x="1106.98" y="1091.13" width="54" height="54" rx="27" transform="rotate(-172.39 1106.98 1091.13)" stroke="#E3CCCD"/>
<rect x="1102.69" y="1085.51" width="44" height="44" rx="22" transform="rotate(-172.39 1102.69 1085.51)" stroke="#E3CCCD" stroke-dasharray="2 2"/>
<path d="M1089.3 1053.48C1087.98 1052.44 1086.38 1051.8 1084.71 1051.62C1086.07 1052.93 1086.85 1054.72 1086.89 1056.6C1086.92 1058.49 1086.21 1060.31 1084.91 1061.67C1083.6 1063.03 1081.81 1063.81 1079.92 1063.85C1078.04 1063.88 1076.22 1063.17 1074.86 1061.87C1075.1 1063.53 1075.81 1065.1 1076.89 1066.38C1077.98 1067.67 1079.41 1068.62 1081.01 1069.14C1082.62 1069.65 1084.33 1069.71 1085.97 1069.3C1087.6 1068.88 1089.08 1068.02 1090.25 1066.81C1091.42 1065.59 1092.22 1064.08 1092.57 1062.43C1092.92 1060.78 1092.8 1059.07 1092.22 1057.48C1091.64 1055.9 1090.63 1054.51 1089.3 1053.48Z" stroke="#E3CCCD" stroke-width="1.5" stroke-linecap="round" stroke-linejoin="round"/>
<rect x="952.604" y="1079.07" width="54" height="54" rx="27" transform="rotate(-76.3105 952.604 1079.07)" stroke="#E3CCCD"/>
<rect x="958.646" y="1075.4" width="44" height="44" rx="22" transform="rotate(-76.3105 958.646 1075.4)" stroke="#E3CCCD" stroke-dasharray="2 2"/>
<path d="M991.92 1065.48C993.091 1064.27 993.9 1062.75 994.253 1061.11C992.81 1062.32 990.944 1062.91 989.067 1062.75C987.189 1062.58 985.453 1061.68 984.24 1060.24C983.028 1058.8 982.438 1056.93 982.601 1055.05C982.764 1053.18 983.666 1051.44 985.109 1050.23C983.425 1050.29 981.794 1050.83 980.4 1051.77C979.006 1052.72 977.905 1054.04 977.223 1055.58C976.541 1057.12 976.305 1058.82 976.542 1060.49C976.779 1062.15 977.479 1063.72 978.563 1065.01C979.647 1066.3 981.071 1067.26 982.673 1067.78C984.275 1068.3 985.991 1068.36 987.626 1067.95C989.26 1067.55 990.748 1066.69 991.92 1065.48Z" stroke="#E3CCCD" stroke-width="1.5" stroke-linecap="round" stroke-linejoin="round"/>
<path d="M1121.66 919.804L1143.57 916.275L1137.02 936.928L1116.01 940.99L1121.66 919.804Z" stroke="#E3CCCD" stroke-width="2"/>
<path d="M1131.07 1089.39L1136.73 1110.85L1115.54 1106.36L1109.43 1085.85L1131.07 1089.39Z" stroke="#E3CCCD" stroke-width="2"/>
<path d="M951.042 1100.42L929.008 1103.06L936.389 1082.69L957.542 1079.48L951.042 1100.42Z" stroke="#E3CCCD" stroke-width="2"/>
<path d="M1055.47 982.541C1063.11 982.928 1066.52 986.023 1066.52 991.515C1066.52 997.007 1062.75 1000.33 1058.67 1004.36V1004.51C1066.77 1000.64 1074 1008.46 1074 1018.98C1074 1034.83 1064.71 1036.69 1052.74 1036.69H1036.22V1035.14C1040.3 1035.14 1041.28 1034.83 1041.28 1024.78V1021.22C1038.29 1033.52 1029.41 1037 1021.57 1037C1006.86 1037 1000.3 1026.71 997.877 1032.36L997 1031.2L1004.28 1013.02H1004.95C1004.02 1021.06 1007.48 1034.29 1021.57 1034.29C1031.84 1034.29 1041.28 1030.35 1041.28 1011.63V994.454C1041.28 984.398 1040.3 984.089 1036.22 984.089V982.541H1055.47ZM1017.33 982C1024.2 982 1029.82 986.332 1031.68 987.647C1033.75 989.117 1034.78 988.034 1035.35 986.719L1036.22 987.879L1028.43 1005.28H1027.76C1029.62 993.99 1024.15 985.636 1017.33 985.017C1011.5 985.017 1007.94 989.039 1007.94 993.99C1007.99 1005.36 1036.07 1003.97 1036.07 1020.37C1036.07 1023.54 1035.45 1024.55 1034.42 1026.63C1032.25 1028.57 1030.03 1029.03 1027.86 1029.03V1028.26C1028.22 1026.87 1028.48 1025.47 1028.48 1024.31C1028.48 1011.78 1002.06 1017.27 1002.06 997.162C1002.06 986.719 1008.87 982 1017.33 982ZM1052.58 1035.14C1063.78 1035.14 1066 1028.8 1066 1019.21C1066 1010.7 1059.09 1002.81 1053 1010.78C1050.41 1014.57 1048.51 1019.29 1048.51 1026.02V1035.14H1052.58ZM1048.51 1017.2C1051.34 1004.82 1059.81 1001.42 1059.81 991.36C1059.81 986.023 1057.64 984.089 1054.13 984.089H1048.51V1017.2Z" fill="#E3CCCD"/>
<path d="M1021.31 992.608C1021.39 992.651 1021.47 992.674 1021.56 992.673C1021.65 992.673 1021.73 992.649 1021.8 992.606C1021.88 992.562 1021.94 992.5 1021.97 992.427C1022.01 992.354 1022.02 992.274 1022.01 992.195C1021.52 989.255 1018.86 987.769 1016.24 987.761C1013.62 987.753 1010.94 989.227 1010.42 992.234C1009.88 995.392 1012.53 998.396 1016.03 998.465C1016.12 998.467 1016.2 998.446 1016.28 998.404C1016.35 998.363 1016.41 998.302 1016.45 998.231C1016.49 998.16 1016.5 998.08 1016.49 998.001C1016.48 997.923 1016.45 997.849 1016.39 997.788C1015.05 996.318 1014.85 993.704 1016 992.5C1017.15 991.297 1019.57 991.574 1021.31 992.608Z" fill="#E3CCCD"/>
<path fill-rule="evenodd" clip-rule="evenodd" d="M1058.49 1022.52L1057.5 1020.29L1056.51 1022.52L1054.28 1023.51L1056.51 1024.49L1057.5 1026.73L1058.49 1024.49L1060.72 1023.51L1058.49 1022.52Z" fill="#E3CCCD"/>
</g>
<defs>
<clipPath id="clip0_130_47">
<rect width="15" height="15" fill="white" transform="translate(810 857.308) rotate(-55.139)"/>
</clipPath>
<clipPath id="clip1_130_47">
<rect width="15" height="15" fill="white" transform="translate(853.193 829.198) rotate(-132.809)"/>
</clipPath>
<clipPath id="clip2_130_47">
<rect width="15" height="15" fill="white" transform="translate(1137 785.238) rotate(-61.9474)"/>
</clipPath>
<clipPath id="clip3_130_47">
<rect width="15" height="15" fill="white" transform="translate(876.446 658.423) rotate(-111.29)"/>
</clipPath>
<clipPath id="clip4_130_47">
<rect width="15" height="15" fill="white" transform="translate(551.723 473.145) rotate(-130.405)"/>
</clipPath>
<clipPath id="clip5_130_47">
<rect width="14" height="14" fill="white" transform="translate(1028 940)"/>
</clipPath>
<clipPath id="clip6_130_47">
<rect width="24" height="24" fill="white" transform="translate(991.127 948.886) rotate(75.5552)"/>
</clipPath>
</defs>
</svg>
