<svg width="1229" height="1117" viewBox="0 0 1229 1117" fill="none" xmlns="http://www.w3.org/2000/svg">
<g opacity="0.7">
<circle cx="1022.5" cy="918.5" r="359" stroke="#E3CCCD" stroke-dasharray="11 11"/>
<circle cx="1025" cy="919" r="249.75" stroke="#E3CCCD" stroke-width="0.5"/>
<circle cx="1019" cy="916" r="374.75" stroke="#E3CCCD" stroke-width="0.5"/>
<circle cx="948" cy="818" r="589.75" stroke="#E3CCCD" stroke-width="0.5"/>
<path d="M1693.3 730.725C1693.43 734.02 1693.55 737.32 1693.64 740.625H1693.64L1693.14 740.64C1693.24 743.943 1693.31 747.25 1693.37 750.562L1693.87 750.555C1693.93 753.869 1693.97 757.188 1693.98 760.512L1693.49 760.514C1693.49 762.174 1693.5 763.837 1693.5 765.5C1693.5 767.163 1693.49 768.825 1693.49 770.485L1693.98 770.487C1693.97 773.811 1693.93 777.13 1693.87 780.444L1693.37 780.437C1693.31 783.749 1693.24 787.057 1693.14 790.36L1693.64 790.374C1693.55 793.679 1693.43 796.979 1693.3 800.274L1692.8 800.255C1692.67 803.552 1692.51 806.844 1692.34 810.132L1692.84 810.157C1692.67 813.478 1692.48 816.794 1692.26 820.104L1691.77 820.073C1691.56 823.382 1691.33 826.685 1691.08 829.983L1691.58 830.021C1691.33 833.32 1691.06 836.615 1690.77 839.904L1690.28 839.862C1689.99 843.15 1689.68 846.432 1689.36 849.708L1689.86 849.756C1689.53 853.058 1689.18 856.355 1688.82 859.646L1688.32 859.593C1687.96 862.889 1687.57 866.18 1687.17 869.465L1687.67 869.525C1687.26 872.812 1686.84 876.093 1686.4 879.368L1685.91 879.303C1685.47 882.576 1685.01 885.843 1684.53 889.104L1685.02 889.177C1684.54 892.453 1684.04 895.723 1683.53 898.986L1683.04 898.909C1682.52 902.186 1681.98 905.456 1681.42 908.72L1681.91 908.803C1681.35 912.069 1680.78 915.328 1680.18 918.581L1679.69 918.492C1679.1 921.743 1678.49 924.989 1677.86 928.227L1678.34 928.321C1677.71 931.566 1677.06 934.804 1676.39 938.035L1675.9 937.935C1675.23 941.183 1674.54 944.425 1673.83 947.66L1674.32 947.767C1673.6 951.004 1672.87 954.234 1672.13 957.457L1671.64 957.345C1670.89 960.566 1670.13 963.78 1669.34 966.986L1669.83 967.104C1669.04 970.313 1668.24 973.515 1667.42 976.709L1666.94 976.585C1666.11 979.797 1665.27 983.003 1664.41 986.2L1664.89 986.329C1664.03 989.529 1663.14 992.722 1662.24 995.907L1661.76 995.772C1660.87 998.956 1659.95 1002.13 1659.01 1005.3L1659.49 1005.44C1658.56 1008.61 1657.6 1011.77 1656.63 1014.93L1656.15 1014.78C1655.18 1017.95 1654.19 1021.1 1653.17 1024.25L1653.65 1024.4C1652.64 1027.56 1651.6 1030.71 1650.55 1033.85L1650.08 1033.69C1649.03 1036.83 1647.97 1039.96 1646.88 1043.08L1647.35 1043.24C1646.27 1046.37 1645.17 1049.48 1644.04 1052.59L1643.58 1052.42C1642.45 1055.53 1641.31 1058.64 1640.15 1061.73L1640.62 1061.91C1639.46 1065.01 1638.28 1068.11 1637.08 1071.19L1636.62 1071.01C1635.42 1074.1 1634.21 1077.18 1632.98 1080.24L1633.44 1080.43C1632.21 1083.5 1630.96 1086.56 1629.69 1089.61L1629.23 1089.42C1627.97 1092.47 1626.68 1095.52 1625.38 1098.56L1625.84 1098.75C1624.53 1101.8 1623.21 1104.83 1621.86 1107.86L1621.41 1107.66C1620.07 1110.69 1618.71 1113.7 1617.34 1116.71L1617.79 1116.92C1616.41 1119.92 1615.02 1122.92 1613.61 1125.91L1613.16 1125.7C1611.75 1128.69 1610.32 1131.67 1608.88 1134.64L1609.33 1134.86C1607.88 1137.84 1606.42 1140.81 1604.93 1143.77L1604.49 1143.55C1603.01 1146.51 1601.51 1149.46 1599.99 1152.4L1600.44 1152.62C1598.92 1155.57 1597.39 1158.5 1595.84 1161.42L1595.4 1161.18C1593.85 1164.1 1592.28 1167.01 1590.7 1169.91L1591.14 1170.15C1589.55 1173.06 1587.95 1175.96 1586.33 1178.85L1585.89 1178.6C1584.27 1181.49 1582.64 1184.36 1580.99 1187.23L1581.42 1187.48C1579.77 1190.34 1578.1 1193.2 1576.41 1196.04L1575.98 1195.79C1574.3 1198.63 1572.6 1201.47 1570.88 1204.29L1571.31 1204.55C1569.59 1207.38 1567.85 1210.2 1566.1 1213.01L1565.67 1212.74C1563.92 1215.55 1562.15 1218.35 1560.37 1221.13L1560.79 1221.4C1559 1224.18 1557.2 1226.96 1555.39 1229.72L1554.97 1229.45C1553.15 1232.21 1551.32 1234.96 1549.47 1237.7L1549.89 1237.98C1548.04 1240.73 1546.17 1243.46 1544.29 1246.18L1543.88 1245.9C1542 1248.62 1540.1 1251.33 1538.18 1254.03L1538.59 1254.32C1536.68 1257.02 1534.75 1259.7 1532.8 1262.38L1532.4 1262.09C1530.46 1264.76 1528.5 1267.42 1526.52 1270.08L1526.92 1270.37C1524.95 1273.03 1522.96 1275.67 1520.95 1278.3L1520.55 1278C1518.55 1280.63 1516.52 1283.25 1514.49 1285.85L1514.88 1286.16C1512.84 1288.77 1510.79 1291.36 1508.72 1293.95L1508.33 1293.63C1506.26 1296.22 1504.18 1298.78 1502.09 1301.34L1502.47 1301.66C1500.38 1304.22 1498.26 1306.76 1496.13 1309.3L1495.75 1308.98C1493.63 1311.51 1491.48 1314.03 1489.33 1316.54L1489.71 1316.86C1487.55 1319.37 1485.38 1321.87 1483.19 1324.35L1482.82 1324.02C1480.63 1326.51 1478.43 1328.98 1476.22 1331.43L1476.59 1331.77C1474.37 1334.22 1472.15 1336.67 1469.9 1339.1L1469.54 1338.76C1467.29 1341.19 1465.04 1343.61 1462.77 1346.02L1463.13 1346.36C1460.86 1348.76 1458.57 1351.16 1456.27 1353.54L1455.91 1353.19C1453.61 1355.57 1451.3 1357.93 1448.98 1360.28L1449.33 1360.63C1447 1362.99 1444.66 1365.33 1442.31 1367.65L1441.96 1367.3C1439.61 1369.62 1437.24 1371.93 1434.86 1374.23L1435.21 1374.58C1432.82 1376.88 1430.43 1379.17 1428.02 1381.44L1427.68 1381.07C1425.27 1383.34 1422.85 1385.6 1420.42 1387.84L1420.76 1388.2C1418.32 1390.44 1415.88 1392.67 1413.42 1394.88L1413.08 1394.51C1410.62 1396.72 1408.15 1398.92 1405.67 1401.1L1406 1401.48C1403.51 1403.66 1401.01 1405.83 1398.5 1407.99L1398.18 1407.61C1395.67 1409.76 1393.15 1411.9 1390.61 1414.03L1390.93 1414.41C1388.39 1416.53 1385.85 1418.65 1383.29 1420.74L1382.97 1420.36C1380.41 1422.45 1377.84 1424.53 1375.26 1426.59L1375.57 1426.98C1372.98 1429.05 1370.39 1431.1 1367.78 1433.13L1367.47 1432.74C1364.86 1434.77 1362.24 1436.79 1359.61 1438.8L1359.91 1439.2C1357.28 1441.2 1354.64 1443.19 1351.98 1445.17L1351.68 1444.77C1349.03 1446.74 1346.37 1448.69 1343.69 1450.63L1343.98 1451.04C1341.3 1452.98 1338.62 1454.91 1335.91 1456.82L1335.63 1456.41C1332.93 1458.32 1330.22 1460.22 1327.49 1462.1L1327.77 1462.51C1325.05 1464.39 1322.32 1466.25 1319.57 1468.1L1319.29 1467.69C1316.55 1469.53 1313.8 1471.36 1311.03 1473.18L1311.31 1473.59C1308.54 1475.41 1305.77 1477.21 1302.98 1478.99L1302.71 1478.57C1299.92 1480.35 1297.13 1482.12 1294.32 1483.87L1294.58 1484.29C1291.77 1486.04 1288.95 1487.78 1286.12 1489.5L1285.86 1489.07C1283.04 1490.78 1280.2 1492.48 1277.36 1494.17L1277.61 1494.59C1274.77 1496.28 1271.91 1497.94 1269.04 1499.59L1268.79 1499.16C1265.93 1500.81 1263.05 1502.44 1260.16 1504.06L1260.4 1504.5C1257.52 1506.11 1254.62 1507.72 1251.71 1509.3L1251.47 1508.86C1248.57 1510.44 1245.66 1512.01 1242.74 1513.55L1242.97 1513.99C1240.05 1515.54 1237.12 1517.07 1234.17 1518.58L1233.95 1518.14C1231.01 1519.65 1228.05 1521.15 1225.09 1522.63L1225.32 1523.08C1222.36 1524.56 1219.38 1526.02 1216.4 1527.46L1216.18 1527.02C1213.21 1528.46 1210.23 1529.88 1207.24 1531.29L1207.45 1531.74C1204.46 1533.15 1201.46 1534.54 1198.45 1535.91L1198.25 1535.46C1195.24 1536.83 1192.22 1538.19 1189.19 1539.53L1189.4 1539.98C1186.37 1541.32 1183.33 1542.64 1180.28 1543.95L1180.09 1543.49C1177.05 1544.79 1174 1546.07 1170.95 1547.34L1171.14 1547.8C1168.09 1549.06 1165.03 1550.31 1161.96 1551.54L1161.77 1551.08C1158.7 1552.31 1155.62 1553.52 1152.54 1554.71L1152.72 1555.18C1149.63 1556.37 1146.53 1557.55 1143.43 1558.71L1143.25 1558.24C1140.16 1559.4 1137.05 1560.54 1133.94 1561.66L1134.11 1562.13C1131 1563.25 1127.88 1564.35 1124.76 1565.43L1124.6 1564.96C1121.48 1566.04 1118.35 1567.11 1115.21 1568.15L1115.36 1568.63C1112.22 1569.68 1109.08 1570.71 1105.92 1571.72L1105.77 1571.24C1102.62 1572.25 1099.46 1573.24 1096.29 1574.22L1096.44 1574.69C1093.28 1575.66 1090.12 1576.62 1086.95 1577.55L1086.81 1577.07C1083.64 1578.01 1080.47 1578.92 1077.28 1579.82L1077.42 1580.3C1074.23 1581.2 1071.04 1582.08 1067.84 1582.94L1067.71 1582.46C1064.51 1583.32 1061.31 1584.16 1058.09 1584.98L1058.22 1585.47C1055.02 1586.29 1051.82 1587.09 1048.61 1587.87L1048.49 1587.39C1045.29 1588.17 1042.07 1588.93 1038.85 1589.68L1038.96 1590.17C1035.74 1590.91 1032.51 1591.64 1029.27 1592.35L1029.17 1591.86C1025.93 1592.57 1022.69 1593.26 1019.44 1593.93L1019.54 1594.42C1016.31 1595.09 1013.07 1595.74 1009.83 1596.37L1009.73 1595.88C1006.49 1596.51 1003.25 1597.12 999.996 1597.72L1000.08 1598.21C996.832 1598.8 993.572 1599.38 990.306 1599.93L990.223 1599.44C986.959 1600 983.688 1600.53 980.411 1601.05L980.488 1601.55C977.225 1602.06 973.956 1602.56 970.68 1603.04L970.607 1602.54C967.346 1603.02 964.078 1603.48 960.805 1603.92L960.87 1604.42C957.595 1604.85 954.313 1605.28 951.026 1605.68L950.967 1605.18C947.682 1605.58 944.39 1605.97 941.094 1606.33L941.147 1606.83C937.856 1607.19 934.559 1607.54 931.257 1607.86L931.209 1607.37C927.932 1607.69 924.65 1607.99 921.362 1608.28L921.405 1608.78C918.116 1609.06 914.821 1609.33 911.521 1609.58L911.484 1609.08C908.186 1609.33 904.883 1609.56 901.574 1609.77L901.604 1610.27C898.294 1610.48 894.978 1610.67 891.657 1610.84L891.633 1610.34C888.346 1610.51 885.053 1610.67 881.756 1610.8L881.774 1611.3C878.479 1611.43 875.18 1611.55 871.875 1611.64L871.86 1611.14C868.557 1611.24 865.25 1611.31 861.938 1611.37L861.944 1611.87C858.63 1611.93 855.311 1611.97 851.987 1611.98L851.986 1611.49C850.326 1611.49 848.663 1611.5 847 1611.5C845.337 1611.5 843.675 1611.49 842.015 1611.49L842.012 1611.98C838.688 1611.97 835.369 1611.93 832.055 1611.87L832.063 1611.37C828.751 1611.31 825.443 1611.24 822.14 1611.14L822.125 1611.64H822.124C818.819 1611.55 815.52 1611.43 812.225 1611.3L812.245 1610.8C808.948 1610.67 805.655 1610.52 802.368 1610.34L802.342 1610.84C799.021 1610.67 795.705 1610.48 792.395 1610.27L792.427 1609.77C789.118 1609.56 785.815 1609.33 782.517 1609.08L782.479 1609.58C779.179 1609.33 775.884 1609.06 772.595 1608.78L772.638 1608.28C769.35 1607.99 766.068 1607.69 762.791 1607.37L762.742 1607.86C759.44 1607.54 756.143 1607.19 752.852 1606.83L752.906 1606.33C749.61 1605.97 746.319 1605.58 743.034 1605.18L742.973 1605.68C739.686 1605.28 736.404 1604.85 733.129 1604.42L733.195 1603.92C729.922 1603.48 726.655 1603.02 723.394 1602.55L723.321 1603.04H723.32C720.044 1602.56 716.775 1602.06 713.511 1601.55L713.589 1601.05C710.312 1600.53 707.041 1600 703.777 1599.44L703.693 1599.93C700.427 1599.38 697.167 1598.8 693.914 1598.21L694.004 1597.72C690.753 1597.12 687.508 1596.51 684.27 1595.88L684.174 1596.37H684.173C680.928 1595.74 677.691 1595.09 674.46 1594.42L674.562 1593.93C671.312 1593.26 668.069 1592.57 664.834 1591.86L664.728 1592.35C661.49 1591.64 658.26 1590.91 655.036 1590.17L655.149 1589.68C651.928 1588.93 648.714 1588.17 645.507 1587.39L645.388 1587.87H645.387C642.178 1587.09 638.977 1586.29 635.782 1585.47L635.906 1584.98C632.694 1584.16 629.489 1583.32 626.291 1582.46L626.161 1582.94C622.96 1582.08 619.767 1581.2 616.581 1580.3L616.717 1579.82C613.533 1578.92 610.358 1578.01 607.189 1577.07L607.048 1577.55C603.878 1576.62 600.715 1575.66 597.561 1574.69L597.707 1574.22C594.541 1573.24 591.383 1572.25 588.233 1571.24L588.08 1571.72C584.924 1570.71 581.775 1569.68 578.635 1568.63L578.793 1568.16C575.655 1567.11 572.524 1566.04 569.402 1564.96L569.239 1565.43C566.115 1564.35 563 1563.25 559.893 1562.13L560.062 1561.66C556.948 1560.54 553.843 1559.4 550.746 1558.24L550.571 1558.71C547.466 1557.55 544.369 1556.37 541.281 1555.18H541.282L541.462 1554.71C538.376 1553.52 535.299 1552.31 532.23 1551.08L532.045 1551.54C528.975 1550.31 525.914 1549.06 522.861 1547.8L523.053 1547.34C519.997 1546.07 516.95 1544.79 513.913 1543.49L513.717 1543.95C510.67 1542.64 507.633 1541.32 504.604 1539.98L504.807 1539.53C501.78 1538.19 498.763 1536.83 495.755 1535.46L495.548 1535.91C492.538 1534.54 489.538 1533.15 486.548 1531.74L486.761 1531.29C483.77 1529.88 480.787 1528.46 477.815 1527.02L477.597 1527.47C474.615 1526.02 471.644 1524.56 468.683 1523.08L468.906 1522.63C465.946 1521.15 462.996 1519.65 460.056 1518.14L459.826 1518.58C456.884 1517.07 453.953 1515.54 451.031 1513.99L451.265 1513.55C448.344 1512.01 445.433 1510.44 442.532 1508.86L442.293 1509.3C439.383 1507.72 436.484 1506.11 433.595 1504.5L433.84 1504.06C430.953 1502.44 428.075 1500.81 425.209 1499.16L424.96 1499.59C422.092 1497.94 419.234 1496.28 416.388 1494.59L416.643 1494.17C413.798 1492.48 410.963 1490.79 408.14 1489.07L407.88 1489.5C405.048 1487.78 402.228 1486.04 399.418 1484.29L399.683 1483.87C396.875 1482.12 394.077 1480.35 391.291 1478.57L391.021 1478.99C388.234 1477.21 385.458 1475.41 382.692 1473.59L382.967 1473.18C380.203 1471.36 377.451 1469.53 374.71 1467.69L374.431 1468.1C371.684 1466.25 368.948 1464.39 366.225 1462.51L366.509 1462.1C363.786 1460.22 361.075 1458.32 358.375 1456.41L358.086 1456.82C355.385 1454.91 352.695 1452.98 350.018 1451.04L350.311 1450.63C347.634 1448.69 344.97 1446.74 342.317 1444.77L342.02 1445.17C339.363 1443.19 336.718 1441.2 334.085 1439.2L334.389 1438.8C331.757 1436.79 329.137 1434.78 326.529 1432.74L326.222 1433.13H326.221C323.612 1431.1 321.015 1429.05 318.431 1426.98L318.743 1426.59C316.16 1424.53 313.589 1422.45 311.031 1420.36L310.714 1420.74C308.153 1418.65 305.605 1416.53 303.069 1414.41L303.391 1414.03C300.855 1411.9 298.332 1409.76 295.822 1407.61L295.497 1407.99C292.986 1405.83 290.488 1403.66 288.002 1401.48L288.332 1401.1C285.848 1398.92 283.376 1396.72 280.918 1394.51L280.584 1394.88C278.124 1392.67 275.676 1390.44 273.242 1388.2L273.581 1387.84C271.148 1385.6 268.728 1383.34 266.321 1381.07L265.979 1381.44C263.57 1379.17 261.175 1376.88 258.794 1374.58L259.141 1374.23C256.761 1371.93 254.395 1369.62 252.042 1367.3L251.69 1367.65C249.336 1365.33 246.995 1362.99 244.668 1360.63L245.023 1360.28C242.698 1357.93 240.386 1355.57 238.088 1353.19L237.729 1353.54C235.429 1351.16 233.143 1348.77 230.871 1346.36L231.234 1346.02C228.964 1343.61 226.707 1341.19 224.465 1338.76L224.098 1339.1C221.854 1336.67 219.624 1334.22 217.409 1331.77L217.781 1331.43C215.568 1328.98 213.368 1326.51 211.184 1324.02L210.809 1324.35C208.623 1321.87 206.45 1319.37 204.293 1316.86L204.673 1316.54C202.517 1314.03 200.375 1311.51 198.248 1308.98L197.865 1309.3C195.737 1306.76 193.624 1304.22 191.525 1301.66L191.912 1301.34C189.816 1298.78 187.735 1296.22 185.669 1293.63L185.278 1293.95C183.211 1291.36 181.158 1288.77 179.12 1286.16L179.514 1285.85C177.477 1283.25 175.456 1280.63 173.449 1278L173.052 1278.3H173.051C171.044 1275.67 169.052 1273.03 167.075 1270.37L167.476 1270.08C165.502 1267.43 163.543 1264.76 161.6 1262.09L161.195 1262.38C159.251 1259.7 157.322 1257.02 155.408 1254.32L155.815 1254.03C153.903 1251.33 152.006 1248.62 150.124 1245.9L149.713 1246.18C147.83 1243.46 145.964 1240.73 144.112 1237.98L144.526 1237.7C142.679 1234.96 140.847 1232.21 139.031 1229.45L138.613 1229.72C136.796 1226.96 134.995 1224.19 133.21 1221.4L133.631 1221.13C131.847 1218.35 130.079 1215.55 128.326 1212.74L127.901 1213.01C126.148 1210.2 124.411 1207.38 122.689 1204.55L123.117 1204.29C121.401 1201.47 119.7 1198.64 118.016 1195.79L117.586 1196.05C115.901 1193.2 114.232 1190.34 112.579 1187.48L113.013 1187.23C111.361 1184.36 109.725 1181.49 108.106 1178.6L107.671 1178.85C106.051 1175.96 104.448 1173.06 102.861 1170.15L103.3 1169.91C101.718 1167.01 100.152 1164.1 98.6035 1161.18L98.1611 1161.42C96.6119 1158.5 95.0794 1155.57 93.5635 1152.62L94.0078 1152.4C92.4929 1149.46 90.995 1146.51 89.5137 1143.55L89.0654 1143.77C87.5831 1140.81 86.1184 1137.84 84.6699 1134.86L85.1201 1134.64C83.6762 1131.67 82.2489 1128.69 80.8389 1125.7L80.3867 1125.91C78.9771 1122.92 77.5845 1119.92 76.209 1116.92L76.6641 1116.71C75.2895 1113.7 73.932 1110.69 72.5918 1107.66L72.1348 1107.86C70.7937 1104.84 69.4696 1101.8 68.1631 1098.75L68.6221 1098.56C67.3196 1095.52 66.0344 1092.47 64.7666 1089.42L64.3047 1089.61C63.0383 1086.56 61.7892 1083.5 60.5576 1080.43L61.0215 1080.24C59.7905 1077.18 58.5768 1074.1 57.3809 1071.01L56.9141 1071.2C55.7174 1068.11 54.5393 1065.01 53.3779 1061.91L53.8457 1061.73C52.6875 1058.64 51.5467 1055.53 50.4238 1052.42L49.9541 1052.59C48.8337 1049.48 47.7315 1046.37 46.6465 1043.24L47.1182 1043.08C46.0339 1039.96 44.9676 1036.83 43.9189 1033.69L43.4443 1033.85C42.3951 1030.71 41.3629 1027.56 40.3496 1024.41L40.8262 1024.25C39.8149 1021.1 38.8219 1017.95 37.8467 1014.78L37.3682 1014.93C36.3964 1011.77 35.4435 1008.61 34.5078 1005.44L34.9873 1005.3C34.0522 1002.13 33.1343 998.957 32.2354 995.773L31.7549 995.908C30.8554 992.723 29.9743 989.53 29.1113 986.33L29.5938 986.201C28.7315 983.004 27.8871 979.798 27.0615 976.586L26.5771 976.709C25.7563 973.515 24.9543 970.313 24.1699 967.104L24.6553 966.987C23.8714 963.781 23.1056 960.567 22.3584 957.346L21.8721 957.457C21.1244 954.234 20.3943 951.004 19.6836 947.768L20.1719 947.661C19.4616 944.426 18.7698 941.184 18.0967 937.936L17.6074 938.036C16.9378 934.804 16.2869 931.566 15.6543 928.321L16.1445 928.227C15.5133 924.989 14.9008 921.744 14.3066 918.493L13.8154 918.582C13.2209 915.329 12.6441 912.07 12.0869 908.804L12.5801 908.721C12.0232 905.457 11.4852 902.186 10.9658 898.909L10.4717 898.986C9.95436 895.723 9.45547 892.453 8.97559 889.177L9.4707 889.105C8.993 885.844 8.53313 882.577 8.09277 879.304L7.59863 879.369C7.15799 876.094 6.73606 872.813 6.33301 869.525L6.82812 869.466C6.42533 866.181 6.04176 862.889 5.67676 859.593L5.17969 859.647C4.81528 856.356 4.47009 853.059 4.14355 849.757L4.64062 849.708C4.31666 846.432 4.01106 843.15 3.72461 839.862L3.22754 839.904C2.94093 836.615 2.67268 833.32 2.42383 830.021L2.92188 829.983C2.67317 826.685 2.44416 823.382 2.2334 820.073L1.73438 820.104C1.52348 816.794 1.33189 813.478 1.15918 810.157L1.6582 810.133C1.48723 806.845 1.33449 803.552 1.20117 800.255L0.702148 800.274C0.568917 796.979 0.453825 793.679 0.358398 790.374L0.858398 790.36C0.763028 787.057 0.686288 783.75 0.628906 780.438L0.129883 780.444C0.0724723 777.13 0.0338345 773.811 0.0146484 770.487L0.514648 770.486C0.505058 768.826 0.5 767.163 0.5 765.5C0.5 763.837 0.50506 762.175 0.514648 760.515L0.0146484 760.512C0.0338379 757.188 0.072468 753.869 0.129883 750.555L0.628906 750.563C0.686288 747.251 0.763024 743.943 0.858398 740.64L0.358398 740.625C0.434009 738.006 0.521737 735.391 0.621094 732.778L0.702148 730.725L1.20117 730.745C1.33448 727.448 1.48724 724.156 1.6582 720.868L1.15918 720.842C1.32768 717.602 1.5139 714.367 1.71875 711.137L1.73438 710.895L2.2334 710.927C2.44417 707.618 2.67316 704.315 2.92188 701.017L2.42383 700.979C2.67269 697.679 2.94093 694.384 3.22754 691.095L3.72461 691.138C4.01105 687.85 4.31667 684.568 4.64062 681.292L4.14355 681.243C4.47009 677.941 4.81528 674.644 5.17969 671.353L5.67676 671.407C6.04174 668.111 6.42535 664.82 6.82812 661.535L6.33301 661.474C6.73602 658.187 7.15804 654.906 7.59863 651.631L8.09277 651.697C8.53313 648.424 8.993 645.157 9.4707 641.896L8.97559 641.822C9.45546 638.546 9.95437 635.276 10.4717 632.013L10.9648 632.091C11.4842 628.814 12.0232 625.544 12.5801 622.28L12.0869 622.196C12.6441 618.93 13.2209 615.671 13.8154 612.418L14.3066 612.508C14.9008 609.257 15.5133 606.011 16.1445 602.773L15.6543 602.678C16.2868 599.433 16.9379 596.195 17.6074 592.964L18.0967 593.065C18.7698 589.817 19.4616 586.575 20.1719 583.34L19.6836 583.232C20.3944 579.995 21.1243 576.765 21.8721 573.542L22.3584 573.655C23.1056 570.434 23.8713 567.22 24.6553 564.014L24.1699 563.895C24.9543 560.686 25.7563 557.484 26.5771 554.29L27.0615 554.415C27.8871 551.203 28.7315 547.997 29.5938 544.8L29.1104 544.67C29.9733 541.47 30.8554 538.277 31.7549 535.092L32.2354 535.228C33.1342 532.044 34.0512 528.869 34.9863 525.701L34.5068 525.56C35.4426 522.39 36.3964 519.228 37.3682 516.073L37.8457 516.221C38.821 513.055 39.8148 509.897 40.8262 506.747L40.3496 506.595C41.363 503.439 42.3951 500.291 43.4443 497.151L43.918 497.31C44.9666 494.172 46.0338 491.042 47.1182 487.921L46.6455 487.757C47.7305 484.634 48.8336 481.519 49.9541 478.412L50.4238 478.582C51.5467 475.469 52.6875 472.364 53.8457 469.268L53.377 469.093C54.5237 466.027 55.688 462.97 56.8691 459.922L56.9141 459.806L57.3809 459.986C58.5768 456.901 59.7895 453.824 61.0205 450.757L60.5566 450.571C61.5528 448.089 62.5602 445.612 63.5791 443.142L64.3047 441.39L64.7656 441.581C66.0335 438.526 67.3195 435.481 68.6221 432.444L68.1631 432.247C69.4697 429.201 70.7936 426.164 72.1348 423.137L72.5908 423.34C73.9311 420.314 75.2884 417.298 76.6631 414.291L76.209 414.083C77.5265 411.201 78.8602 408.328 80.209 405.464L80.3867 405.087L80.8389 405.3C82.2489 402.309 83.6753 399.328 85.1191 396.357L84.6699 396.139L84.6689 396.138C86.1173 393.157 87.5832 390.187 89.0654 387.227L89.0664 387.228L89.5127 387.451C90.9941 384.492 92.4928 381.543 94.0078 378.604L93.5635 378.375C95.0794 375.434 96.6118 372.503 98.1611 369.582L98.6025 369.816C100.151 366.896 101.717 363.986 103.299 361.087L102.86 360.848C104.447 357.939 106.051 355.041 107.671 352.153L108.106 352.398C109.725 349.512 111.36 346.636 113.012 343.771L112.579 343.521C114.232 340.655 115.9 337.799 117.585 334.954L118.016 335.209C119.7 332.365 121.4 329.532 123.116 326.71L122.689 326.45L122.688 326.449C123.993 324.304 125.308 322.166 126.631 320.033L127.901 317.992L128.325 318.257C130.078 315.45 131.847 312.655 133.631 309.87L133.21 309.601C134.995 306.814 136.796 304.039 138.613 301.275L139.031 301.55C140.847 298.788 142.678 296.037 144.525 293.298L144.112 293.018C145.963 290.272 147.83 287.539 149.712 284.816L150.123 285.101C152.005 282.379 153.903 279.67 155.815 276.972L155.407 276.683C157.321 273.983 159.251 271.295 161.195 268.618L161.6 268.912C163.543 266.238 165.502 263.575 167.476 260.925L167.074 260.626C169.051 257.971 171.043 255.327 173.051 252.696L173.448 253C175.455 250.37 177.477 247.751 179.514 245.146L179.12 244.838C180.674 242.849 182.237 240.868 183.809 238.894L185.278 237.053L185.669 237.365C187.735 234.784 189.816 232.215 191.912 229.659L191.525 229.342C193.624 226.783 195.737 224.236 197.864 221.702L198.248 222.023C200.375 219.49 202.516 216.969 204.672 214.461L204.293 214.136C206.45 211.626 208.622 209.129 210.809 206.646L211.184 206.977C213.368 204.494 215.567 202.025 217.78 199.568L217.409 199.233C219.624 196.775 221.853 194.33 224.097 191.897L224.465 192.236C226.707 189.805 228.964 187.388 231.234 184.983L230.871 184.641C233.143 182.235 235.428 179.841 237.728 177.462L238.087 177.81C240.385 175.432 242.698 173.067 245.023 170.716L244.668 170.364C246.995 168.012 249.335 165.673 251.689 163.348L251.69 163.349L252.041 163.704C254.394 161.381 256.761 159.071 259.141 156.774L258.794 156.414C261.175 154.117 263.57 151.833 265.978 149.563L266.32 149.928C268.727 147.659 271.147 145.404 273.58 143.164L273.242 142.797L273.241 142.796C275.675 140.555 278.123 138.328 280.583 136.115L280.918 136.486C283.376 134.275 285.847 132.079 288.331 129.896L288.001 129.521C290.487 127.336 292.986 125.167 295.497 123.012L295.822 123.392C298.332 121.238 300.855 119.098 303.39 116.974L303.068 116.59C305.604 114.464 308.153 112.353 310.714 110.257L310.715 110.258L311.031 110.645C313.589 108.551 316.16 106.471 318.743 104.407L318.431 104.017C321.015 101.951 323.612 99.9008 326.221 97.8652L326.528 98.2598C329.136 96.2254 331.756 94.2056 334.388 92.2012L334.085 91.8027C336.718 89.7976 339.363 87.8079 342.02 85.833L342.317 86.2344C344.97 84.2628 347.634 82.3064 350.311 80.3652L350.017 79.9609C352.694 78.0186 355.384 76.0913 358.085 74.1797L358.374 74.5879C361.074 72.6774 363.785 70.7819 366.508 68.9023L366.225 68.4912C368.948 66.611 371.684 64.7464 374.431 62.8975L374.71 63.3125C377.451 61.4675 380.203 59.6379 382.967 57.8242L382.692 57.4062C385.458 55.5915 388.234 53.7919 391.021 52.0088L391.291 52.4307C394.077 50.6487 396.874 48.882 399.682 47.1318L399.418 46.708C402.228 44.9568 405.048 43.2211 407.88 41.502L408.139 41.9297C410.962 40.2156 413.797 38.5169 416.642 36.835L416.388 36.4053L416.387 36.4043C418.646 35.0688 420.912 33.7438 423.185 32.4287L424.959 31.4053L425.209 31.8379C428.075 30.1886 430.952 28.5561 433.839 26.9395L433.595 26.5029C436.484 24.8852 439.383 23.2839 442.293 21.6992L442.532 22.1387C445.433 20.559 448.344 18.9949 451.265 17.4482L451.03 17.0068C453.952 15.4596 456.884 13.9289 459.826 12.415L460.055 12.8604C462.995 11.3475 465.945 9.85139 468.905 8.37207L468.682 7.9248L468.681 7.92383C471.643 6.4435 474.615 4.9807 477.597 3.53418L477.815 3.98438C480.787 2.54268 483.769 1.1178 486.76 -0.290039L486.547 -0.743164C488.94 -1.86977 491.34 -2.98504 493.746 -4.08984L495.547 -4.91406L495.754 -4.45898C498.762 -5.83163 501.779 -7.18801 504.806 -8.52637L504.604 -8.9834C507.632 -10.3225 510.669 -11.6446 513.716 -12.9492L513.912 -12.4893C516.949 -13.7898 519.996 -15.0729 523.052 -16.3389L522.86 -16.8008C525.913 -18.0654 528.974 -19.3131 532.044 -20.543L532.229 -20.0781C535.298 -21.3072 538.375 -22.5198 541.461 -23.7139L541.281 -24.1797L541.28 -24.1807C544.368 -25.3755 547.465 -26.5514 550.57 -27.7109L550.745 -27.2432C553.842 -28.3995 556.947 -29.5382 560.061 -30.6592L559.892 -31.1299C562.999 -32.2485 566.115 -33.3484 569.238 -34.4316L569.402 -33.96C572.524 -35.0425 575.655 -36.1073 578.793 -37.1543L578.635 -37.6289C581.775 -38.6765 584.924 -39.706 588.08 -40.7178L588.232 -40.2422C591.382 -41.2518 594.541 -42.2431 597.707 -43.2168L597.56 -43.6953C600.714 -44.6654 603.877 -45.6176 607.047 -46.5518L607.188 -46.0723C610.357 -47.0059 613.533 -47.9209 616.717 -48.8184L616.581 -49.2998C619.766 -50.1978 622.96 -51.077 626.16 -51.9385L626.29 -51.4561C629.488 -52.3168 632.694 -53.1592 635.906 -53.9834L635.781 -54.4678C638.166 -55.0795 640.554 -55.6811 642.946 -56.2725L645.387 -56.8721L645.506 -56.3867C648.713 -57.1693 651.927 -57.9337 655.148 -58.6797L655.036 -59.166C658.259 -59.9124 661.49 -60.6401 664.727 -61.3496L664.834 -60.8623C668.069 -61.5714 671.312 -62.2616 674.561 -62.9336L674.459 -63.4229C677.69 -64.0912 680.928 -64.7426 684.173 -65.374L684.174 -65.373L684.27 -64.8828C687.508 -65.513 690.753 -66.1246 694.004 -66.7178L693.914 -67.21C697.167 -67.8035 700.427 -68.3773 703.693 -68.9336L703.777 -68.4414C707.041 -68.9973 710.312 -69.5343 713.589 -70.0527L713.511 -70.5469C716.774 -71.0632 720.043 -71.562 723.319 -72.041L723.32 -72.04L723.393 -71.5449C726.654 -72.0218 729.922 -72.4803 733.195 -72.9199L733.129 -73.416C736.404 -73.8559 739.686 -74.2764 742.973 -74.6787L743.033 -74.1826C746.318 -74.5847 749.61 -74.9677 752.906 -75.332L752.852 -75.8291C756.143 -76.1929 759.44 -76.5383 762.742 -76.8643L762.791 -76.3662C766.068 -76.6896 769.35 -76.9943 772.638 -77.2803L772.594 -77.7783C775.883 -78.0645 779.178 -78.3316 782.479 -78.5801L782.516 -78.082C785.814 -78.3303 789.117 -78.5601 792.426 -78.7705L792.395 -79.2695C795.705 -79.4801 799.021 -79.6704 802.342 -79.8428L802.367 -79.3438C805.654 -79.5144 808.947 -79.6667 812.244 -79.7998L812.225 -80.2988C815.52 -80.4318 818.819 -80.5473 822.124 -80.6426L822.125 -80.6416L822.14 -80.1426C825.443 -80.2378 828.75 -80.3138 832.062 -80.3711L832.055 -80.8701C835.369 -80.9274 838.688 -80.9662 842.012 -80.9854L842.014 -80.4854C843.674 -80.4949 845.337 -80.5 847 -80.5C848.663 -80.5 850.325 -80.4949 851.985 -80.4854L851.987 -80.9854C855.311 -80.9662 858.63 -80.9274 861.944 -80.8701L861.937 -80.3711C865.249 -80.3138 868.557 -80.2378 871.86 -80.1426L871.875 -80.6416V-80.6426C875.18 -80.5473 878.479 -80.4318 881.774 -80.2988L881.755 -79.7998C885.052 -79.6667 888.345 -79.5154 891.632 -79.3447L891.657 -79.8428C894.978 -79.6704 898.294 -79.4801 901.604 -79.2695L901.573 -78.7705C904.882 -78.5601 908.185 -78.3303 911.483 -78.082L911.521 -78.5801C914.82 -78.3317 918.115 -78.0644 921.404 -77.7783L921.362 -77.2803C924.65 -76.9943 927.932 -76.6896 931.209 -76.3662L931.257 -76.8643C934.559 -76.5383 937.856 -76.1929 941.147 -75.8291L941.094 -75.333C944.39 -74.9687 947.681 -74.5847 950.966 -74.1826L951.026 -74.6787C954.313 -74.2764 957.595 -73.8559 960.87 -73.416L960.805 -72.9199C964.078 -72.4804 967.345 -72.0227 970.606 -71.5459L970.679 -72.04V-72.041C973.955 -71.562 977.225 -71.0633 980.488 -70.5469L980.411 -70.0527C983.688 -69.5343 986.959 -68.9973 990.223 -68.4414L990.306 -68.9336C993.572 -68.3773 996.832 -67.8035 1000.08 -67.21L999.996 -66.7178C1003.25 -66.1246 1006.49 -65.513 1009.73 -64.8828L1009.83 -65.373V-65.374C1013.07 -64.7426 1016.31 -64.0911 1019.54 -63.4229L1019.44 -62.9336C1022.69 -62.2616 1025.93 -61.5714 1029.17 -60.8623L1029.27 -61.3506C1032.51 -60.641 1035.74 -59.9125 1038.96 -59.166L1038.85 -58.6797C1042.07 -57.9337 1045.29 -57.1693 1048.49 -56.3867L1048.61 -56.8721V-56.873C1051.82 -56.09 1055.02 -55.2872 1058.22 -54.4678L1058.09 -53.9844C1061.31 -53.1602 1064.51 -52.3168 1067.71 -51.4561L1067.84 -51.9395C1071.04 -51.0778 1074.23 -50.1979 1077.42 -49.2998L1077.28 -48.8184C1080.47 -47.921 1083.64 -47.0058 1086.81 -46.0723L1086.95 -46.5518C1090.12 -45.6176 1093.28 -44.6654 1096.44 -43.6953L1096.29 -43.2168C1099.46 -42.2432 1102.62 -41.2518 1105.77 -40.2422L1105.92 -40.7178C1109.08 -39.7061 1112.22 -38.6765 1115.36 -37.6289L1115.21 -37.1553C1118.35 -36.1083 1121.48 -35.0425 1124.6 -33.96L1124.76 -34.4326C1127.88 -33.3493 1131 -32.2486 1134.11 -31.1299L1133.94 -30.6592C1137.05 -29.5382 1140.16 -28.3995 1143.25 -27.2432L1143.43 -27.7119C1146.53 -26.5523 1149.63 -25.3755 1152.72 -24.1807V-24.1797L1152.54 -23.7139C1155.62 -22.5198 1158.7 -21.3082 1161.77 -20.0791L1161.95 -20.543C1165.02 -19.3131 1168.09 -18.0654 1171.14 -16.8008L1170.95 -16.3398C1174 -15.0739 1177.05 -13.7898 1180.09 -12.4893L1180.28 -12.9492C1183.33 -11.6447 1186.37 -10.3225 1189.39 -8.9834L1189.19 -8.52637C1192.22 -7.188 1195.24 -5.83262 1198.25 -4.45996L1198.45 -4.91504C1201.46 -3.54156 1204.46 -2.15071 1207.45 -0.743164H1207.45L1207.24 -0.291016C1210.23 1.11689 1213.21 2.54164 1216.18 3.9834L1216.4 3.53418V3.5332C1219.38 4.97953 1222.35 6.44371 1225.32 7.92383H1225.32L1225.09 8.37109C1228.05 9.85039 1231 11.3466 1233.94 12.8594L1234.17 12.415C1237.11 13.9287 1240.05 15.4598 1242.97 17.0068L1242.74 17.4482C1245.66 18.9949 1248.57 20.558 1251.47 22.1377L1251.71 21.6992C1254.62 23.2839 1257.52 24.8852 1260.4 26.5029L1260.16 26.9385C1263.05 28.5552 1265.92 30.1884 1268.79 31.8379L1269.04 31.4043C1271.91 33.0547 1274.76 34.7214 1277.61 36.4043L1277.36 36.835C1280.2 38.5168 1283.04 40.2146 1285.86 41.9287L1286.12 41.502C1288.95 43.221 1291.77 44.9559 1294.58 46.707L1294.32 47.1318C1297.13 48.882 1299.92 50.6476 1302.71 52.4297L1302.98 52.0088C1305.77 53.7919 1308.54 55.5915 1311.31 57.4062L1311.03 57.8242C1313.8 59.6378 1316.55 61.4666 1319.29 63.3115L1319.57 62.8975C1322.32 64.7464 1325.05 66.611 1327.77 68.4912L1327.49 68.9023C1330.21 70.7819 1332.93 72.6774 1335.62 74.5879L1335.91 74.1797C1338.61 76.0912 1341.3 78.0178 1343.98 79.96L1343.69 80.3652C1346.37 82.3064 1349.03 84.2628 1351.68 86.2344L1351.98 85.833C1354.64 87.8079 1357.28 89.7976 1359.91 91.8027L1359.61 92.2012C1362.24 94.2056 1364.86 96.2244 1367.47 98.2588L1367.78 97.8652V97.8643C1370.39 99.8999 1372.98 101.951 1375.57 104.017L1375.26 104.407C1377.84 106.471 1380.41 108.551 1382.97 110.645L1383.29 110.258V110.257C1385.85 112.353 1388.39 114.465 1390.93 116.59L1390.61 116.973C1393.14 119.097 1395.67 121.237 1398.18 123.391L1398.5 123.012C1401.01 125.167 1403.51 127.337 1406 129.521L1405.67 129.896C1408.15 132.078 1410.62 134.275 1413.08 136.486L1413.42 136.114C1415.88 138.327 1418.32 140.555 1420.76 142.796L1420.42 143.164C1422.85 145.404 1425.27 147.658 1427.68 149.927L1428.02 149.563C1430.43 151.833 1432.82 154.117 1435.21 156.414L1434.86 156.774C1437.24 159.07 1439.61 161.381 1441.96 163.704L1442.31 163.348C1444.66 165.673 1447 168.012 1449.33 170.364L1448.98 170.716C1451.3 173.067 1453.61 175.431 1455.91 177.809L1456.27 177.462C1458.57 179.841 1460.86 182.233 1463.13 184.64L1462.77 184.982C1465.04 187.387 1467.29 189.805 1469.54 192.236L1469.9 191.897C1472.15 194.33 1474.37 196.775 1476.59 199.233L1476.22 199.567C1478.43 202.024 1480.63 204.493 1482.82 206.976L1483.19 206.646C1485.38 209.129 1487.55 211.625 1489.71 214.135L1489.33 214.461C1491.48 216.969 1493.63 219.489 1495.75 222.022L1496.13 221.701C1498.26 224.236 1500.38 226.782 1502.47 229.342L1502.09 229.659C1504.18 232.215 1506.26 234.784 1508.33 237.365L1508.72 237.053C1510.79 239.635 1512.84 242.231 1514.88 244.838H1514.88L1514.49 245.146C1516.52 247.751 1518.54 250.37 1520.55 253L1520.95 252.696V252.695C1522.96 255.326 1524.95 257.97 1526.92 260.625L1526.52 260.924C1528.5 263.575 1530.46 266.238 1532.4 268.912L1532.8 268.618C1534.75 271.294 1536.68 273.982 1538.59 276.682L1538.18 276.971C1540.1 279.669 1541.99 282.379 1543.88 285.101L1544.29 284.815C1546.17 287.538 1548.04 290.272 1549.89 293.018L1549.47 293.297C1551.32 296.036 1553.15 298.788 1554.97 301.55L1555.39 301.275C1557.2 304.039 1559 306.814 1560.79 309.6L1560.37 309.869C1562.15 312.654 1563.92 315.45 1565.67 318.257L1566.1 317.991C1567.85 320.8 1569.59 323.619 1571.31 326.449H1571.31L1570.88 326.709C1572.6 329.531 1574.3 332.364 1575.98 335.208L1576.41 334.953C1578.1 337.799 1579.77 340.655 1581.42 343.521L1580.99 343.771C1582.64 346.636 1584.27 349.512 1585.89 352.397L1586.33 352.153C1587.95 355.041 1589.55 357.939 1591.14 360.847L1590.7 361.087C1592.28 363.986 1593.85 366.896 1595.4 369.816L1595.84 369.582C1597.39 372.503 1598.92 375.433 1600.44 378.374L1599.99 378.604C1601.51 381.542 1603.01 384.491 1604.49 387.45L1604.93 387.227V387.226C1606.42 390.186 1607.88 393.157 1609.33 396.138H1609.33L1608.88 396.356C1610.32 399.328 1611.75 402.308 1613.16 405.299L1613.61 405.086C1615.02 408.075 1616.41 411.074 1617.79 414.083L1617.34 414.291C1618.71 417.298 1620.07 420.314 1621.41 423.339L1621.86 423.137C1623.21 426.164 1624.53 429.2 1625.84 432.246L1625.38 432.443C1626.68 435.48 1627.97 438.525 1629.23 441.58L1629.69 441.389C1630.96 444.44 1632.21 447.501 1633.44 450.57L1632.98 450.756C1634.21 453.823 1635.42 456.9 1636.62 459.985L1637.08 459.805V459.804C1638.28 462.891 1639.46 465.987 1640.62 469.092H1640.62L1640.15 469.267C1641.31 472.363 1642.45 475.468 1643.58 478.581L1644.04 478.411C1645.17 481.518 1646.27 484.633 1647.35 487.756L1646.88 487.92C1647.97 491.041 1649.03 494.171 1650.08 497.309L1650.55 497.15C1651.6 500.29 1652.64 503.437 1653.65 506.593V506.594L1653.17 506.747C1654.19 509.897 1655.18 513.054 1656.15 516.22L1656.63 516.072C1657.6 519.226 1658.56 522.389 1659.49 525.559H1659.49L1659.01 525.7C1659.95 528.868 1660.87 532.043 1661.76 535.227L1662.24 535.091C1663.14 538.276 1664.02 541.469 1664.89 544.669H1664.89L1664.41 544.799C1665.27 547.996 1666.11 551.202 1666.94 554.414L1667.42 554.29C1668.24 557.484 1669.04 560.686 1669.83 563.895H1669.83L1669.34 564.013C1670.13 567.219 1670.89 570.433 1671.64 573.654L1672.13 573.542C1672.87 576.765 1673.6 579.995 1674.32 583.231L1673.83 583.339C1674.54 586.574 1675.23 589.816 1675.9 593.064L1676.39 592.963C1677.06 596.195 1677.71 599.433 1678.34 602.678H1678.35L1677.86 602.773C1678.49 606.011 1679.1 609.256 1679.69 612.507L1680.18 612.417C1680.78 615.67 1681.35 618.929 1681.91 622.195L1681.42 622.279C1681.98 625.543 1682.51 628.814 1683.03 632.091L1683.53 632.013C1684.04 635.277 1684.54 638.546 1685.02 641.822L1684.53 641.895C1685.01 645.156 1685.47 648.423 1685.91 651.696L1686.4 651.63C1686.84 654.905 1687.26 658.186 1687.67 661.474L1687.17 661.534C1687.57 664.819 1687.96 668.111 1688.32 671.407L1688.82 671.352C1689.18 674.643 1689.53 677.94 1689.86 681.242L1689.36 681.292C1689.68 684.568 1689.99 687.85 1690.28 691.138L1690.77 691.095C1691.06 694.384 1691.33 697.679 1691.58 700.979L1691.08 701.017C1691.33 704.315 1691.56 707.618 1691.77 710.927L1692.26 710.895C1692.48 714.205 1692.67 717.521 1692.84 720.842L1692.34 720.867C1692.51 724.155 1692.67 727.448 1692.8 730.745L1693.3 730.725Z" stroke="#E3CCCD" stroke-dasharray="10 10"/>
<g clip-path="url(#clip0_42_1062)">
<path d="M815.313 770.868C815.589 770.472 816.016 770.636 816.394 770.728C816.646 770.79 816.998 770.87 817.397 770.94C818.217 771.086 819.155 771.179 819.836 771.057C820.517 770.935 821.365 770.523 822.083 770.103C822.433 769.898 822.736 769.701 822.951 769.556C823.265 769.343 823.633 769.047 824.013 769.312C824.41 769.589 824.246 770.016 824.153 770.394C824.092 770.646 824.012 770.998 823.942 771.397C823.796 772.217 823.703 773.154 823.824 773.836C823.947 774.517 824.359 775.364 824.779 776.083C824.953 776.377 825.135 776.667 825.326 776.951C825.543 777.271 825.844 777.619 825.569 778.013C825.298 778.404 824.861 778.245 824.488 778.153C824.156 778.072 823.821 778.002 823.485 777.942C822.665 777.795 821.727 777.703 821.046 777.824C820.365 777.946 819.517 778.359 818.799 778.779C818.504 778.952 818.215 779.134 817.931 779.325C817.61 779.543 817.266 779.846 816.869 779.569C816.472 779.293 816.636 778.866 816.729 778.488C816.79 778.236 816.87 777.884 816.94 777.485C817.086 776.665 817.179 775.727 817.058 775.045C816.935 774.365 816.523 773.517 816.103 772.799C815.898 772.449 815.701 772.146 815.557 771.931C815.341 771.614 815.039 771.261 815.313 770.868Z" fill="#E3CCCD"/>
</g>
<g clip-path="url(#clip1_42_1062)">
<path d="M849.014 741.846C848.685 741.491 848.936 741.109 849.108 740.76C849.221 740.527 849.375 740.2 849.529 739.825C849.846 739.055 850.137 738.159 850.164 737.467C850.19 736.776 849.968 735.86 849.711 735.069C849.586 734.683 849.458 734.345 849.363 734.104C849.222 733.751 849.011 733.329 849.351 733.014C849.706 732.685 850.089 732.937 850.438 733.108C850.671 733.222 850.998 733.375 851.372 733.529C852.143 733.846 853.038 734.138 853.73 734.165C854.422 734.191 855.338 733.968 856.129 733.711C856.454 733.605 856.776 733.489 857.094 733.363C857.453 733.219 857.857 732.999 858.184 733.352C858.507 733.701 858.258 734.093 858.09 734.438C857.939 734.745 857.799 735.057 857.669 735.373C857.351 736.142 857.06 737.039 857.033 737.731C857.007 738.422 857.229 739.338 857.486 740.129C857.592 740.454 857.708 740.776 857.835 741.094C857.979 741.454 858.201 741.855 857.846 742.184C857.491 742.513 857.109 742.261 856.759 742.09C856.526 741.976 856.199 741.823 855.825 741.669C855.055 741.351 854.159 741.06 853.467 741.033C852.776 741.007 851.859 741.229 851.068 741.487C850.683 741.612 850.345 741.739 850.104 741.835C849.748 741.978 849.338 742.197 849.014 741.846Z" fill="#E3CCCD"/>
</g>
<g clip-path="url(#clip2_42_1062)">
<path d="M1141.63 698.207C1141.86 697.78 1142.3 697.892 1142.69 697.939C1142.95 697.97 1143.3 698.008 1143.71 698.031C1144.54 698.078 1145.48 698.06 1146.14 697.858C1146.81 697.656 1147.6 697.146 1148.26 696.644C1148.58 696.399 1148.86 696.168 1149.06 695.998C1149.35 695.75 1149.68 695.412 1150.09 695.63C1150.51 695.858 1150.4 696.301 1150.35 696.688C1150.32 696.945 1150.28 697.304 1150.26 697.708C1150.21 698.54 1150.23 699.482 1150.43 700.145C1150.64 700.806 1151.15 701.599 1151.65 702.262C1151.86 702.534 1152.07 702.8 1152.29 703.059C1152.55 703.351 1152.89 703.661 1152.66 704.085C1152.44 704.505 1151.99 704.399 1151.6 704.352C1151.27 704.311 1150.92 704.281 1150.58 704.261C1149.75 704.213 1148.81 704.232 1148.15 704.434C1147.49 704.636 1146.69 705.146 1146.03 705.648C1145.76 705.855 1145.49 706.07 1145.23 706.294C1144.94 706.548 1144.63 706.889 1144.21 706.662C1143.78 706.434 1143.89 705.991 1143.94 705.604C1143.97 705.347 1144.01 704.988 1144.03 704.584C1144.08 703.752 1144.06 702.81 1143.86 702.147C1143.66 701.486 1143.15 700.693 1142.64 700.03C1142.4 699.707 1142.17 699.429 1142 699.233C1141.75 698.944 1141.41 698.629 1141.63 698.207Z" fill="#E3CCCD"/>
</g>
<g clip-path="url(#clip3_42_1062)">
<path d="M874.888 569.98C874.712 569.53 875.087 569.266 875.374 569.004C875.565 568.829 875.828 568.581 876.108 568.289C876.686 567.689 877.286 566.963 877.565 566.329C877.842 565.695 877.972 564.761 878.023 563.931C878.048 563.527 878.053 563.165 878.053 562.906C878.051 562.526 878.01 562.056 878.442 561.888C878.893 561.712 879.156 562.086 879.418 562.374C879.594 562.565 879.841 562.828 880.133 563.108C880.733 563.686 881.46 564.286 882.094 564.564C882.727 564.842 883.661 564.971 884.491 565.023C884.833 565.043 885.175 565.053 885.517 565.053C885.903 565.051 886.36 564.994 886.535 565.442C886.708 565.885 886.333 566.159 886.049 566.418C885.796 566.649 885.552 566.887 885.314 567.133C884.736 567.732 884.137 568.46 883.858 569.094C883.58 569.727 883.451 570.661 883.4 571.491C883.379 571.832 883.369 572.174 883.37 572.516C883.372 572.904 883.431 573.359 882.981 573.535C882.53 573.71 882.267 573.336 882.004 573.048C881.829 572.857 881.581 572.595 881.29 572.314C880.69 571.736 879.963 571.137 879.329 570.858C878.696 570.58 877.762 570.45 876.931 570.4C876.527 570.375 876.166 570.369 875.906 570.37C875.523 570.372 875.062 570.426 874.888 569.98Z" fill="#E3CCCD"/>
</g>
<g clip-path="url(#clip4_42_1062)">
<path d="M547.813 385.624C547.5 385.255 547.767 384.884 547.953 384.542C548.076 384.314 548.243 383.994 548.413 383.626C548.762 382.87 549.091 381.987 549.146 381.297C549.201 380.607 549.018 379.682 548.794 378.881C548.685 378.491 548.572 378.148 548.487 377.903C548.361 377.545 548.168 377.114 548.521 376.813C548.89 376.5 549.261 376.767 549.603 376.953C549.831 377.076 550.151 377.243 550.519 377.413C551.275 377.762 552.158 378.091 552.848 378.146C553.538 378.201 554.462 378.018 555.264 377.794C555.593 377.702 555.919 377.599 556.242 377.487C556.607 377.358 557.02 377.155 557.332 377.521C557.64 377.883 557.375 378.265 557.192 378.603C557.029 378.903 556.876 379.209 556.732 379.519C556.382 380.274 556.054 381.158 555.998 381.848C555.943 382.538 556.127 383.462 556.35 384.264C556.443 384.593 556.545 384.919 556.658 385.242C556.787 385.608 556.992 386.018 556.624 386.332C556.255 386.645 555.884 386.378 555.542 386.192C555.314 386.069 554.994 385.902 554.626 385.732C553.87 385.382 552.987 385.054 552.297 384.998C551.607 384.943 550.682 385.127 549.881 385.35C549.491 385.46 549.148 385.573 548.903 385.658C548.541 385.786 548.123 385.988 547.813 385.624Z" fill="#E3CCCD"/>
</g>
<path d="M941.298 227.508C941.301 227.024 941.746 226.918 942.11 226.78C942.352 226.688 942.687 226.554 943.056 226.387C943.814 226.042 944.64 225.588 945.133 225.102C945.625 224.615 946.09 223.795 946.444 223.042C946.616 222.675 946.754 222.342 946.85 222.101C946.988 221.747 947.123 221.295 947.587 221.298C948.071 221.301 948.177 221.746 948.315 222.11C948.407 222.352 948.541 222.688 948.709 223.056C949.053 223.815 949.507 224.64 949.993 225.133C950.48 225.625 951.3 226.09 952.053 226.444C952.362 226.589 952.676 226.724 952.994 226.85C953.355 226.991 953.8 227.107 953.797 227.587C953.794 228.063 953.345 228.179 952.985 228.315C952.666 228.437 952.35 228.568 952.039 228.709C951.28 229.053 950.455 229.507 949.962 229.994C949.47 230.48 949.005 231.3 948.651 232.053C948.506 232.362 948.371 232.677 948.245 232.995C948.104 233.356 947.991 233.801 947.508 233.798C947.024 233.794 946.917 233.349 946.78 232.985C946.687 232.743 946.554 232.408 946.386 232.039C946.042 231.281 945.588 230.455 945.101 229.962C944.615 229.47 943.795 229.005 943.042 228.652C942.675 228.479 942.342 228.341 942.1 228.246C941.743 228.106 941.295 227.986 941.298 227.508Z" fill="#E3CCCD"/>
<path d="M645.582 884.368C645.1 884.325 645.031 883.872 644.924 883.498C644.853 883.249 644.748 882.904 644.611 882.522C644.331 881.738 643.948 880.877 643.504 880.345C643.061 879.815 642.282 879.283 641.562 878.867C641.21 878.665 640.889 878.499 640.657 878.384C640.316 878.217 639.877 878.044 639.918 877.582C639.962 877.1 640.414 877.031 640.789 876.924C641.038 876.853 641.383 876.748 641.764 876.611C642.549 876.331 643.409 875.948 643.941 875.504C644.472 875.061 645.003 874.282 645.419 873.562C645.589 873.265 645.751 872.963 645.902 872.657C646.073 872.31 646.226 871.875 646.704 871.919C647.178 871.961 647.256 872.419 647.362 872.789C647.456 873.117 647.561 873.443 647.675 873.765C647.955 874.549 648.339 875.41 648.782 875.942C649.226 876.472 650.004 877.004 650.725 877.419C651.021 877.59 651.323 877.751 651.629 877.903C651.978 878.073 652.411 878.223 652.368 878.705C652.324 879.186 651.872 879.256 651.498 879.362C651.249 879.434 650.903 879.539 650.522 879.675C649.738 879.955 648.877 880.339 648.345 880.782C647.814 881.226 647.282 882.004 646.867 882.725C646.665 883.076 646.499 883.397 646.384 883.63C646.215 883.974 646.058 884.411 645.582 884.368Z" fill="#E3CCCD"/>
<g opacity="0.6">
<circle cx="1049.5" cy="942.5" r="105.5" stroke="#E3CCCD" stroke-width="6"/>
<circle cx="1049.5" cy="942.5" r="105.5" stroke="#E3CCCD" stroke-width="6"/>
<circle cx="1048.5" cy="942.5" r="92.75" stroke="#E3CCCD" stroke-width="1.5"/>
<circle cx="1049" cy="943" r="116.5" stroke="#E3CCCD" stroke-dasharray="4 4"/>
<circle cx="1048.5" cy="942.5" r="123.5" stroke="#E3CCCD" stroke-width="2"/>
<path d="M1047.5 859C1093.62 859 1131 896.166 1131 942C1131 987.834 1093.62 1025 1047.5 1025C1001.38 1025 964 987.834 964 942C964 896.166 1001.38 859 1047.5 859Z" stroke="#E3CCCD" stroke-width="2"/>
<circle cx="994.5" cy="894.5" r="26" stroke="#E3CCCD"/>
<circle cx="1105.5" cy="894.5" r="26" stroke="#E3CCCD"/>
<circle cx="1105.5" cy="992.5" r="26" stroke="#E3CCCD"/>
<circle cx="994.5" cy="992.5" r="26" stroke="#E3CCCD"/>
<path d="M1091.81 977.75H1005.19L1048.5 900.51L1091.81 977.75Z" stroke="#E3CCCD" stroke-width="0.5"/>
<path d="M1006.07 910.254L1092.68 910.06L1049.55 987.397L1006.07 910.254Z" stroke="#E3CCCD" stroke-width="0.5"/>
<path d="M1074.31 986.075L998.71 943.8L1074.21 897.522L1074.31 986.075Z" stroke="#E3CCCD" stroke-width="0.5"/>
<path d="M1024.1 898.217L1098.42 942.7L1021.59 986.735L1024.1 898.217Z" stroke="#E3CCCD" stroke-width="0.5"/>
<g clip-path="url(#clip5_42_1062)">
<path fill-rule="evenodd" clip-rule="evenodd" d="M1049.93 872.655C1049.62 871.782 1048.38 871.782 1048.06 872.655L1046.62 876.622L1042.65 878.065C1041.78 878.383 1041.78 879.617 1042.65 879.935L1046.62 881.378L1048.06 885.345C1048.38 886.218 1049.62 886.218 1049.93 885.345L1051.38 881.378L1055.34 879.935C1056.22 879.617 1056.22 878.383 1055.34 878.065L1051.38 876.622L1049.93 872.655Z" fill="#E3CCCD"/>
</g>
<path fill-rule="evenodd" clip-rule="evenodd" d="M983.935 935.655C983.617 934.782 982.383 934.782 982.065 935.655L980.622 939.622L976.655 941.065C975.782 941.383 975.782 942.617 976.655 942.935L980.622 944.378L982.065 948.345C982.383 949.218 983.617 949.218 983.935 948.345L985.378 944.378L989.345 942.935C990.218 942.617 990.218 941.383 989.345 941.065L985.378 939.622L983.935 935.655Z" fill="#E3CCCD"/>
<path fill-rule="evenodd" clip-rule="evenodd" d="M1115.93 936.655C1115.62 935.782 1114.38 935.782 1114.06 936.655L1112.62 940.622L1108.65 942.065C1107.78 942.383 1107.78 943.617 1108.65 943.935L1112.62 945.378L1114.06 949.345C1114.38 950.218 1115.62 950.218 1115.93 949.345L1117.38 945.378L1121.34 943.935C1122.22 943.617 1122.22 942.383 1121.34 942.065L1117.38 940.622L1115.93 936.655Z" fill="#E3CCCD"/>
<path fill-rule="evenodd" clip-rule="evenodd" d="M1048.93 997.655C1048.62 996.782 1047.38 996.782 1047.06 997.655L1045.62 1001.62L1041.65 1003.06C1040.78 1003.38 1040.78 1004.62 1041.65 1004.93L1045.62 1006.38L1047.06 1010.34C1047.38 1011.22 1048.62 1011.22 1048.93 1010.34L1050.38 1006.38L1054.34 1004.93C1055.22 1004.62 1055.22 1003.38 1054.34 1003.06L1050.38 1001.62L1048.93 997.655Z" fill="#E3CCCD"/>
<path d="M1037.5 827.5L1049.5 798L1060.5 827.5L1049.5 856.5L1037.5 827.5Z" stroke="#E3CCCD" stroke-width="2"/>
<path d="M932.287 930.365L961.634 942.736L931.998 953.364L903.139 941.999L932.287 930.365Z" stroke="#E3CCCD" stroke-width="2"/>
<path d="M1060.24 1057L1048.49 1086.6L1037.24 1057.19L1048 1028.1L1060.24 1057Z" stroke="#E3CCCD" stroke-width="2"/>
<path d="M1163.16 953.844L1133.32 942.718L1162.49 930.854L1191.8 940.995L1163.16 953.844Z" stroke="#E3CCCD" stroke-width="2"/>
<g clip-path="url(#clip6_42_1062)">
<path d="M997.966 884.735C996.314 883.993 994.492 883.714 992.695 883.927C990.897 884.139 989.191 884.836 987.758 885.942C986.325 887.048 985.219 888.523 984.559 890.208C983.898 891.894 983.707 893.727 984.007 895.512C984.307 897.298 985.085 898.968 986.26 900.346C987.434 901.723 988.961 902.756 990.676 903.334C992.392 903.912 994.232 904.013 996.001 903.627C997.77 903.242 999.4 902.383 1000.72 901.143C1001.37 900.534 1000.96 899.448 1000.07 899.416C998.553 899.359 997.102 898.772 995.971 897.756C994.841 896.74 994.102 895.36 993.883 893.856C993.664 892.352 993.979 890.818 994.774 889.523C995.568 888.227 996.792 887.25 998.232 886.763L998.335 886.722C999.096 886.373 999.115 885.26 998.321 884.903L998.078 884.794L998.019 884.761L997.966 884.735Z" fill="#E3CCCD"/>
</g>
<g clip-path="url(#clip7_42_1062)">
<path d="M1100 902.713C1101.71 903.3 1103.55 903.412 1105.32 903.036C1107.09 902.66 1108.73 901.811 1110.05 900.578C1111.38 899.346 1112.34 897.776 1112.85 896.038C1113.35 894.299 1113.37 892.456 1112.91 890.706C1112.45 888.955 1111.52 887.363 1110.23 886.098C1108.93 884.834 1107.32 883.945 1105.56 883.526C1103.8 883.107 1101.95 883.174 1100.23 883.72C1098.5 884.265 1096.96 885.27 1095.76 886.625C1095.17 887.29 1095.67 888.334 1096.56 888.285C1098.08 888.203 1099.57 888.656 1100.79 889.564C1102.01 890.472 1102.87 891.779 1103.23 893.257C1103.58 894.735 1103.41 896.291 1102.74 897.654C1102.06 899.017 1100.94 900.101 1099.55 900.717L1099.45 900.768C1098.72 901.185 1098.8 902.294 1099.63 902.577L1099.88 902.664L1099.94 902.692L1100 902.713Z" fill="#E3CCCD"/>
</g>
<path d="M1096.12 998.163C1097.31 999.528 1098.85 1000.54 1100.57 1001.1C1102.29 1001.66 1104.13 1001.74 1105.9 1001.34C1107.66 1000.93 1109.28 1000.06 1110.59 998.801C1111.89 997.546 1112.83 995.961 1113.31 994.214C1113.78 992.467 1113.77 990.624 1113.28 988.882C1112.79 987.139 1111.84 985.562 1110.52 984.32C1109.21 983.077 1107.58 982.215 1105.81 981.826C1104.04 981.436 1102.2 981.534 1100.48 982.109C1099.64 982.39 1099.56 983.548 1100.35 983.948C1101.71 984.635 1102.78 985.775 1103.38 987.171C1103.98 988.567 1104.08 990.129 1103.65 991.587C1103.21 993.045 1102.29 994.306 1101.02 995.15C1099.76 995.995 1098.24 996.37 1096.73 996.21L1096.62 996.204C1095.78 996.203 1095.3 997.205 1095.87 997.862L1096.04 998.062L1096.08 998.117L1096.12 998.163Z" fill="#E3CCCD"/>
<g clip-path="url(#clip8_42_1062)">
<path d="M996.876 982.78C995.117 982.352 993.275 982.408 991.546 982.944C989.817 983.48 988.266 984.475 987.058 985.824C985.85 987.172 985.031 988.823 984.688 990.601C984.345 992.378 984.491 994.216 985.11 995.917C985.73 997.618 986.799 999.119 988.205 1000.26C989.61 1001.4 991.299 1002.14 993.091 1002.39C994.883 1002.65 996.711 1002.42 998.38 1001.72C1000.05 1001.01 1001.5 999.873 1002.57 998.414C1003.09 997.698 1002.5 996.704 1001.62 996.833C1000.11 997.054 998.58 996.74 997.283 995.947C995.987 995.154 995.009 993.931 994.52 992.492C994.032 991.052 994.063 989.487 994.608 988.069C995.154 986.65 996.18 985.467 997.507 984.726L997.601 984.667C998.285 984.186 998.102 983.088 997.256 982.881L996.998 982.818L996.933 982.796L996.876 982.78Z" fill="#E3CCCD"/>
</g>
<path d="M1068.47 915.541C1076.11 915.928 1079.52 919.023 1079.52 924.515C1079.52 930.007 1075.75 933.333 1071.67 937.356V937.511C1079.77 933.643 1087 941.456 1087 951.976C1087 967.834 1077.71 969.691 1065.74 969.691H1049.22V968.143C1053.3 968.143 1054.28 967.834 1054.28 957.778V954.219C1051.29 966.519 1042.41 970 1034.57 970C1019.86 970 1013.3 959.712 1010.88 965.359L1010 964.198L1017.28 946.02H1017.95C1017.02 954.065 1020.48 967.293 1034.57 967.293C1044.84 967.293 1054.28 963.347 1054.28 944.627V927.454C1054.28 917.398 1053.3 917.089 1049.22 917.089V915.541H1068.47ZM1030.33 915C1037.2 915 1042.82 919.332 1044.68 920.647C1046.75 922.117 1047.78 921.034 1048.35 919.719L1049.22 920.879L1041.43 938.284H1040.76C1042.62 926.99 1037.15 918.636 1030.33 918.017C1024.5 918.017 1020.94 922.039 1020.94 926.99C1020.99 938.361 1049.07 936.969 1049.07 953.368C1049.07 956.54 1048.45 957.546 1047.42 959.634C1045.25 961.568 1043.03 962.032 1040.86 962.032V961.259C1041.22 959.866 1041.48 958.474 1041.48 957.314C1041.48 944.782 1015.06 950.274 1015.06 930.162C1015.06 919.719 1021.87 915 1030.33 915ZM1065.58 968.143C1076.78 968.143 1079 961.8 1079 952.208C1079 943.699 1072.09 935.809 1066 943.776C1063.41 947.567 1061.51 952.286 1061.51 959.015V968.143H1065.58ZM1061.51 950.197C1064.34 937.82 1072.81 934.416 1072.81 924.36C1072.81 919.023 1070.64 917.089 1067.13 917.089H1061.51V950.197Z" fill="#E3CCCD"/>
</g>
</g>
<defs>
<clipPath id="clip0_42_1062">
<rect width="15" height="15" fill="white" transform="translate(810 776.308) rotate(-55.139)"/>
</clipPath>
<clipPath id="clip1_42_1062">
<rect width="15" height="15" fill="white" transform="translate(853.193 748.198) rotate(-132.809)"/>
</clipPath>
<clipPath id="clip2_42_1062">
<rect width="15" height="15" fill="white" transform="translate(1137 704.238) rotate(-61.9474)"/>
</clipPath>
<clipPath id="clip3_42_1062">
<rect width="15" height="15" fill="white" transform="translate(876.446 577.423) rotate(-111.29)"/>
</clipPath>
<clipPath id="clip4_42_1062">
<rect width="15" height="15" fill="white" transform="translate(551.723 392.145) rotate(-130.405)"/>
</clipPath>
<clipPath id="clip5_42_1062">
<rect width="14" height="14" fill="white" transform="translate(1041 872)"/>
</clipPath>
<clipPath id="clip6_42_1062">
<rect width="24" height="24" fill="white" transform="translate(987.836 878) rotate(24.1942)"/>
</clipPath>
<clipPath id="clip7_42_1062">
<rect width="24" height="24" fill="white" transform="translate(1110.7 908.494) rotate(-161.045)"/>
</clipPath>
<clipPath id="clip8_42_1062">
<rect width="24" height="24" fill="white" transform="translate(985.69 978) rotate(13.7151)"/>
</clipPath>
</defs>
</svg>
