<svg width="208" height="71" viewBox="0 0 208 71" fill="none" xmlns="http://www.w3.org/2000/svg">
<path d="M57.1553 52.7502H13.8447L35.5 14.5071L57.1553 52.7502Z" stroke="#E3CCCD" stroke-width="0.5"/>
<path d="M14.3359 19.3715L57.493 19.2751L36.0009 57.8095L14.3359 19.3715Z" stroke="#E3CCCD" stroke-width="0.5"/>
<path d="M48.334 57.1868L10.6662 36.1229L48.2839 13.0637L48.334 57.1868Z" stroke="#E3CCCD" stroke-width="0.5"/>
<path d="M23.315 13.407L60.3459 35.5713L22.0655 57.5125L23.315 13.407Z" stroke="#E3CCCD" stroke-width="0.5"/>
<path fill-rule="evenodd" clip-rule="evenodd" d="M121.414 43.8223C121.323 43.5729 120.971 43.5729 120.88 43.8223L120.468 44.9558L119.334 45.3681C119.085 45.4589 119.085 45.8115 119.334 45.9024L120.468 46.3147L120.88 47.4481C120.971 47.6976 121.323 47.6976 121.414 47.4481L121.826 46.3147L122.96 45.9024C123.209 45.8115 123.209 45.4589 122.96 45.3681L121.826 44.9558L121.414 43.8223Z" fill="#E3CCCD"/>
<path d="M36.8464 27.7553C36.6037 27.1605 36.2041 26.6426 35.6901 26.2571C35.1762 25.8716 34.5673 25.6328 33.9283 25.5662C33.2893 25.4996 32.6442 25.6077 32.0619 25.8789C31.4795 26.1502 30.9817 26.5745 30.6216 27.1065C30.2614 27.6386 30.0525 28.2584 30.017 28.8998C29.9815 29.5413 30.1208 30.1804 30.42 30.7489C30.7192 31.3174 31.1672 31.794 31.7161 32.1279C32.2649 32.4618 32.8941 32.6404 33.5366 32.6447C33.8518 32.6469 34.0131 32.268 33.7931 32.0427C33.4168 31.6562 33.1879 31.15 33.1461 30.6122C33.1042 30.0744 33.2522 29.5389 33.5643 29.0989C33.8764 28.6589 34.3328 28.3422 34.8542 28.2038C35.3756 28.0654 35.929 28.1142 36.4182 28.3415L36.4548 28.3561C36.7356 28.4528 37.0131 28.1718 36.8964 27.8855L36.8608 27.7981L36.8536 27.775L36.8464 27.7553Z" fill="#E3CCCD"/>
<path d="M21.6921 51.1262L21.0801 50.4677L26.1561 40.1515H26.6241C25.9761 44.717 28.3881 51.653 36.0921 52.2237C39.4041 52.2237 43.0401 49.7214 43.0401 46.5607C43.0401 39.4491 24.6081 42.5659 24.6081 31.1523C24.6081 25.2259 29.3601 22.5481 35.2641 22.5481C40.0521 22.5481 43.9761 25.0064 45.2721 25.7527C46.7121 26.5868 47.4321 25.9722 47.8281 25.2259L48.4401 25.8844L43.0041 35.7616H42.5361C43.8321 29.3524 40.0161 24.6113 35.2641 24.2601C31.1961 24.2601 28.7121 26.5429 28.7121 29.3524C28.7481 35.8055 48.3321 35.0154 48.3321 44.3219C48.3321 52.1798 40.1241 53.7601 36.4521 53.7601C27.9561 53.7601 23.3841 47.9216 21.6921 51.1262Z" fill="#E3CCCD"/>
<path d="M51.5781 31.143C52.6981 31.143 53.3381 31.783 53.3381 32.903V35.207C54.2661 32.327 56.3461 30.823 59.5141 30.823C64.3461 30.823 67.0981 33.735 67.0981 39.143C67.0981 44.519 64.3461 47.335 59.8661 47.335C56.5061 47.335 54.2981 45.831 53.3381 42.983V48.615C53.3381 52.775 53.9461 52.903 56.4741 52.903V53.543H45.7221V52.903C48.2501 52.903 48.8581 52.775 48.8581 48.615V36.071C48.8581 31.911 48.2501 31.783 45.7221 31.783V31.143H51.5781ZM58.0101 32.135C55.1621 32.135 53.6901 35.015 53.6901 39.143C53.6901 43.239 55.5461 46.023 58.0101 46.023C60.4741 46.023 62.2981 43.239 62.2981 39.143C62.2981 35.015 60.4741 32.135 58.0101 32.135Z" fill="#E3CCCD"/>
<path d="M75.1486 44.5121C76.3006 45.3121 77.6446 45.6641 79.0846 45.6641C82.5086 45.6641 84.7166 43.5201 84.8446 40.7041H85.5166C85.0366 45.3121 81.2606 47.9361 76.6846 47.9361C71.7246 47.9361 67.1486 44.9601 67.1486 39.7441C67.1486 34.4961 71.7246 31.5201 77.2286 31.5201C82.5726 31.5201 83.8846 33.8241 85.1646 32.7041L85.7086 32.8961L82.4446 36.5441L75.1486 44.5121ZM81.2606 34.4961C80.4606 33.3441 78.8926 32.6401 77.0046 32.6401C73.0046 32.6401 71.0846 36.7361 72.5246 40.8321C73.0046 42.2081 73.7086 43.2641 74.5726 44.0321L81.3246 36.6401C81.8046 36.0641 81.6126 35.0081 81.2606 34.4961Z" fill="#E3CCCD"/>
<path d="M91.3671 25.6001C92.4871 25.6001 93.1271 26.2401 93.1271 27.3601V43.0721C93.1271 47.2321 93.7351 47.3601 96.2631 47.3601V48.0001H85.5111V47.3601C88.0391 47.3601 88.6471 47.2321 88.6471 43.0721V30.5281C88.6471 26.3681 88.0391 26.2401 85.5111 26.2401V25.6001H91.3671Z" fill="#E3CCCD"/>
<path d="M102.119 25.6001C103.239 25.6001 103.879 26.2401 103.879 27.3601V43.0721C103.879 47.2321 104.487 47.3601 107.015 47.3601V48.0001H96.2631V47.3601C98.7911 47.3601 99.3991 47.2321 99.3991 43.0721V30.5281C99.3991 26.3681 98.7911 26.2401 96.2631 26.2401V25.6001H102.119Z" fill="#E3CCCD"/>
<path d="M119.334 22.8001C124.662 23.0258 127.038 24.8315 127.038 28.0367C127.038 31.2418 124.41 33.183 121.566 35.5304V35.6207C127.218 33.3635 132.258 37.923 132.258 44.0624C132.258 53.3167 125.778 54.4001 117.426 54.4001H105.906V53.4973C108.75 53.4973 109.434 53.3167 109.434 47.4481V29.7521C109.434 23.8835 108.75 23.703 105.906 23.703V22.8001H119.334ZM117.318 53.4973C125.13 53.4973 126.678 49.7956 126.678 44.1978C126.678 39.2321 121.854 34.6275 117.606 39.2773C115.806 41.4893 114.474 44.243 114.474 48.1704V53.4973H117.318ZM114.474 43.0241C116.454 35.8013 122.358 33.815 122.358 27.9464C122.358 24.8315 120.846 23.703 118.398 23.703H114.474V43.0241Z" fill="#E3CCCD"/>
<path d="M140.634 47.6801C135.354 47.6801 131.454 44.8901 131.454 40.0001C131.454 35.0801 135.354 32.2901 140.634 32.2901C145.854 32.2901 149.784 35.0801 149.784 40.0001C149.784 44.8901 145.854 47.6801 140.634 47.6801ZM142.734 46.4501C146.034 45.7301 145.734 42.2501 144.804 38.9501C143.814 35.6801 141.864 32.5901 138.564 33.5201C135.384 34.4201 135.474 37.7201 136.434 41.0201C137.394 44.3201 139.494 47.1401 142.734 46.4501Z" fill="#E3CCCD"/>
<path d="M149.44 37.0301C149.44 33.1301 148.87 33.0101 146.5 33.0101V32.4101H151.99C153.04 32.4101 153.64 33.0101 153.64 34.0601V38.4701C153.64 42.9401 153.85 46.1201 156.79 46.1201C159.61 46.1201 160.36 42.3701 160.54 37.8101V37.0301C160.54 33.1301 159.97 33.0101 157.6 33.0101V32.4101H163.09C164.14 32.4101 164.74 33.0101 164.74 34.0601V42.7901C164.74 46.6901 165.31 46.8101 167.68 46.8101V47.4101H160.54V43.4501H160.48C159.73 45.8801 158.29 47.6801 155.26 47.6801C150.67 47.6801 149.68 45.4601 149.47 42.2801H149.44V37.0301Z" fill="#E3CCCD"/>
<path d="M183.98 42.7901C183.98 46.6901 184.55 46.8101 186.92 46.8101V47.4101H176.84V46.8101C179.21 46.8101 179.78 46.6901 179.78 42.7901V41.3501C179.78 36.8801 179.57 33.7001 176.63 33.7001C173.81 33.7001 173.06 37.4501 172.88 42.0101V42.7901C172.88 46.6901 173.45 46.8101 175.82 46.8101V47.4101H165.74V46.8101C168.11 46.8101 168.68 46.6901 168.68 42.7901V37.0301C168.68 33.1301 168.11 33.0101 165.74 33.0101V32.4101H171.23C172.28 32.4101 172.88 33.0101 172.88 34.0601V36.3701H172.94C173.69 33.9401 175.13 32.1401 178.16 32.1401C184.4 32.1401 183.98 36.2501 183.98 41.3501V42.7901Z" fill="#E3CCCD"/>
<path d="M199.82 43.3001C198.95 46.0001 197 47.4101 194.03 47.4101C189.5 47.4101 186.92 44.6801 186.92 39.6101C186.92 34.5701 189.5 31.9301 193.7 31.9301C196.85 31.9301 198.92 33.3401 199.82 36.0101V30.7301C199.82 26.8301 199.25 26.7101 196.88 26.7101V26.1101H202.37C203.42 26.1101 204.02 26.7101 204.02 27.7601V42.4901C204.02 46.3901 204.59 46.5101 206.96 46.5101V47.1101H199.82V43.3001ZM195.44 46.1801C198.11 46.1801 199.49 43.4801 199.49 39.6101C199.49 35.7701 197.75 33.1601 195.44 33.1601C193.13 33.1601 191.42 35.7701 191.42 39.6101C191.42 43.4801 193.13 46.1801 195.44 46.1801Z" fill="#E3CCCD"/>
<path d="M56 51.0001H107" stroke="#E3CCCD" stroke-width="0.5" stroke-linecap="round"/>
<path d="M132 51.0001L207 51.0001" stroke="#E3CCCD" stroke-width="0.5" stroke-linecap="round"/>
<path d="M116 51.0001H123" stroke="#E3CCCD" stroke-width="0.5" stroke-linecap="round"/>
</svg>
